<?xml version="1.0" standalone="no"?>
<!DOCTYPE svg PUBLIC "-//W3C//DTD SVG 1.1//EN" "http://www.w3.org/Graphics/SVG/1.1/DTD/svg11.dtd" >
<svg xmlns="http://www.w3.org/2000/svg" xmlns:xlink="http://www.w3.org/1999/xlink" version="1.1">
<metadata>
Created by FontForge 20170924 at Thu Nov 17 09:09:15 2016
 By www-data
(c) Copyright Beijing HANYI KEYIN Information Technology Co.
</metadata>
<defs>
<font id="HYYaKuHeiJ" horiz-adv-x="1000" vert-adv-y="1000" >
  <font-face 
    font-family="HYYaKuHeiJ"
    font-weight="400"
    font-stretch="normal"
    units-per-em="1000"
    panose-1="0 2 6 0 4 1 1 1 1 1"
    ascent="850"
    descent="-150"
    x-height="540"
    cap-height="737"
    bbox="-109 -318.032 1239 1073"
    underline-thickness="50"
    underline-position="-344"
    unicode-range="U+001B-FFE5"
  />
<missing-glyph 
 />
    <glyph glyph-name=".notdef" 
 />
    <glyph glyph-name="uni001B" 
 />
    <glyph glyph-name="space" unicode=" " horiz-adv-x="320" 
 />
    <glyph glyph-name="exclam" unicode="!" horiz-adv-x="331" 
d="M82 215h166l23 522h-211zM65 -58h200v184h-200v-184z" />
    <glyph glyph-name="quotedbl" unicode="&#x22;" horiz-adv-x="487" 
d="M86 461h102l26 276h-154zM299 461h102l26 276h-154z" />
    <glyph glyph-name="numbersign" unicode="#" horiz-adv-x="671" 
d="M622 392l19 122h-74l20 134h-158l-18 -134h-95l18 134h-160l-18 -134h-68l-18 -122h69l-24 -177h-66l-19 -122h69l-18 -137h160l19 137h94l-18 -137h161l18 137h68l19 122h-71l24 177h67zM373 206h-101l26 195h101z" />
    <glyph glyph-name="dollar" unicode="$" horiz-adv-x="634" 
d="M604 199q0 75 -50 132q-32 32 -72 54q-50 26 -104 45q-48 15 -90 40q-15 10 -25 24q-6 10 -6 22q1 27 25 41q27 14 59 14q87 -2 166 -40l65 122q-79 53 -172 66v113h-146v-115q-50 -9 -96 -31q-39 -20 -69 -53q-28 -32 -40 -73q-9 -34 -9 -68q0 -39 12 -75q12 -31 33 -56
q29 -31 66 -51q47 -25 98 -42l14 -6q33 -11 64 -25q16 -8 30 -17q25 -16 28 -44q-2 -29 -26 -43q-17 -9 -37 -12q-25 -5 -50 -4q-96 3 -175 55l-67 -124q45 -33 98 -50q61 -22 126 -28v-101h146v105q48 10 93 31q37 20 65 52q26 32 37 73q8 34 9 69z" />
    <glyph glyph-name="percent" unicode="%" horiz-adv-x="907" 
d="M326 -58l412 796h-158l-412 -796h158zM204 737q-39 -1 -74 -15q-31 -16 -53 -44q-22 -34 -30 -73q-7 -37 -7 -73q-1 -37 7 -73q8 -40 30 -73q21 -28 53 -44q35 -15 74 -14q37 -1 72 14q32 16 53 44q22 34 30 73q7 36 8 73q-1 36 -8 73q-8 39 -30 73q-21 28 -53 44
q-35 14 -72 15zM204 424q-12 0 -22 7q-12 9 -18 22q-15 38 -13 79q-2 41 13 79q7 13 18 22q10 7 22 8q11 -1 21 -8q11 -9 17 -22q15 -38 14 -79q1 -41 -14 -79q-6 -13 -17 -22q-10 -7 -21 -7zM704 351q-39 -1 -74 -15q-32 -16 -53 -44q-22 -34 -30 -73q-8 -37 -7 -73
q-1 -37 7 -73q8 -40 30 -73q21 -27 53 -43q35 -15 74 -15q37 1 72 15q31 16 53 43q22 34 30 73q7 36 8 73q-1 36 -8 73q-8 39 -30 73q-21 28 -53 44q-35 14 -72 15zM704 43q-12 0 -21 6q-11 9 -17 22q-14 36 -12 75q-2 39 12 75q6 13 17 22q9 6 21 7q11 -1 20 -7
q10 -9 16 -22q14 -36 13 -75q1 -39 -13 -75q-6 -13 -16 -22q-9 -6 -20 -6z" />
    <glyph glyph-name="ampersand" unicode="&#x26;" horiz-adv-x="822" 
d="M647 -58q74 1 145 23l-22 141q-33 -9 -66 -9q-17 -1 -33 3q-13 4 -22 15q-10 13 -12 29q-4 28 -3 56v84h134v132h-134v104h-163v-104h-135q-36 0 -59 27q-20 27 -19 61q-1 34 23 58q31 26 72 26h144v149h-166q-47 -1 -93 -10q-51 -11 -96 -38q-38 -26 -60 -67
q-22 -42 -21 -89q0 -55 31 -99q36 -52 96 -72v-3q-38 -11 -71 -31q-29 -19 -51 -47q-37 -53 -36 -117q1 -96 74 -157q43 -32 96 -48q60 -16 123 -17q99 1 193 37q26 -20 59 -28q35 -9 72 -9zM349 99q-46 -1 -84 24q-35 27 -35 72q0 34 23 60q27 29 68 30h150v-171
q-61 -16 -122 -15z" />
    <glyph glyph-name="quotesingle" unicode="'" horiz-adv-x="274" 
d="M86 461h102l26 276h-154z" />
    <glyph glyph-name="parenleft" unicode="(" horiz-adv-x="405" 
d="M374 -298q-76 134 -115 283q-32 125 -33 257q0 150 42 295q38 128 107 243h-221q-59 -118 -89 -245q-35 -145 -35 -293q2 -283 124 -540h220z" />
    <glyph glyph-name="parenright" unicode=")" horiz-adv-x="405" 
d="M251 -298q121 257 124 540q-1 148 -36 293q-30 127 -88 245h-221q68 -115 106 -243q42 -145 43 -295q-2 -132 -34 -257q-39 -149 -114 -283h220z" />
    <glyph glyph-name="asterisk" unicode="*" horiz-adv-x="489" 
d="M177 309l68 132l69 -132l118 86l-111 106l148 34l-49 137l-125 -75l23 140h-147l24 -140l-125 72l-50 -134l147 -33l-108 -107z" />
    <glyph glyph-name="plus" unicode="+" horiz-adv-x="585" 
d="M525 263v139h-163v165h-140v-165h-162v-139h163v-165h139v165h163z" />
    <glyph glyph-name="comma" unicode="," horiz-adv-x="328" 
d="M69 -229q46 4 89 21q37 17 64 47q26 31 37 71q8 34 9 68v153h-199v-189h88q-2 -36 -25 -64q-30 -30 -72 -38z" />
    <glyph glyph-name="hyphen" unicode="-" horiz-adv-x="457" 
d="M397 402h-337v-140h337v140z" />
    <glyph glyph-name="period" unicode="." horiz-adv-x="319" 
d="M60 -58h199v189h-199v-189z" />
    <glyph glyph-name="slash" unicode="/" horiz-adv-x="512" 
d="M204 -58l269 838h-163l-269 -838h163z" />
    <glyph glyph-name="zero" unicode="0" horiz-adv-x="660" 
d="M330 757q-38 -1 -74 -8q-34 -8 -65 -23q-62 -33 -101 -91q-20 -32 -35 -67q-15 -40 -24 -81q-13 -74 -13 -148q-1 -75 13 -148q9 -42 24 -81q15 -36 35 -67q39 -57 101 -90q31 -15 65 -23q36 -7 74 -8q37 1 73 8q34 8 65 23q62 33 101 90q20 31 35 67q15 39 24 81
q13 73 14 148q-1 74 -14 148q-9 41 -24 81q-15 35 -35 67q-39 58 -101 91q-31 15 -65 23q-36 7 -73 8zM330 82q-27 0 -48 17q-26 23 -39 54q-18 44 -24 92q-6 46 -5 94q-1 47 5 94t24 92q14 31 39 54q21 16 48 18q26 -2 47 -18q25 -23 39 -54q17 -45 24 -92q5 -47 6 -94
q-1 -48 -6 -94q-7 -48 -24 -92q-14 -31 -39 -54q-21 -16 -47 -17z" />
    <glyph glyph-name="one" unicode="1" horiz-adv-x="660" 
d="M468 -58v795h-143l-185 -114v-137l142 52v-596h186z" />
    <glyph glyph-name="two" unicode="2" horiz-adv-x="660" 
d="M590 92h-289q85 78 163 166q54 60 89 133q30 63 32 133q-1 41 -12 81q-16 48 -51 83q-37 35 -86 51q-57 17 -116 18q-60 -2 -117 -20q-65 -20 -123 -56l7 -151q40 26 86 43q47 17 96 19q50 0 91 -28q30 -23 32 -61q-2 -43 -22 -82q-29 -54 -69 -100q-43 -51 -89 -99
q-70 -73 -142 -142v-138h520v150z" />
    <glyph glyph-name="three" unicode="3" horiz-adv-x="660" 
d="M442 360q54 24 91 71q36 51 36 115q-1 88 -67 147q-37 31 -84 47q-52 16 -105 17q-60 -1 -118 -14q-48 -12 -91 -34l1 -156q36 19 76 28q42 10 85 11q23 -1 45 -6q19 -6 35 -17q26 -22 27 -55q-1 -37 -25 -64q-31 -30 -73 -29h-61v-137h62q44 -1 78 -30q28 -28 29 -67
q0 -47 -35 -78q-36 -25 -79 -24q-38 0 -73 12q-43 16 -80 43l-65 -141q106 -74 236 -77q50 1 100 12q58 15 107 49q43 32 70 79q24 48 25 103q1 71 -42 126q-43 49 -105 69z" />
    <glyph glyph-name="four" unicode="4" horiz-adv-x="660" 
d="M336 -58h196v135h122v153h-122v507h-259l-272 -527v-133h335v-135zM184 229l158 330v-330h-158z" />
    <glyph glyph-name="five" unicode="5" horiz-adv-x="660" 
d="M374 443q-46 0 -91 -9l5 139h281v165h-476l-13 -414l48 -37q67 29 141 32q23 -1 47 -6q26 -7 47 -24q39 -35 39 -88q-1 -48 -35 -81q-43 -37 -99 -37q-88 -2 -166 39l-52 -141q54 -28 114 -42q69 -16 140 -17q67 0 131 22q56 20 99 61q42 42 61 99q14 48 15 98
q-1 41 -12 82q-14 48 -47 85q-32 36 -77 55q-48 19 -100 19z" />
    <glyph glyph-name="six" unicode="6" horiz-adv-x="660" 
d="M403 472q-92 -1 -162 -58q2 43 18 83q15 34 43 60q30 24 68 34q33 8 67 9q65 -2 130 -17l4 151q-88 23 -178 23q-43 -1 -84 -9q-39 -9 -75 -26q-72 -36 -120 -99q-25 -35 -43 -73q-19 -42 -30 -87q-17 -77 -17 -155q-1 -86 23 -168q22 -70 69 -126q46 -49 109 -74
q52 -16 107 -18q64 0 125 23q55 22 97 64q41 45 59 103q14 49 15 101q-1 46 -12 92q-13 51 -46 92q-30 36 -73 56q-46 18 -94 19zM338 73q-39 1 -62 34q-15 20 -23 44q-9 29 -12 59q-5 37 -2 76q37 48 99 51q44 -2 69 -39q14 -22 20 -47q4 -23 5 -47q-1 -25 -5 -49
q-6 -25 -20 -47q-26 -35 -69 -35z" />
    <glyph glyph-name="seven" unicode="7" horiz-adv-x="660" 
d="M372 -78q33 173 96 339q34 91 77 179q39 79 88 153v144h-548v-163h341q-101 -149 -173 -314q-70 -165 -112 -338h231z" />
    <glyph glyph-name="eight" unicode="8" horiz-adv-x="660" 
d="M328 -78q52 1 104 11q59 13 110 45q43 28 69 74q24 47 25 100q0 66 -40 119q-22 27 -50 47q-31 21 -64 36q57 28 95 79q32 47 32 104q0 49 -21 94q-22 43 -61 72q-46 31 -99 43q-48 10 -97 11q-50 -1 -98 -12q-54 -13 -99 -47q-39 -31 -61 -76q-21 -47 -21 -98
q0 -52 29 -94q36 -49 90 -76q-33 -15 -61 -36t-49 -48q-38 -55 -37 -122q0 -53 23 -99q26 -44 69 -72q50 -32 108 -44q51 -10 104 -11zM331 406q-40 15 -66 48q-20 27 -19 61q-1 36 22 64q25 27 63 28q38 -1 62 -30q22 -28 22 -62q-1 -36 -23 -65q-25 -30 -61 -44zM331 73
q-45 0 -76 31q-27 30 -26 71q0 44 30 76q30 30 72 41q46 -12 77 -48q24 -31 24 -69q0 -41 -25 -71q-32 -32 -76 -31z" />
    <glyph glyph-name="nine" unicode="9" horiz-adv-x="660" 
d="M257 207q91 0 162 58q0 -71 -40 -128q-21 -27 -51 -43q-31 -15 -65 -15q-65 -1 -125 21l-58 -137q42 -19 88 -28q59 -12 120 -13q60 2 118 21q73 29 124 87q25 31 45 67q20 39 33 81q28 96 28 198q0 85 -24 166q-22 69 -69 124q-46 50 -109 73q-52 17 -106 18
q-65 0 -126 -23q-55 -22 -97 -65q-41 -45 -59 -103q-14 -49 -14 -100q0 -47 11 -93q13 -51 46 -92q30 -36 73 -56q46 -18 95 -18zM322 606q38 -2 62 -33q15 -20 23 -44q9 -28 12 -57q3 -40 2 -79q-38 -49 -99 -51q-45 1 -70 38q-14 21 -20 47q-4 23 -4 48q-1 24 4 48
q6 25 20 47q26 35 70 36z" />
    <glyph glyph-name="colon" unicode=":" horiz-adv-x="319" 
d="M60 274h199v189h-199v-189zM60 -58h199v189h-199v-189z" />
    <glyph glyph-name="semicolon" unicode=";" horiz-adv-x="328" 
d="M69 274h199v189h-199v-189zM69 -229q46 4 89 21q37 17 64 47q26 31 37 71q8 34 9 68v153h-199v-189h88q-2 -36 -25 -64q-30 -30 -72 -38z" />
    <glyph glyph-name="less" unicode="&#x3c;" horiz-adv-x="533" 
d="M473 235l-290 104l290 105v150l-413 -164v-181l413 -164v150z" />
    <glyph glyph-name="equal" unicode="=" horiz-adv-x="585" 
d="M525 516h-465v-139h465v139zM525 289h-465v-140h465v140z" />
    <glyph glyph-name="greater" unicode="&#x3e;" horiz-adv-x="533" 
d="M60 85l413 164v181l-413 164v-150l290 -105l-290 -104v-150z" />
    <glyph glyph-name="question" unicode="?" horiz-adv-x="492" 
d="M126 203h171q-1 38 18 71q22 35 55 62q28 24 53 53q20 24 35 52q24 49 24 104q-1 39 -13 77q-15 44 -49 75q-36 30 -80 45q-48 14 -99 15q-126 -2 -221 -82l65 -122q25 21 55 34q27 12 58 13q36 0 64 -24q22 -22 22 -52q-2 -26 -17 -47q-20 -26 -45 -45q-49 -40 -74 -97
q-24 -64 -22 -132zM111 -58h199v189h-199v-189z" />
    <glyph glyph-name="at" unicode="@" horiz-adv-x="1026" 
d="M540 -272q78 1 154 17q66 15 127 46l18 123q-69 -33 -144 -48q-76 -15 -153 -15q-45 1 -88 8q-40 8 -78 23q-71 29 -123 86q-51 58 -73 134q-17 63 -17 129t17 131q21 77 71 139q49 58 118 90q74 32 156 33q59 -1 117 -16q68 -18 123 -61q51 -41 79 -100q28 -61 29 -128
q-1 -41 -8 -81q-8 -42 -28 -79q-16 -28 -43 -46q-22 -14 -48 -15q-25 0 -39 20q-14 25 -9 55l23 285q-37 28 -81 41q-42 12 -85 13q-109 -1 -187 -76q-42 -43 -64 -99q-22 -61 -22 -125q0 -41 9 -81q11 -43 37 -80q24 -31 58 -50q33 -15 70 -16q49 0 94 19q46 23 72 68
q21 -43 61 -67q39 -17 83 -16q50 1 94 26q46 29 76 74q33 51 48 111q11 50 12 102q-1 74 -23 146q-29 88 -93 154q-32 32 -70 57q-40 25 -83 42q-47 17 -96 27q-53 8 -106 9q-85 -1 -167 -25q-49 -17 -95 -42q-43 -27 -80 -60q-36 -36 -65 -77q-28 -43 -48 -90
q-20 -50 -30 -103q-10 -56 -10 -112q0 -86 24 -169q17 -50 43 -95q26 -43 60 -81q35 -36 76 -66q44 -28 91 -48q50 -19 103 -30q56 -10 113 -11zM506 110q-28 1 -41 26q-16 37 -14 78q0 29 4 58q6 31 20 59q12 22 32 38q17 12 38 13q13 -1 27 -3l-19 -226q-3 -18 -16 -29
q-13 -13 -31 -14z" />
    <glyph glyph-name="A" unicode="A" horiz-adv-x="732" 
d="M732 -58l-214 795h-305l-213 -795h217l37 155h223l37 -155h218zM365 564h2l72 -307h-147z" />
    <glyph glyph-name="B" unicode="B" horiz-adv-x="676" 
d="M390 -58q60 1 117 17q49 15 88 47q36 33 53 79q12 38 13 78q0 65 -37 118q-21 28 -51 47q-33 21 -70 31v3q53 16 89 59q38 49 39 112q-1 85 -65 141q-40 32 -89 46q-59 16 -119 17h-328v-795h360zM230 416v161h108q38 0 68 -24q24 -22 25 -54q-1 -34 -25 -58
q-30 -26 -70 -25h-106zM230 102v183h122q41 0 74 -25t35 -66q-1 -42 -32 -70q-30 -23 -68 -22h-131z" />
    <glyph glyph-name="C" unicode="C" horiz-adv-x="670" 
d="M604 127q-37 -19 -78 -27t-83 -8q-44 0 -84 19q-42 21 -73 56q-62 74 -61 171q0 46 11 91q13 49 46 89q31 34 74 52q45 16 94 17q83 1 162 -29l7 159q-93 39 -194 40q-46 -1 -90 -9q-42 -9 -81 -25q-76 -33 -131 -95q-55 -66 -79 -148q-18 -70 -19 -142q0 -74 19 -144
q13 -42 34 -81q20 -36 47 -67q56 -60 133 -92q83 -32 172 -32q65 1 128 16q50 12 96 35z" />
    <glyph glyph-name="D" unicode="D" horiz-adv-x="721" 
d="M310 -58q47 1 94 8q42 7 82 21q36 15 69 35q30 22 55 50q24 30 42 64q17 37 28 77q15 70 16 142q-1 48 -8 97q-7 43 -21 84q-14 37 -35 71q-21 31 -48 57q-29 25 -62 43q-36 18 -75 29q-68 16 -137 17h-280v-795h280zM230 102v475h112q34 -1 64 -19q31 -21 51 -54
q22 -40 31 -84q7 -41 8 -82q-1 -42 -8 -83q-9 -44 -31 -83q-20 -32 -51 -53q-30 -17 -64 -17h-112z" />
    <glyph glyph-name="E" unicode="E" horiz-adv-x="583" 
d="M30 -58h533v160h-333v172h289v144h-289v159h332v160h-532v-795z" />
    <glyph glyph-name="F" unicode="F" horiz-adv-x="582" 
d="M562 577v160h-532v-795h200v300h289v155h-289v180h332z" />
    <glyph glyph-name="G" unicode="G" horiz-adv-x="726" 
d="M696 402h-270v-151h73v-163q-33 -7 -66 -6q-93 1 -153 71q-31 41 -44 91q-11 46 -11 94q0 46 11 92q15 51 48 92q32 36 75 56q44 18 92 19q102 1 197 -35l5 156q-54 19 -111 28q-60 10 -120 11q-68 -2 -133 -20q-80 -27 -141 -83q-60 -59 -91 -137q-16 -42 -24 -85
q-8 -47 -8 -94q0 -74 19 -145q13 -42 34 -81q20 -35 47 -67q55 -59 130 -91q79 -31 164 -32q74 1 145 20q72 18 132 61v399z" />
    <glyph glyph-name="H" unicode="H" horiz-adv-x="702" 
d="M472 737v-314h-242v314h-200v-795h200v321h242v-321h200v795h-200z" />
    <glyph glyph-name="I" unicode="I" horiz-adv-x="320" 
d="M260 737h-200v-795h200v795z" />
    <glyph glyph-name="J" unicode="J" horiz-adv-x="338" 
d="M278 737h-200v-657q0 -38 -10 -75q-9 -31 -30 -57q-25 -25 -58 -37q-31 -10 -65 -14l-24 -160q76 0 148 15q40 9 78 24q32 15 60 36q52 40 77 100q24 64 24 133v692z" />
    <glyph glyph-name="K" unicode="K" horiz-adv-x="739" 
d="M230 737h-200v-795h200v313h75q46 -96 101 -186q41 -67 89 -127h244q-158 187 -275 403l215 392h-205l-172 -322h-72v322z" />
    <glyph glyph-name="L" unicode="L" horiz-adv-x="546" 
d="M536 102h-306v635h-200v-795h506v160z" />
    <glyph glyph-name="M" unicode="M" horiz-adv-x="874" 
d="M30 -58h200v585h3l118 -585h173l116 585h4v-585h200v795h-304l-103 -573l-103 573h-304v-795z" />
    <glyph glyph-name="N" unicode="N" horiz-adv-x="696" 
d="M30 -58h200v583h3l133 -583h300v795h-200v-611h-3l-137 611h-296v-795z" />
    <glyph glyph-name="O" unicode="O" horiz-adv-x="797" 
d="M397 757q-81 -1 -154 -34q-73 -34 -125 -95q-54 -66 -79 -148q-18 -70 -19 -142q0 -73 19 -142q23 -82 77 -148q52 -59 124 -93q75 -32 157 -33q81 1 156 33q72 34 123 93q53 66 77 148q17 70 19 142q-2 72 -19 142q-24 82 -77 148q-51 61 -123 95q-75 33 -156 34z
M397 95q-38 0 -72 17q-35 19 -59 52q-26 40 -37 86q-9 43 -9 88q0 43 9 86q11 47 37 87q24 33 59 53q34 18 72 19q37 -1 70 -18q35 -20 58 -53q26 -40 37 -87q9 -43 10 -87q-1 -45 -10 -88q-11 -46 -37 -86q-24 -32 -58 -52q-33 -17 -70 -17z" />
    <glyph glyph-name="P" unicode="P" horiz-adv-x="675" 
d="M30 -58h200v242h50q72 0 144 13q38 8 74 22q31 14 58 33q49 37 73 92q23 58 23 121q-1 56 -20 108q-21 52 -62 91q-48 41 -109 58q-58 14 -116 15h-315v-795zM230 344v233h96q27 -1 53 -10q23 -9 41 -26q32 -35 32 -82q0 -50 -37 -83q-20 -17 -45 -25q-27 -7 -55 -7h-85z
" />
    <glyph glyph-name="Q" unicode="Q" horiz-adv-x="797" 
d="M397 757q-81 -1 -154 -34q-73 -34 -125 -95q-54 -66 -79 -148q-18 -70 -19 -142q0 -72 18 -141q24 -82 77 -148q51 -59 123 -93q74 -32 155 -34q22 -55 55 -106l215 1q-50 71 -87 149q98 55 148 156q49 102 48 216q-2 72 -19 142q-24 82 -77 148q-51 61 -123 95
q-75 33 -156 34zM397 95q-38 0 -72 17q-35 19 -59 52q-26 40 -37 86q-9 43 -9 88q0 43 9 86q11 47 37 87q24 33 59 53q34 18 72 19q37 -1 70 -18q35 -20 58 -53q26 -40 37 -87q9 -43 10 -87q-1 -45 -10 -88q-11 -46 -37 -86q-24 -32 -58 -52q-33 -17 -70 -17z" />
    <glyph glyph-name="R" unicode="R" horiz-adv-x="717" 
d="M717 -58q-62 81 -119 166q-49 73 -91 151q66 34 107 96q36 58 37 128q-3 115 -91 189q-45 36 -99 52q-45 12 -90 13h-341v-795h201v288h86q36 -89 81 -173q33 -59 74 -115h245zM231 577h103q46 -1 82 -29q34 -29 35 -72q-1 -44 -33 -73q-37 -30 -85 -29h-102v203z" />
    <glyph glyph-name="S" unicode="S" horiz-adv-x="607" 
d="M311 -78q61 0 119 21q51 19 90 56q37 38 54 88q12 41 13 85q0 45 -13 89q-14 40 -43 72q-26 25 -57 45q-55 32 -115 54q-48 15 -88 43q-14 11 -23 26q-7 13 -7 28q1 29 27 45q29 17 64 17q86 -1 166 -35l41 148q-110 53 -231 53q-49 -1 -96 -13q-53 -14 -96 -49
q-39 -33 -59 -79q-20 -48 -20 -100q-1 -46 14 -89q11 -30 30 -55q29 -36 68 -61q49 -30 103 -49q50 -18 92 -49q29 -23 30 -59q-2 -29 -24 -48q-27 -20 -61 -19q-60 0 -116 18q-53 17 -101 47l-52 -150q134 -81 291 -80z" />
    <glyph glyph-name="T" unicode="T" horiz-adv-x="611" 
d="M206 -58h200v635h200v159h-601v-159h201v-635z" />
    <glyph glyph-name="U" unicode="U" horiz-adv-x="708" 
d="M678 737h-201v-526q0 -54 -35 -93q-37 -36 -88 -36q-53 0 -90 36q-35 39 -34 93v526h-200v-516q-1 -54 13 -106q17 -61 59 -107q44 -43 104 -64q72 -22 148 -22q75 0 147 22q60 21 104 64q42 46 59 107q13 52 14 106v516z" />
    <glyph glyph-name="V" unicode="V" horiz-adv-x="746" 
d="M528 737l-154 -627h-2l-155 627h-217l220 -795h305l221 795h-218z" />
    <glyph glyph-name="W" unicode="W" horiz-adv-x="1027" 
d="M885 -58l142 795h-221l-76 -626h-3l-104 626h-219l-101 -626h-3l-85 622l-215 4l141 -795h295l78 526h3l77 -526h291z" />
    <glyph glyph-name="X" unicode="X" horiz-adv-x="736" 
d="M736 -58l-229 406l208 389h-211l-136 -275l-136 275h-211l208 -389l-229 -406h214l154 290l154 -290h214z" />
    <glyph glyph-name="Y" unicode="Y" horiz-adv-x="703" 
d="M254 -58h200v290l249 505h-205l-144 -370l-140 370h-214l254 -503v-292z" />
    <glyph glyph-name="Z" unicode="Z" horiz-adv-x="630" 
d="M20 -58h590v158h-358l350 467v170h-571v-160h358l-369 -481v-154z" />
    <glyph glyph-name="bracketleft" unicode="[" horiz-adv-x="430" 
d="M245 -145v772h125v153h-310v-1078h310v153h-125z" />
    <glyph glyph-name="backslash" unicode="\" horiz-adv-x="512" 
d="M466 -58l-269 838h-163l269 -838h163z" />
    <glyph glyph-name="bracketright" unicode="]" horiz-adv-x="431" 
d="M60 -298h311v1078h-311v-153h115v-772h-115v-153z" />
    <glyph glyph-name="asciicircum" unicode="^" horiz-adv-x="671" 
d="M72 480h186l77 163l77 -163h185l-166 300h-193z" />
    <glyph glyph-name="underscore" unicode="_" horiz-adv-x="519" 
d="M514 -45l-509 2v-139l509 -2v139z" />
    <glyph glyph-name="grave" unicode="`" horiz-adv-x="487" 
d="M355 587l-77 193h-178l100 -193h155z" />
    <glyph glyph-name="a" unicode="a" horiz-adv-x="592" 
d="M288 560q-114 -3 -220 -42v-136q86 23 177 24q23 -1 46 -6q20 -4 36 -15q27 -19 28 -52v-33h-105q-52 0 -102 -15q-41 -13 -73 -42q-30 -30 -43 -69q-10 -34 -10 -69q-1 -42 12 -82q12 -33 36 -58q26 -24 59 -35q28 -7 58 -8q48 1 91 22q46 23 81 60q5 -31 16 -62h207
q-15 49 -20 98q-10 66 -11 133v185q-1 36 -11 72q-15 42 -48 71q-37 31 -84 44q-59 15 -120 15zM355 104q-35 -34 -82 -36q-25 -1 -42 17q-14 18 -13 41q-2 33 23 55q27 17 60 16h54v-93z" />
    <glyph glyph-name="b" unicode="b" horiz-adv-x="621" 
d="M385 -78q94 2 151 77q33 46 47 102q15 68 16 138q-1 70 -16 138q-14 57 -47 105q-31 41 -78 62q-38 15 -78 16q-39 -1 -75 -16q-40 -16 -73 -41v277h-196v-607q0 -64 -7 -127q-5 -52 -19 -104h192q10 31 17 62q28 -35 68 -55q46 -25 98 -27zM309 92q-49 3 -77 43v234
q33 29 78 31q47 -1 68 -44q9 -18 13 -38q7 -36 7 -71q0 -36 -7 -70q-6 -27 -20 -50q-22 -34 -62 -35z" />
    <glyph glyph-name="c" unicode="c" horiz-adv-x="534" 
d="M334 -78q51 1 101 13q52 14 97 42l-47 137q-55 -33 -118 -32q-31 0 -59 12t-48 35q-39 48 -38 112q0 28 7 56q9 31 31 56q43 46 107 47q60 0 117 -20l10 144q-82 35 -171 36q-68 0 -131 -25q-57 -24 -98 -71q-41 -50 -58 -113q-14 -55 -14 -110q0 -57 14 -112
q19 -64 63 -114q43 -45 101 -69q65 -24 134 -24z" />
    <glyph glyph-name="d" unicode="d" horiz-adv-x="621" 
d="M236 -78q51 2 97 27q40 21 69 55q4 -31 15 -62h194q-15 52 -20 104q-7 63 -6 127v607h-196v-277q-34 25 -74 41q-36 15 -74 16q-97 -2 -156 -78q-33 -48 -47 -105q-16 -68 -16 -138q-1 -71 16 -140q15 -55 48 -101q57 -74 150 -76zM312 92q-41 1 -63 35q-14 23 -20 50
q-7 34 -6 70q-1 35 6 71q4 20 13 38q21 43 69 44q44 -2 78 -31v-234q-15 -19 -35 -31t-42 -12z" />
    <glyph glyph-name="e" unicode="e" horiz-adv-x="613" 
d="M589 190q2 29 2 60q0 69 -21 135q-20 57 -61 101q-41 41 -96 59q-46 14 -94 15q-53 -1 -103 -15q-60 -18 -106 -60q-44 -44 -66 -103q-23 -69 -22 -141q0 -56 14 -110q18 -63 60 -113q43 -46 101 -71q64 -25 134 -25q61 0 121 16q61 17 112 53l-43 132q-37 -19 -77 -30
q-39 -11 -79 -11q-30 -1 -58 7q-25 8 -46 24q-36 30 -43 77h371zM217 304q4 39 31 67q28 27 67 29q38 -1 65 -29q24 -29 26 -67h-189z" />
    <glyph glyph-name="f" unicode="f" horiz-adv-x="449" 
d="M88 -58h196v458h138v140h-144v23q-1 34 19 61q20 23 51 23q43 -1 87 -8l17 137q-81 23 -164 24q-36 -1 -71 -12q-40 -14 -70 -45q-29 -31 -44 -71q-14 -43 -14 -88v-44h-84v-140h83v-458z" />
    <glyph glyph-name="g" unicode="g" horiz-adv-x="615" 
d="M283 -318q55 1 109 12q59 13 107 48q42 34 64 83q22 55 22 113v602h-191v-43q-33 29 -74 45q-37 16 -77 18q-53 -1 -98 -25q-45 -28 -72 -72q-30 -53 -42 -113q-9 -54 -9 -109q0 -54 10 -107q12 -59 44 -109q28 -41 72 -66q43 -23 93 -24q90 2 152 69v-52q0 -48 -39 -77
q-22 -14 -47 -19q-24 -4 -48 -5q-95 2 -185 31l-26 -160q114 -38 235 -40zM307 95q-40 0 -61 33q-13 23 -18 48q-6 35 -5 70q-2 55 20 106q9 21 27 35q16 12 37 13q47 -2 82 -34v-227q-17 -21 -41 -33q-19 -10 -41 -11z" />
    <glyph glyph-name="h" unicode="h" horiz-adv-x="594" 
d="M398 560q-47 0 -90 -19q-50 -24 -85 -66v305h-193v-838h196v403q13 23 36 38q21 15 47 17q23 -1 40 -16q18 -19 19 -46v-396h196v435q-1 40 -14 78q-13 34 -38 60q-48 45 -114 45z" />
    <glyph glyph-name="i" unicode="i" horiz-adv-x="306" 
d="M54 613h199v167h-199v-167zM55 -58h196v598h-196v-598z" />
    <glyph glyph-name="j" unicode="j" horiz-adv-x="288" 
d="M44 613h200v167h-200v-167zM-68 -318q72 6 140 34q58 25 100 74q41 52 57 116q13 57 14 115v519h-196v-530q-1 -30 -7 -59q-7 -26 -22 -49q-27 -39 -74 -55z" />
    <glyph glyph-name="k" unicode="k" horiz-adv-x="625" 
d="M30 -58h196v240h55q53 -127 130 -240h214q-102 146 -179 308l149 290h-201l-111 -237h-57v477h-196v-838z" />
    <glyph glyph-name="l" unicode="l" horiz-adv-x="345" 
d="M336 81q-25 -2 -49 2q-20 3 -35 15q-16 13 -20 34q-6 35 -4 72v553h-196v-599q-1 -43 8 -84q10 -46 37 -83q27 -33 66 -51q43 -17 91 -18q61 0 121 12z" />
    <glyph glyph-name="m" unicode="m" horiz-adv-x="933" 
d="M734 560q-50 -2 -94 -24q-53 -26 -93 -69q-18 41 -55 66q-44 27 -96 27q-50 -2 -94 -23q-52 -25 -88 -68q-5 36 -15 71h-189q11 -55 15 -110q5 -70 6 -140v-348h196v404q14 22 36 37t48 17q25 -1 42 -20q15 -18 16 -42v-396h196v406q17 23 41 38q19 12 42 14
q25 -1 43 -19q15 -19 15 -43v-396h197v435q-1 31 -8 62q-10 36 -33 65q-23 27 -55 41q-35 14 -73 15z" />
    <glyph glyph-name="n" unicode="n" horiz-adv-x="595" 
d="M399 560q-50 -1 -95 -22q-52 -25 -90 -69q-5 36 -15 71h-189q11 -50 15 -100q6 -71 6 -141v-357h196v403q13 23 36 38q21 15 47 17q23 -1 40 -16q18 -19 19 -46v-396h196v435q-1 40 -14 78q-13 34 -38 60q-48 45 -114 45z" />
    <glyph glyph-name="o" unicode="o" horiz-adv-x="631" 
d="M316 560q-51 -1 -100 -15q-59 -20 -105 -62q-44 -45 -66 -104q-24 -67 -23 -138q-1 -72 23 -139q22 -59 66 -103q46 -43 105 -62q49 -14 100 -15q50 1 99 15q59 19 104 62q44 44 66 103q24 67 24 139q0 71 -24 138q-22 59 -66 104q-45 42 -104 62q-49 14 -99 15zM316 82
q-23 0 -41 12q-20 13 -33 35q-14 26 -20 56q-4 28 -4 56q0 27 4 55q6 30 20 56q13 21 33 35q18 12 41 13q21 -1 40 -13q19 -14 32 -35q14 -26 20 -56q4 -28 5 -55q-1 -28 -5 -56q-6 -30 -20 -56q-13 -21 -32 -35q-19 -12 -40 -12z" />
    <glyph glyph-name="p" unicode="p" horiz-adv-x="619" 
d="M382 560q-43 -2 -81 -21q-45 -22 -75 -61v62h-192v-539q0 -85 -7 -171q-4 -64 -17 -128h204q9 58 12 116q4 81 6 161q33 -25 71 -41q36 -15 75 -16q40 1 78 16q47 21 78 62q33 47 47 104q15 68 16 139q-1 69 -17 137q-15 56 -49 103q-30 41 -76 62q-36 14 -73 15z
M307 400q21 -1 40 -12q18 -13 28 -33q12 -25 17 -54q3 -26 4 -53q0 -37 -7 -72q-5 -27 -18 -50q-23 -34 -63 -34q-45 3 -78 34v234q29 38 77 40z" />
    <glyph glyph-name="q" unicode="q" horiz-adv-x="619" 
d="M237 560q-38 -1 -74 -15q-46 -21 -76 -62q-34 -47 -49 -103q-16 -68 -16 -137q-1 -70 15 -138q14 -56 46 -105q30 -41 77 -62q38 -15 79 -16q39 2 74 20q39 20 70 51q1 -94 6 -189q3 -51 12 -102h208q-14 64 -18 128q-7 86 -6 171v539h-192v-45q-33 29 -74 47
q-40 17 -82 18zM312 400q45 -3 77 -35v-239q-17 -19 -39 -31q-18 -11 -39 -11q-23 -1 -41 11q-19 13 -28 34q-9 20 -13 41q-7 38 -6 76q-1 33 6 65q5 27 19 51q21 36 64 38z" />
    <glyph glyph-name="r" unicode="r" horiz-adv-x="423" 
d="M425 551q-31 9 -63 9q-49 -2 -88 -32q-37 -28 -56 -70v82h-188v-598h196v372q16 39 52 62q38 24 84 25q31 0 63 -5v155z" />
    <glyph glyph-name="s" unicode="s" horiz-adv-x="518" 
d="M226 373q2 20 21 29q25 10 52 10q64 -3 124 -29l48 126q-95 48 -201 51q-45 -1 -89 -11q-47 -11 -85 -40q-32 -27 -50 -65q-16 -40 -16 -82q0 -68 45 -116q28 -28 64 -47q41 -21 85 -34q33 -10 62 -28q15 -10 17 -28q-1 -19 -18 -28q-28 -12 -59 -10q-35 1 -69 10
q-44 11 -85 31l-51 -125q108 -63 235 -65q43 1 85 10q46 11 85 38q34 27 53 64q17 41 18 86q0 64 -41 114q-26 28 -61 46q-46 23 -95 39q-30 8 -56 24q-17 10 -18 30z" />
    <glyph glyph-name="t" unicode="t" horiz-adv-x="468" 
d="M280 -78q85 2 169 23l-22 141q-36 -9 -72 -9q-21 0 -40 6q-16 5 -27 18q-10 14 -13 31q-5 23 -4 48v220h136v140h-136v123h-184v-123h-87v-140h75v-249q-1 -50 13 -98q13 -42 43 -74q31 -32 73 -46q37 -10 76 -11z" />
    <glyph glyph-name="u" unicode="u" horiz-adv-x="595" 
d="M196 -78q49 1 94 22q52 25 91 69q4 -36 15 -71h189q-12 50 -16 99q-6 71 -5 142v357h-196v-403q-14 -24 -37 -39q-21 -15 -46 -16q-24 0 -41 15q-18 19 -18 47v396h-196v-435q-1 -41 13 -79q13 -33 38 -59q48 -45 115 -45z" />
    <glyph glyph-name="v" unicode="v" horiz-adv-x="615" 
d="M185 -58h246l184 598h-202l-102 -431h-3l-101 431h-207z" />
    <glyph glyph-name="w" unicode="w" horiz-adv-x="857" 
d="M125 -57h240l64 387h3l67 -387h237l121 597h-203l-55 -405h-3l-64 405h-202l-67 -407h-3l-55 407h-205z" />
    <glyph glyph-name="x" unicode="x" horiz-adv-x="619" 
d="M442 245l165 295h-210l-88 -200l-87 200h-210l165 -295l-177 -303h217l94 201l91 -201h217z" />
    <glyph glyph-name="y" unicode="y" horiz-adv-x="639" 
d="M424 540l-103 -441l-102 441h-207l185 -598h71q-15 -50 -60 -76q-30 -17 -63 -25q-42 -9 -84 -11l-6 -148q62 2 124 13q66 13 124 45q48 29 82 75q32 49 50 104l192 621h-203z" />
    <glyph glyph-name="z" unicode="z" horiz-adv-x="509" 
d="M5 -58h499v140h-261l259 324v134h-483v-140h273l-287 -344v-114z" />
    <glyph glyph-name="braceleft" unicode="{" horiz-adv-x="424" 
d="M20 330v-179q32 -12 53 -39q18 -22 19 -50v-205q0 -46 22 -86q25 -42 66 -69h224q-51 24 -84 69q-35 48 -36 107v184q0 49 -22 93q-30 51 -81 83v5q51 31 81 82q22 44 22 94v185q1 59 36 107q33 45 84 69h-224q-41 -27 -66 -69q-22 -40 -22 -86v-206q-1 -29 -19 -51
q-21 -27 -53 -38z" />
    <glyph glyph-name="bar" unicode="|" horiz-adv-x="396" 
d="M100 -298h196v1078h-196v-1078z" />
    <glyph glyph-name="braceright" unicode="}" horiz-adv-x="424" 
d="M404 330q-33 11 -54 38q-18 22 -18 51v206q-1 46 -23 86q-25 42 -65 69h-224q50 -24 83 -69q35 -48 37 -107v-185q-1 -50 21 -94q30 -51 82 -82v-5q-52 -32 -82 -83q-22 -44 -21 -93v-184q-2 -59 -37 -107q-33 -45 -83 -69h224q40 27 65 69q22 40 23 86v205q0 28 18 50
q21 27 54 39v179z" />
    <glyph glyph-name="asciitilde" unicode="~" horiz-adv-x="560" 
d="M385 192q34 0 63 17q30 20 52 49v132q-37 -57 -103 -56q-26 0 -50 8q-29 11 -56 28q-32 21 -68 35q-23 8 -48 9q-35 -1 -64 -18q-30 -20 -51 -48v-132q36 56 103 56q23 -1 46 -9q28 -11 53 -28q33 -21 70 -35q26 -8 53 -8z" />
    <glyph glyph-name="uni007F" horiz-adv-x="617" 
 />
    <glyph glyph-name="exclamdown" unicode="&#xa1;" horiz-adv-x="331" 
d="M60 -255h211l-23 522h-166zM65 356h200v184h-200v-184z" />
    <glyph glyph-name="cent" unicode="&#xa2;" horiz-adv-x="615" 
d="M421 682h-139v-119q-53 -11 -98 -39q-43 -28 -72 -70q-30 -47 -42 -101q-10 -45 -10 -92q0 -48 10 -93q13 -54 43 -99q30 -42 72 -69q45 -27 97 -39v-137h139v131q72 8 134 47l-46 134q-54 -32 -115 -30q-62 0 -103 46q-38 47 -37 109q0 26 7 52q9 30 29 53q43 43 104 43
q56 -2 108 -24l46 136q-60 31 -127 42v119z" />
    <glyph glyph-name="sterling" unicode="&#xa3;" horiz-adv-x="651" 
d="M60 82v-140h531v140h-303q20 29 29 64q10 37 10 76v56h207l1 105h-208v122q0 36 25 63q30 28 72 28q58 0 110 -26l38 120q-92 47 -194 47q-54 -1 -104 -19q-44 -17 -78 -50q-32 -34 -47 -79q-11 -36 -11 -73v-133h-65v-105h65v-53q-1 -44 -18 -83q-16 -35 -45 -60h-15z
" />
    <glyph glyph-name="currency" unicode="&#xa4;" horiz-adv-x="645" 
d="M594 299q0 76 -36 143l77 74l-93 95l-77 -77q-67 34 -142 35q-76 -1 -142 -35l-77 77l-94 -95l77 -74q-37 -67 -36 -143q-1 -76 36 -142l-77 -76l94 -93l76 77q66 -36 143 -36q75 0 142 35l77 -77l93 94l-76 76q34 66 35 142zM323 177q-46 0 -78 30q-37 38 -36 92
q-1 53 36 91q32 30 78 31q44 -1 77 -31q36 -38 36 -91q0 -54 -36 -92q-33 -30 -77 -30z" />
    <glyph glyph-name="yen" unicode="&#xa5;" horiz-adv-x="713" 
d="M259 -58h200v238h151v96h-130l228 461h-205l-144 -370l-140 370h-214l233 -461h-129v-96h150v-238z" />
    <glyph glyph-name="brokenbar" unicode="&#xa6;" horiz-adv-x="361" 
d="M90 313h181v467h-181v-467zM90 -298h181v472h-181v-472z" />
    <glyph glyph-name="section" unicode="&#xa7;" horiz-adv-x="565" 
d="M451 200q33 24 54 60q16 29 17 63q-1 33 -13 65q-13 25 -33 45q-22 18 -46 30q-38 17 -78 28q-33 8 -64 21q-23 9 -27 32q1 15 14 24q21 11 46 11q64 -2 125 -25l31 123q-82 38 -171 41q-41 -1 -80 -9q-44 -10 -83 -36q-33 -23 -53 -59q-18 -38 -18 -79q-1 -30 11 -57
q13 -28 36 -48q-37 -26 -59 -65q-17 -31 -17 -67q0 -31 12 -59q13 -23 33 -41q22 -16 46 -28q38 -16 77 -27q33 -9 64 -23q23 -9 28 -32q-1 -16 -15 -25q-21 -10 -45 -9q-68 0 -128 32l-32 -127q81 -44 175 -45q52 1 103 14q42 13 76 41q30 27 45 63q10 31 11 64
q0 61 -42 104zM208 344q0 19 13 35q13 -5 27 -10q42 -11 81 -32q25 -14 28 -43q-1 -26 -21 -41q-7 1 -13 3q-31 9 -61 21q-15 6 -28 16q-26 19 -26 51z" />
    <glyph glyph-name="dieresis" unicode="&#xa8;" horiz-adv-x="585" 
d="M90 640h142v140h-142v-140zM352 640h143v140h-143v-140z" />
    <glyph glyph-name="copyright" unicode="&#xa9;" horiz-adv-x="768" 
d="M385 150q-48 0 -93 13q-56 18 -100 56q-43 39 -67 92q-23 57 -23 119q0 61 23 118q24 52 67 91q44 38 100 56q45 13 93 14q61 -1 118 -24q53 -24 92 -66q39 -43 57 -99q13 -44 14 -90q-1 -47 -14 -92q-18 -55 -57 -99q-39 -42 -92 -66q-57 -23 -118 -23zM385 88
q57 0 112 16q68 22 122 69q52 47 80 112q29 69 30 145q-1 75 -30 144q-28 64 -80 112q-54 46 -122 68q-55 15 -112 17q-58 -2 -114 -17q-68 -22 -122 -68q-52 -48 -81 -112q-29 -69 -29 -144q0 -76 29 -145q29 -65 81 -112q54 -47 122 -69q56 -16 114 -16zM394 244
q64 -3 120 30l-29 84q-33 -18 -70 -18q-38 0 -65 27q-24 29 -23 68q-1 36 23 63q27 26 65 26q33 -2 65 -14l28 86q-57 29 -120 30q-41 -1 -79 -15q-34 -15 -59 -43q-24 -30 -35 -68q-8 -32 -8 -65q0 -35 8 -68q12 -38 38 -67q26 -28 61 -42q38 -15 80 -14z" />
    <glyph glyph-name="ordfeminine" unicode="&#xaa;" horiz-adv-x="501" 
d="M249 757q-78 -3 -150 -29v-97q60 16 123 19q30 1 57 -15q18 -14 18 -36v-22h-71q-37 -1 -71 -11q-29 -10 -51 -30q-38 -40 -37 -95q-1 -29 8 -56q8 -23 25 -41q34 -31 81 -29q33 0 63 14q32 15 56 42q4 -22 12 -42h143q-11 33 -14 68q-6 45 -7 91v129q-1 33 -14 64
q-14 27 -40 45q-30 18 -65 25q-33 5 -66 6zM297 440q-24 -23 -56 -24q-16 -1 -27 9q-12 13 -11 31q-1 23 16 38q18 11 41 11h37v-65z" />
    <glyph glyph-name="guillemotleft" unicode="&#xab;" horiz-adv-x="647" 
d="M634 77l-141 225l143 225h-156l-165 -193v-64l165 -193h154zM324 77l-141 225l143 225h-156l-165 -193v-64l165 -193h154z" />
    <glyph glyph-name="logicalnot" unicode="&#xac;" horiz-adv-x="554" 
d="M354 101h140l-1 298h-433v-139h293z" />
    <glyph glyph-name="uni00AD" unicode="&#xad;" horiz-adv-x="457" 
d="M397 402h-337v-140h337v140z" />
    <glyph glyph-name="registered" unicode="&#xae;" horiz-adv-x="586" 
d="M293 253q-51 0 -97 19q-44 19 -75 54q-58 68 -57 157q0 50 19 96q20 42 54 75q67 56 156 57q88 -1 155 -57q34 -33 54 -75q19 -46 20 -96q0 -89 -58 -157q-31 -35 -75 -54q-46 -19 -96 -19zM273 450h14q11 -32 25 -63q12 -25 29 -47h103q-44 58 -77 122q47 23 49 77
q0 35 -24 60q-31 27 -73 27h-133v-286h87v110zM273 566h26q29 -3 32 -32q-1 -14 -11 -24q-11 -10 -26 -9h-21v65zM293 196q62 0 120 24q54 24 94 68q39 45 58 101q13 46 14 94q-1 47 -14 92q-19 57 -58 101q-40 43 -94 67q-58 24 -120 25q-63 -1 -121 -25q-54 -24 -94 -67
q-39 -44 -58 -101q-13 -45 -13 -92q0 -48 14 -94q18 -56 57 -101q40 -44 94 -68q58 -24 121 -24z" />
    <glyph glyph-name="macron" unicode="&#xaf;" horiz-adv-x="457" 
d="M397 742h-337v-140h337v140z" />
    <glyph glyph-name="degree" unicode="&#xb0;" horiz-adv-x="414" 
d="M207 484q71 0 120 51q40 46 41 108q-1 70 -52 118q-48 39 -109 40q-63 -1 -110 -40q-52 -48 -52 -118q0 -71 52 -120q47 -39 110 -39zM207 582q-27 0 -45 20q-15 17 -15 41q0 23 15 40q18 20 45 21q26 -1 45 -21q16 -17 17 -40q-1 -24 -17 -41q-19 -20 -45 -20z" />
    <glyph glyph-name="plusminus" unicode="&#xb1;" horiz-adv-x="585" 
d="M223 153h139v164h163v139h-163v165h-140v-165h-162v-139h163v-164zM60 -25h465v139h-465v-139z" />
    <glyph glyph-name="uni00B2" unicode="&#xb2;" horiz-adv-x="389" 
d="M334 438h-126q36 30 67 67q25 28 41 62q14 31 15 65q-1 28 -11 54q-11 24 -32 41q-23 16 -51 23q-26 5 -51 6q-77 -4 -140 -46l27 -79q35 24 78 27q19 0 35 -12q16 -15 17 -36q-1 -19 -11 -36q-15 -25 -35 -45q-49 -52 -101 -98v-84h278v91z" />
    <glyph glyph-name="uni00B3" unicode="&#xb3;" horiz-adv-x="391" 
d="M262 554q31 16 52 44q15 21 16 48q-1 20 -7 40q-9 24 -28 40q-22 16 -49 23q-33 8 -67 8q-73 -2 -134 -40l28 -73q33 24 75 26q22 0 40 -13q14 -12 14 -30q-1 -18 -14 -29q-16 -12 -36 -11h-29v-70h30q22 0 40 -12q15 -12 16 -32q0 -22 -17 -34q-19 -11 -41 -10
q-46 3 -83 31l-32 -83q66 -41 144 -42q34 0 67 9q30 10 54 29q40 33 42 85q-1 35 -23 61q-24 26 -58 35z" />
    <glyph glyph-name="acute" unicode="&#xb4;" horiz-adv-x="407" 
d="M60 611h155l132 169h-178z" />
    <glyph glyph-name="mu" unicode="&#xb5;" horiz-adv-x="603" 
d="M282 -78q35 2 64 21q34 22 55 56q4 -29 15 -57h177q-12 50 -16 99q-6 71 -5 142v357h-196v-398q-14 -24 -37 -39q-21 -15 -46 -16q-29 0 -49 20q-18 17 -18 42v391h-196v-838h173v261q29 -40 79 -41z" />
    <glyph glyph-name="paragraph" unicode="&#xb6;" horiz-adv-x="811" 
d="M709 699h-369q-66 0 -129 -21q-53 -20 -93 -60q-38 -42 -55 -95q-12 -46 -12 -92q0 -44 10 -86q14 -50 46 -90q34 -39 80 -62q52 -24 109 -29v-390h168v792h77v-792h168v925z" />
    <glyph glyph-name="periodcentered" unicode="&#xb7;" 
d="M401 221h198v189h-198v-189z" />
    <glyph glyph-name="cedilla" unicode="&#xb8;" horiz-adv-x="459" 
d="M226 -245q52 -1 94 29q37 31 39 78q0 35 -21 61q-13 14 -30 23q-20 9 -42 12l-3 58h-86l-28 -95l16 -18q28 2 56 -4q9 -3 17 -10q4 -4 5 -10q-2 -11 -12 -16q-16 -8 -34 -8q-38 1 -72 16l-25 -85q59 -29 126 -31z" />
    <glyph glyph-name="uni00B9" unicode="&#xb9;" horiz-adv-x="421" 
d="M293 344v393h-111l-120 -63v-84l95 33v-279h136z" />
    <glyph glyph-name="ordmasculine" unicode="&#xba;" horiz-adv-x="494" 
d="M247 757q-40 -1 -77 -17q-34 -17 -57 -47q-25 -34 -35 -74q-8 -35 -8 -71q0 -37 8 -73q10 -41 35 -75q51 -65 134 -65q82 0 133 65q25 34 35 75q8 36 9 73q-1 36 -9 71q-10 40 -35 74q-23 30 -57 47q-37 16 -76 17zM247 445q-11 0 -19 7q-10 9 -14 22q-12 36 -10 74
q-2 36 10 70q5 12 14 21q8 7 19 8q10 -1 19 -8q9 -9 14 -21q11 -34 10 -70q1 -38 -10 -74q-5 -13 -14 -22q-9 -7 -19 -7z" />
    <glyph glyph-name="guillemotright" unicode="&#xbb;" horiz-adv-x="647" 
d="M161 77l165 193v64l-165 193h-156l143 -225l-141 -225h154zM471 77l165 193v64l-165 193h-156l143 -225l-141 -225h154z" />
    <glyph glyph-name="onequarter" unicode="&#xbc;" horiz-adv-x="985" 
d="M750 -58h133v67h86v96h-86v286h-189l-161 -297v-85h217v-67zM345 -58l412 796h-158l-412 -796h158zM293 294v449h-111l-124 -67v-84l99 38v-336h136zM662 105l91 176v-176h-91z" />
    <glyph glyph-name="onehalf" unicode="&#xbd;" horiz-adv-x="985" 
d="M345 -58l412 796h-158l-412 -796h158zM939 45h-169q48 42 91 91q31 34 52 76q18 37 19 79q0 68 -51 114q-27 21 -60 30q-28 7 -56 8q-46 -2 -88 -19q-41 -16 -75 -43l37 -86q23 17 50 28q21 8 44 9q25 0 46 -15q20 -18 20 -45q-1 -25 -12 -47q-16 -30 -39 -55
q-66 -72 -141 -134v-94h332v103zM293 294v449h-111l-124 -67v-84l99 38v-336h136z" />
    <glyph glyph-name="threequarters" unicode="&#xbe;" horiz-adv-x="985" 
d="M750 -58h133v67h86v96h-86v286h-189l-161 -297v-85h217v-67zM355 -58l412 796h-158l-412 -796h158zM266 513q35 18 57 52q17 28 17 62q0 55 -41 91q-25 20 -55 29q-35 9 -72 10q-80 -4 -148 -43l33 -91q22 14 47 22q19 7 39 8q25 0 45 -14q15 -14 15 -33q-1 -21 -15 -37
q-17 -16 -41 -16h-38v-90h39q25 0 45 -17q17 -16 17 -39q0 -27 -21 -45q-20 -14 -45 -13q-53 2 -93 36l-41 -94q69 -48 154 -47q31 0 62 7q37 9 67 31q58 44 60 116q0 41 -25 74q-26 29 -62 41zM662 105l91 176v-176h-91z" />
    <glyph glyph-name="questiondown" unicode="&#xbf;" horiz-adv-x="492" 
d="M116 496q-2 -69 22 -133q25 -57 74 -96q25 -20 45 -46q15 -21 17 -46q0 -31 -22 -53q-28 -24 -64 -23q-31 0 -58 12q-30 13 -55 35l-65 -122q95 -80 221 -82q51 1 99 15q44 15 80 44q34 31 49 75q12 38 13 78q0 54 -24 103q-15 28 -35 52q-25 29 -53 54q-33 26 -55 61
q-19 33 -18 72h-171zM101 568h199v189h-199v-189z" />
    <glyph glyph-name="Agrave" unicode="&#xc0;" horiz-adv-x="750" 
d="M741 -58l-214 795h-305l-213 -795h217l37 155h223l37 -155h218zM472 800l-105 176h-177l131 -176h151zM374 564h2l72 -307h-147z" />
    <glyph glyph-name="Aacute" unicode="&#xc1;" horiz-adv-x="750" 
d="M741 -58l-214 795h-305l-213 -795h217l37 155h223l37 -155h218zM443 800l131 176h-177l-105 -176h151zM374 564h2l72 -307h-147z" />
    <glyph glyph-name="Acircumflex" unicode="&#xc2;" horiz-adv-x="750" 
d="M741 -58l-214 795h-305l-213 -795h217l37 155h223l37 -155h218zM458 976h-164l-144 -176h183l43 79l43 -79h183zM374 564h2l72 -307h-147z" />
    <glyph glyph-name="Atilde" unicode="&#xc3;" horiz-adv-x="750" 
d="M741 -58l-214 795h-305l-213 -795h217l37 155h223l37 -155h218zM450 793q26 0 51 7q29 9 52 30q21 23 32 51q12 34 14 70h-119q-4 -18 -16 -31q-12 -11 -28 -10q-11 0 -21 5q-11 5 -21 12q-21 14 -44 24q-21 8 -44 9q-31 -1 -60 -10q-28 -11 -50 -32q-23 -25 -37 -57
q-11 -30 -16 -61h123q8 18 22 31q12 10 28 11q25 -4 46 -18q22 -13 45 -23q20 -8 43 -8zM374 564h2l72 -307h-147z" />
    <glyph glyph-name="Adieresis" unicode="&#xc4;" horiz-adv-x="750" 
d="M741 -58l-214 795h-305l-213 -795h217l37 155h223l37 -155h218zM374 564h2l72 -307h-147zM428 800h143v140h-143v-140zM166 800h142v140h-142v-140z" />
    <glyph glyph-name="Aring" unicode="&#xc5;" horiz-adv-x="750" 
d="M741 -58l-214 795h-305l-213 -795h217l37 155h223l37 -155h218zM376 802q52 0 92 35q44 40 46 101q-2 59 -46 100q-40 34 -92 35q-54 -1 -94 -35q-44 -41 -45 -100q1 -61 45 -101q40 -35 94 -35zM374 564h2l72 -307h-147zM376 888q-20 -1 -35 12q-15 15 -14 38
q-1 22 14 37q15 13 35 13q19 0 34 -13q16 -15 16 -37q0 -23 -16 -38q-15 -13 -34 -12z" />
    <glyph glyph-name="AE" unicode="&#xc6;" horiz-adv-x="1076" 
d="M523 -58h533v158h-333v174h289v144h-289v159h332v160h-648l-398 -795h217l75 155h222v-155zM522 554h1v-297h-145z" />
    <glyph glyph-name="Ccedilla" unicode="&#xc7;" horiz-adv-x="665" 
d="M408 -318q52 -1 94 29q37 31 39 78q0 35 -21 61q-13 14 -30 23q-20 9 -42 12l-2 38q59 3 117 17q45 11 86 33l-50 144q-36 -19 -76 -27q-41 -8 -83 -8q-95 1 -159 71q-34 40 -49 91q-12 46 -12 94t11 94q14 51 47 93q61 70 155 72q89 1 174 -29l7 149q-93 39 -194 40
q-46 -1 -90 -9q-42 -9 -81 -25q-76 -33 -131 -95q-55 -66 -79 -148q-18 -70 -19 -142q0 -67 15 -131q20 -75 66 -138q45 -59 109 -94q68 -37 144 -48l-23 -79l16 -18q28 2 56 -4q9 -3 17 -10q4 -4 5 -10q-2 -11 -12 -16q-16 -8 -34 -8q-38 1 -72 16l-25 -85q59 -29 126 -31z
" />
    <glyph glyph-name="Egrave" unicode="&#xc8;" horiz-adv-x="562" 
d="M9 -58h533v160h-333v172h289v144h-289v159h332v160h-532v-795zM383 800l-105 176h-177l131 -176h151z" />
    <glyph glyph-name="Eacute" unicode="&#xc9;" horiz-adv-x="583" 
d="M30 -58h533v160h-333v172h289v144h-289v159h332v160h-532v-795zM375 800l131 176h-177l-105 -176h151z" />
    <glyph glyph-name="Ecircumflex" unicode="&#xca;" horiz-adv-x="583" 
d="M30 -58h533v160h-333v172h289v144h-289v159h332v160h-532v-795zM380 976h-164l-144 -176h183l43 79l43 -79h183z" />
    <glyph glyph-name="Edieresis" unicode="&#xcb;" horiz-adv-x="583" 
d="M30 -58h533v160h-333v172h289v144h-289v159h332v160h-532v-795zM102 800h142v140h-142v-140zM364 800h143v140h-143v-140z" />
    <glyph glyph-name="Igrave" unicode="&#xcc;" horiz-adv-x="320" 
d="M260 737h-200v-795h200v795zM239 800l-105 176h-177l131 -176h151z" />
    <glyph glyph-name="Iacute" unicode="&#xcd;" horiz-adv-x="320" 
d="M260 737h-200v-795h200v795zM235 800l131 176h-177l-105 -176h151z" />
    <glyph glyph-name="Icircumflex" unicode="&#xce;" horiz-adv-x="320" 
d="M260 737h-200v-795h200v795zM242 976h-164l-144 -176h183l43 79l43 -79h183z" />
    <glyph glyph-name="Idieresis" unicode="&#xcf;" horiz-adv-x="320" 
d="M260 737h-200v-795h200v795zM-46 800h142v140h-142v-140zM216 800h143v140h-143v-140z" />
    <glyph glyph-name="Eth" unicode="&#xd0;" horiz-adv-x="711" 
d="M310 -58q47 1 94 8q42 7 82 21q36 15 69 35q30 22 55 50q24 30 42 64q17 37 28 77q15 70 16 142q-1 48 -8 97q-7 43 -21 84q-14 37 -35 71q-21 31 -48 57q-29 25 -62 43q-36 18 -75 29q-68 16 -137 17h-280v-331h-128v-117h128v-347h280zM230 102v187h127v117h-127v171
h112q34 -1 64 -19q31 -21 51 -54q22 -40 31 -84q7 -41 8 -82q-1 -42 -8 -83q-9 -44 -31 -83q-20 -32 -51 -53q-30 -17 -64 -17h-112z" />
    <glyph glyph-name="Ntilde" unicode="&#xd1;" horiz-adv-x="696" 
d="M432 793q26 0 51 7q29 9 52 30q21 23 32 51q12 34 14 70h-119q-4 -18 -16 -31q-12 -11 -28 -10q-11 0 -21 5q-11 5 -21 12q-21 14 -44 24q-21 8 -44 9q-31 -1 -60 -10q-28 -11 -50 -32q-23 -25 -37 -57q-11 -30 -16 -61h123q8 18 22 31q12 10 28 11q25 -4 46 -18
q22 -13 45 -23q20 -8 43 -8zM30 -58h200v583h3l133 -583h300v795h-200v-611h-3l-137 611h-296v-795z" />
    <glyph glyph-name="Ograve" unicode="&#xd2;" horiz-adv-x="792" 
d="M397 757q-81 -1 -154 -34q-73 -34 -125 -95q-54 -66 -79 -148q-18 -70 -19 -142q0 -73 19 -142q23 -82 77 -148q52 -59 124 -93q75 -32 157 -33q81 1 156 33q72 34 123 93q53 66 77 148q17 70 19 142q-2 72 -19 142q-24 82 -77 148q-51 61 -123 95q-75 33 -156 34z
M397 95q-38 0 -72 17q-35 19 -59 52q-26 40 -37 86q-9 43 -9 88q0 43 9 86q11 47 37 87q24 33 59 53q34 18 72 19q37 -1 70 -18q35 -20 58 -53q26 -40 37 -87q9 -43 10 -87q-1 -45 -10 -88q-11 -46 -37 -86q-24 -32 -58 -52q-33 -17 -70 -17zM477 800l-105 176h-177
l131 -176h151z" />
    <glyph glyph-name="Oacute" unicode="&#xd3;" horiz-adv-x="792" 
d="M397 757q-81 -1 -154 -34q-73 -34 -125 -95q-54 -66 -79 -148q-18 -70 -19 -142q0 -73 19 -142q23 -82 77 -148q52 -59 124 -93q75 -32 157 -33q81 1 156 33q72 34 123 93q53 66 77 148q17 70 19 142q-2 72 -19 142q-24 82 -77 148q-51 61 -123 95q-75 33 -156 34z
M397 95q-38 0 -72 17q-35 19 -59 52q-26 40 -37 86q-9 43 -9 88q0 43 9 86q11 47 37 87q24 33 59 53q34 18 72 19q37 -1 70 -18q35 -20 58 -53q26 -40 37 -87q9 -43 10 -87q-1 -45 -10 -88q-11 -46 -37 -86q-24 -32 -58 -52q-33 -17 -70 -17zM466 800l131 176h-177
l-105 -176h151z" />
    <glyph glyph-name="Ocircumflex" unicode="&#xd4;" horiz-adv-x="792" 
d="M397 757q-81 -1 -154 -34q-73 -34 -125 -95q-54 -66 -79 -148q-18 -70 -19 -142q0 -73 19 -142q23 -82 77 -148q52 -59 124 -93q75 -32 157 -33q81 1 156 33q72 34 123 93q53 66 77 148q17 70 19 142q-2 72 -19 142q-24 82 -77 148q-51 61 -123 95q-75 33 -156 34z
M397 95q-38 0 -72 17q-35 19 -59 52q-26 40 -37 86q-9 43 -9 88q0 43 9 86q11 47 37 87q24 33 59 53q34 18 72 19q37 -1 70 -18q35 -20 58 -53q26 -40 37 -87q9 -43 10 -87q-1 -45 -10 -88q-11 -46 -37 -86q-24 -32 -58 -52q-33 -17 -70 -17zM479 976h-164l-144 -176h183
l43 79l43 -79h183z" />
    <glyph glyph-name="Otilde" unicode="&#xd5;" horiz-adv-x="792" 
d="M397 757q-81 -1 -154 -34q-73 -34 -125 -95q-54 -66 -79 -148q-18 -70 -19 -142q0 -73 19 -142q23 -82 77 -148q52 -59 124 -93q75 -32 157 -33q81 1 156 33q72 34 123 93q53 66 77 148q17 70 19 142q-2 72 -19 142q-24 82 -77 148q-51 61 -123 95q-75 33 -156 34z
M397 95q-38 0 -72 17q-35 19 -59 52q-26 40 -37 86q-9 43 -9 88q0 43 9 86q11 47 37 87q24 33 59 53q34 18 72 19q37 -1 70 -18q35 -20 58 -53q26 -40 37 -87q9 -43 10 -87q-1 -45 -10 -88q-11 -46 -37 -86q-24 -32 -58 -52q-33 -17 -70 -17zM474 793q26 0 51 7q29 9 52 30
q21 23 32 51q12 34 14 70h-119q-4 -18 -16 -31q-12 -11 -28 -10q-11 0 -21 5q-11 5 -21 12q-21 14 -44 24q-21 8 -44 9q-31 -1 -60 -10q-28 -11 -50 -32q-23 -25 -37 -57q-11 -30 -16 -61h123q8 18 22 31q12 10 28 11q25 -4 46 -18q22 -13 45 -23q20 -8 43 -8z" />
    <glyph glyph-name="Odieresis" unicode="&#xd6;" horiz-adv-x="792" 
d="M397 757q-81 -1 -154 -34q-73 -34 -125 -95q-54 -66 -79 -148q-18 -70 -19 -142q0 -73 19 -142q23 -82 77 -148q52 -59 124 -93q75 -32 157 -33q81 1 156 33q72 34 123 93q53 66 77 148q17 70 19 142q-2 72 -19 142q-24 82 -77 148q-51 61 -123 95q-75 33 -156 34z
M397 95q-38 0 -72 17q-35 19 -59 52q-26 40 -37 86q-9 43 -9 88q0 43 9 86q11 47 37 87q24 33 59 53q34 18 72 19q37 -1 70 -18q35 -20 58 -53q26 -40 37 -87q9 -43 10 -87q-1 -45 -10 -88q-11 -46 -37 -86q-24 -32 -58 -52q-33 -17 -70 -17zM193 800h142v140h-142v-140z
M455 800h143v140h-143v-140z" />
    <glyph glyph-name="multiply" unicode="&#xd7;" horiz-adv-x="585" 
d="M60 198l99 -99l134 135l134 -133l98 98l-134 134l133 134l-98 98l-133 -134l-134 135l-99 -99l134 -134z" />
    <glyph glyph-name="Oslash" unicode="&#xd8;" horiz-adv-x="800" 
d="M401 757q-81 -1 -154 -34q-73 -34 -125 -95q-54 -66 -79 -148q-18 -70 -19 -142q-1 -80 22 -155q24 -76 76 -137l-111 -174h184l52 82q73 -32 154 -32q81 1 156 33q72 34 123 93q53 66 77 148q17 70 19 142q0 79 -23 154q-24 77 -75 139l108 169h-184l-48 -75
q-74 32 -153 32zM401 95q-30 0 -57 11l217 341q15 -54 15 -109q-1 -45 -10 -88q-11 -46 -37 -86q-24 -32 -58 -52q-33 -17 -70 -17zM224 338q0 43 9 86q11 47 37 87q24 33 59 53q34 18 72 19q28 -1 56 -11l-218 -342q-16 52 -15 108z" />
    <glyph glyph-name="Ugrave" unicode="&#xd9;" horiz-adv-x="708" 
d="M678 737h-201v-526q0 -54 -35 -93q-37 -36 -88 -36q-53 0 -90 36q-35 39 -34 93v526h-200v-516q-1 -54 13 -106q17 -61 59 -107q44 -43 104 -64q72 -22 148 -22q75 0 147 22q60 21 104 64q42 46 59 107q13 52 14 106v516zM438 800l-105 176h-177l131 -176h151z" />
    <glyph glyph-name="Uacute" unicode="&#xda;" horiz-adv-x="708" 
d="M678 737h-201v-526q0 -54 -35 -93q-37 -36 -88 -36q-53 0 -90 36q-35 39 -34 93v526h-200v-516q-1 -54 13 -106q17 -61 59 -107q44 -43 104 -64q72 -22 148 -22q75 0 147 22q60 21 104 64q42 46 59 107q13 52 14 106v516zM437 800l131 176h-177l-105 -176h151z" />
    <glyph glyph-name="Ucircumflex" unicode="&#xdb;" horiz-adv-x="708" 
d="M678 737h-201v-526q0 -54 -35 -93q-37 -36 -88 -36q-53 0 -90 36q-35 39 -34 93v526h-200v-516q-1 -54 13 -106q17 -61 59 -107q44 -43 104 -64q72 -22 148 -22q75 0 147 22q60 21 104 64q42 46 59 107q13 52 14 106v516zM436 976h-164l-144 -176h183l43 79l43 -79h183z
" />
    <glyph glyph-name="Udieresis" unicode="&#xdc;" horiz-adv-x="708" 
d="M678 737h-201v-526q0 -54 -35 -93q-37 -36 -88 -36q-53 0 -90 36q-35 39 -34 93v526h-200v-516q-1 -54 13 -106q17 -61 59 -107q44 -43 104 -64q72 -22 148 -22q75 0 147 22q60 21 104 64q42 46 59 107q13 52 14 106v516zM155 820h142v140h-142v-140zM417 820h143v140
h-143v-140z" />
    <glyph glyph-name="Yacute" unicode="&#xdd;" horiz-adv-x="713" 
d="M259 -58h200v290l249 505h-205l-144 -370l-140 370h-214l254 -503v-292zM428 800l131 176h-177l-105 -176h151z" />
    <glyph glyph-name="Thorn" unicode="&#xde;" horiz-adv-x="675" 
d="M30 -58h200v153h50q72 0 144 13q38 8 74 22q31 14 58 33q49 37 73 92q23 58 23 121q-1 56 -20 108q-21 52 -62 91q-48 41 -109 58q-58 14 -116 15h-115v132h-200v-838zM230 255v233h96q27 -1 53 -10q23 -9 41 -26q32 -35 32 -82q0 -50 -37 -83q-20 -17 -45 -25
q-27 -7 -55 -7h-85z" />
    <glyph glyph-name="germandbls" unicode="&#xdf;" horiz-adv-x="684" 
d="M464 391q0 8 5 16q11 13 25 23q25 17 47 37q11 12 21 26q21 35 21 77q-4 99 -79 165q-44 36 -98 51q-49 13 -99 14q-60 -1 -116 -20q-50 -18 -91 -53q-68 -64 -69 -156l-1 -869h196l-6 851q-1 40 28 69q27 24 63 24q30 -1 52 -21q21 -18 25 -45q-2 -21 -13 -38
q-14 -16 -30 -29q-34 -24 -58 -57q-22 -35 -21 -76q-1 -44 19 -83q24 -41 67 -63q7 -5 14 -9q30 -16 59 -33q11 -8 22 -18q17 -14 18 -36q-2 -24 -21 -38q-22 -15 -48 -14q-59 2 -110 31l-51 -137q39 -26 84 -39q53 -17 108 -19q42 1 83 12q47 14 86 45q34 29 54 71
q18 42 19 89q1 64 -34 118q-18 26 -44 46q-28 19 -59 34q-28 11 -53 27q-15 10 -15 27z" />
    <glyph glyph-name="agrave" unicode="&#xe0;" horiz-adv-x="592" 
d="M288 560q-121 -3 -232 -49l37 -131q76 24 157 26q23 0 45 -6q19 -4 35 -15q25 -20 25 -52v-33h-105q-52 0 -102 -15q-41 -13 -73 -42q-30 -30 -43 -69q-10 -34 -10 -69q-1 -42 12 -82q12 -33 36 -58q26 -24 59 -35q28 -7 58 -8q48 1 91 22q46 23 81 60q5 -31 16 -62h207
q-15 49 -20 98q-10 66 -11 133v185q-1 36 -11 72q-15 42 -48 71q-37 31 -84 44q-59 15 -120 15zM355 104q-35 -34 -82 -36q-25 -1 -42 17q-14 18 -13 41q-2 33 23 55q27 17 60 16h54v-93zM429 604l-105 176h-177l131 -176h151z" />
    <glyph glyph-name="aacute" unicode="&#xe1;" horiz-adv-x="592" 
d="M288 560q-121 -4 -232 -49l37 -131q76 24 157 26q23 0 45 -6q19 -4 35 -15q25 -20 25 -52v-33h-105q-52 0 -102 -15q-41 -13 -73 -42q-30 -30 -43 -69q-10 -34 -10 -69q-1 -42 12 -82q12 -33 36 -58q26 -24 59 -35q28 -7 58 -8q48 1 91 22q46 23 81 60q5 -31 16 -62h207
q-15 49 -20 98q-10 66 -11 133v185q-1 36 -11 72q-15 42 -48 71q-37 31 -84 44q-59 15 -120 15zM355 104q-35 -34 -82 -36q-25 -1 -42 17q-14 18 -13 41q-2 33 23 55q27 17 60 16h54v-93zM359 604l131 176h-177l-105 -176h151z" />
    <glyph glyph-name="acircumflex" unicode="&#xe2;" horiz-adv-x="592" 
d="M288 560q-121 -4 -232 -49l37 -131q76 24 157 26q23 0 45 -6q19 -4 35 -15q25 -20 25 -52v-33h-105q-52 0 -102 -15q-41 -13 -73 -42q-30 -30 -43 -69q-10 -34 -10 -69q-1 -42 12 -82q12 -33 36 -58q26 -24 59 -35q28 -7 58 -8q48 1 91 22q46 23 81 60q5 -31 16 -62h207
q-15 49 -20 98q-10 66 -11 133v185q-1 36 -11 72q-15 42 -48 71q-37 31 -84 44q-59 15 -120 15zM355 104q-35 -34 -82 -36q-25 -1 -42 17q-14 18 -13 41q-2 33 23 55q27 17 60 16h54v-93zM372 780h-164l-144 -176h183l43 79l43 -79h183z" />
    <glyph glyph-name="atilde" unicode="&#xe3;" horiz-adv-x="592" 
d="M288 560q-121 -4 -232 -49l37 -131q76 24 157 26q23 0 45 -6q19 -4 35 -15q25 -20 25 -52v-33h-105q-52 0 -102 -15q-41 -13 -73 -42q-30 -30 -43 -69q-10 -34 -10 -69q-1 -42 12 -82q12 -33 36 -58q26 -24 59 -35q28 -7 58 -8q48 1 91 22q46 23 81 60q5 -31 16 -62h207
q-15 49 -20 98q-10 66 -11 133v185q-1 36 -11 72q-15 42 -48 71q-37 31 -84 44q-59 15 -120 15zM355 104q-35 -34 -82 -36q-25 -1 -42 17q-14 18 -13 41q-2 33 23 55q27 17 60 16h54v-93zM383 633q26 0 51 7q29 9 52 30q21 23 32 51q12 34 14 70h-119q-4 -18 -16 -31
q-12 -11 -28 -10q-11 0 -21 5q-11 5 -21 12q-21 14 -44 24q-21 8 -44 9q-31 -1 -60 -10q-28 -11 -50 -31q-23 -25 -37 -57q-11 -30 -16 -61l123 -1q8 18 22 31q12 10 28 11q25 -4 46 -18q22 -13 45 -23q20 -8 43 -8z" />
    <glyph glyph-name="adieresis" unicode="&#xe4;" horiz-adv-x="592" 
d="M288 560q-121 -4 -232 -49l37 -131q76 24 157 26q23 0 45 -6q19 -4 35 -15q25 -20 25 -52v-33h-105q-52 0 -102 -15q-41 -13 -73 -42q-30 -30 -43 -69q-10 -34 -10 -69q-1 -42 12 -82q12 -33 36 -58q26 -24 59 -35q28 -7 58 -8q48 1 91 22q46 23 81 60q5 -31 16 -62h207
q-15 49 -20 98q-10 66 -11 133v185q-1 36 -11 72q-15 42 -48 71q-37 31 -84 44q-59 15 -120 15zM355 104q-35 -34 -82 -36q-25 -1 -42 17q-14 18 -13 41q-2 33 23 55q27 17 60 16h54v-93zM103 640h142v140h-142v-140zM345 640h143v140h-143v-140z" />
    <glyph glyph-name="aring" unicode="&#xe5;" horiz-adv-x="592" 
d="M288 560q-121 -4 -232 -49l37 -131q76 24 157 26q23 0 45 -6q19 -4 35 -15q25 -20 25 -52v-33h-105q-52 0 -102 -15q-41 -13 -73 -42q-30 -30 -43 -69q-10 -34 -10 -69q-1 -42 12 -82q12 -33 36 -58q26 -24 59 -35q28 -7 58 -8q48 1 91 22q46 23 81 60q5 -31 16 -62h207
q-15 49 -20 98q-10 66 -11 133v185q-1 36 -11 72q-15 42 -48 71q-37 31 -84 44q-59 15 -120 15zM355 104q-35 -34 -82 -36q-25 -1 -42 17q-14 18 -13 41q-2 33 23 55q27 17 60 16h54v-93zM311 634q52 0 92 35q44 40 46 101q-2 59 -46 100q-40 34 -92 35q-54 -1 -94 -35
q-44 -41 -45 -100q1 -61 45 -101q40 -35 94 -35zM311 720q-20 -1 -35 12q-15 15 -14 38q-1 22 14 37q15 13 35 13q19 0 34 -13q16 -15 16 -37q0 -23 -16 -38q-15 -13 -34 -12z" />
    <glyph glyph-name="ae" unicode="&#xe6;" horiz-adv-x="923" 
d="M899 190q2 29 2 60q0 69 -21 135q-20 57 -61 101q-41 41 -96 59q-46 14 -94 15q-47 -1 -91 -15q-45 -15 -80 -46q-31 31 -73 46q-47 15 -97 15q-121 -4 -232 -49l37 -131q76 24 157 26q23 0 46 -6q19 -4 35 -15q25 -20 26 -52l-1 -33h-106q-52 0 -102 -15
q-41 -13 -73 -42q-30 -30 -43 -69q-10 -34 -10 -69q0 -33 8 -64q12 -36 37 -64q25 -26 59 -40q38 -14 78 -15q61 1 117 25q57 25 103 67q38 -43 90 -66q61 -26 127 -26q61 0 121 16q61 17 112 53l-43 132q-37 -19 -77 -30q-39 -11 -79 -11q-30 -1 -57 7q-25 8 -45 24
q-35 30 -42 77h368zM615 400q38 0 66 -28q25 -29 25 -68h-178q-1 40 26 69q25 25 61 27zM365 112q-17 -21 -40 -33q-22 -11 -47 -11q-26 0 -45 17q-16 17 -15 41q-2 33 23 55q27 17 60 16h55q0 -43 9 -85z" />
    <glyph glyph-name="ccedilla" unicode="&#xe7;" horiz-adv-x="534" 
d="M329 -318q52 -1 94 29q37 31 39 78q0 35 -21 61q-13 14 -30 23q-20 9 -42 12l-2 38q90 4 166 51l-48 140q-55 -32 -118 -31q-31 0 -59 11q-28 13 -48 35q-39 49 -38 112q0 27 7 53q9 30 31 53q20 21 48 32q28 10 59 11q57 -2 111 -24l47 143q-47 25 -100 37
q-50 13 -102 14q-68 0 -131 -25q-57 -24 -98 -71q-41 -50 -58 -113q-14 -55 -14 -110q0 -51 11 -101q15 -58 50 -106q34 -43 82 -70q52 -28 110 -37l-23 -79l16 -18q28 2 56 -4q9 -3 17 -10q4 -4 5 -10q-2 -11 -12 -16q-16 -8 -34 -8q-38 1 -72 16l-25 -85q59 -29 126 -31z
" />
    <glyph glyph-name="egrave" unicode="&#xe8;" horiz-adv-x="613" 
d="M589 190q2 29 2 60q0 69 -21 135q-20 57 -61 101q-41 41 -96 59q-46 14 -94 15q-53 -1 -103 -15q-60 -18 -106 -60q-44 -44 -66 -103q-23 -69 -22 -141q0 -56 14 -110q18 -63 60 -113q43 -46 101 -71q64 -25 134 -25q61 0 121 16q61 17 112 53l-43 132q-37 -19 -77 -30
q-39 -11 -79 -11q-30 -1 -58 7q-25 8 -46 24q-36 30 -43 77h371zM217 304q3 39 30 69q28 26 68 27q39 0 66 -28q23 -30 25 -68h-189zM412 604l-105 176h-177l131 -176h151z" />
    <glyph glyph-name="eacute" unicode="&#xe9;" horiz-adv-x="613" 
d="M342 604l131 176h-177l-105 -176h151zM589 190q2 29 2 60q0 69 -21 135q-20 57 -61 101q-41 41 -96 59q-46 14 -94 15q-53 -1 -103 -15q-60 -18 -106 -60q-44 -44 -66 -103q-23 -69 -22 -141q0 -56 14 -110q18 -63 60 -113q43 -46 101 -71q64 -25 134 -25q61 0 121 16
q61 17 112 53l-43 132q-37 -19 -77 -30q-39 -11 -79 -11q-30 -1 -58 7q-25 8 -46 24q-36 30 -43 77h371zM217 304q3 39 30 69q28 26 68 27q39 0 66 -28q23 -30 25 -68h-189z" />
    <glyph glyph-name="ecircumflex" unicode="&#xea;" horiz-adv-x="613" 
d="M401 780h-164l-144 -176h183l43 79l43 -79h183zM589 190q2 29 2 60q0 69 -21 135q-20 57 -61 101q-41 41 -96 59q-46 14 -94 15q-53 -1 -103 -15q-60 -18 -106 -60q-44 -44 -66 -103q-23 -69 -22 -141q0 -56 14 -110q18 -63 60 -113q43 -46 101 -71q64 -25 134 -25
q61 0 121 16q61 17 112 53l-43 132q-37 -19 -77 -30q-39 -11 -79 -11q-30 -1 -58 7q-25 8 -46 24q-36 30 -43 77h371zM217 304q3 39 30 69q28 26 68 27q39 0 66 -28q23 -30 25 -68h-189z" />
    <glyph glyph-name="edieresis" unicode="&#xeb;" horiz-adv-x="613" 
d="M106 640h142v140h-142v-140zM368 640h143v140h-143v-140zM589 190q2 29 2 60q0 69 -21 135q-20 57 -61 101q-41 41 -96 59q-46 14 -94 15q-53 -1 -103 -15q-60 -18 -106 -60q-44 -44 -66 -103q-23 -69 -22 -141q0 -56 14 -110q18 -63 60 -113q43 -46 101 -71
q64 -25 134 -25q61 0 121 16q61 17 112 53l-43 132q-37 -19 -77 -30q-39 -11 -79 -11q-30 -1 -58 7q-25 8 -46 24q-36 30 -43 77h371zM217 304q3 39 30 69q28 26 68 27q39 0 66 -28q23 -30 25 -68h-189z" />
    <glyph glyph-name="igrave" unicode="&#xec;" horiz-adv-x="306" 
d="M55 -58h196v598h-196v-598zM228 604l-105 176h-177l131 -176h151z" />
    <glyph glyph-name="iacute" unicode="&#xed;" horiz-adv-x="306" 
d="M55 -58h196v598h-196v-598zM228 604l131 176h-177l-105 -176h151z" />
    <glyph glyph-name="icircumflex" unicode="&#xee;" horiz-adv-x="306" 
d="M55 -58h196v598h-196v-598zM234 780h-164l-144 -176h183l43 79l43 -79h183z" />
    <glyph glyph-name="idieresis" unicode="&#xef;" horiz-adv-x="306" 
d="M55 -58h196v598h-196v-598zM-37 640h142v140h-142v-140zM205 640h143v140h-143v-140z" />
    <glyph glyph-name="eth" unicode="&#xf0;" horiz-adv-x="659" 
d="M65 548l38 -80l208 94q36 -26 60 -63q26 -43 35 -92q-66 55 -151 55q-49 -1 -93 -22q-43 -21 -74 -59q-32 -41 -46 -91q-11 -42 -11 -85q0 -50 13 -98q18 -56 58 -100q40 -41 94 -63q59 -22 122 -22q52 2 102 18q62 23 107 71q45 52 66 119q24 76 24 157q-1 105 -45 202
q-37 82 -102 144l85 39l-37 79l-132 -59q-64 31 -133 45q-75 16 -152 20l-29 -125q66 -6 130 -23zM312 69q-43 0 -68 34q-13 21 -19 46q-5 23 -4 47q0 23 4 46q6 24 19 45q25 36 68 38q59 -3 96 -50q2 -37 -2 -73q-4 -29 -13 -57q-7 -23 -21 -43q-23 -32 -60 -33z" />
    <glyph glyph-name="ntilde" unicode="&#xf1;" horiz-adv-x="595" 
d="M376 633q26 0 51 7q29 9 52 30q21 23 32 51q12 34 14 70h-119q-4 -18 -16 -31q-12 -11 -28 -10q-11 0 -21 5q-11 5 -21 12q-21 14 -44 24q-21 8 -44 9q-31 -1 -60 -10q-28 -11 -50 -31q-23 -25 -37 -57q-11 -30 -16 -61l123 -1q8 18 22 31q12 10 28 11q25 -4 46 -18
q22 -13 45 -23q20 -8 43 -8zM399 560q-50 -1 -95 -22q-52 -25 -90 -69q-5 36 -15 71h-189q11 -50 15 -100q6 -71 6 -141v-357h196v403q13 23 36 38q21 15 47 17q23 -1 40 -16q18 -19 19 -46v-396h196v435q-1 40 -14 78q-13 34 -38 60q-48 45 -114 45z" />
    <glyph glyph-name="ograve" unicode="&#xf2;" horiz-adv-x="637" 
d="M319 560q-51 -1 -100 -15q-59 -20 -105 -62q-44 -45 -66 -104q-24 -67 -23 -138q-1 -72 23 -139q22 -59 66 -103q46 -43 105 -62q49 -14 100 -15q50 1 99 15q59 19 104 62q44 44 66 103q24 67 24 139q0 71 -24 138q-22 59 -66 104q-45 42 -104 62q-49 14 -99 15zM319 82
q-23 0 -41 12q-20 13 -33 35q-14 26 -20 56q-4 28 -4 56q0 27 4 55q6 30 20 56q13 21 33 35q18 12 41 13q21 -1 40 -13q19 -14 32 -35q14 -26 20 -56q4 -28 5 -55q-1 -28 -5 -56q-6 -30 -20 -56q-13 -21 -32 -35q-19 -12 -40 -12zM394 604l-105 176h-177l131 -176h151z" />
    <glyph glyph-name="oacute" unicode="&#xf3;" horiz-adv-x="637" 
d="M375 604l131 176h-177l-105 -176h151zM319 560q-51 -1 -100 -15q-59 -20 -105 -62q-44 -45 -66 -104q-24 -67 -23 -138q-1 -72 23 -139q22 -59 66 -103q46 -43 105 -62q49 -14 100 -15q50 1 99 15q59 19 104 62q44 44 66 103q24 67 24 139q0 71 -24 138q-22 59 -66 104
q-45 42 -104 62q-49 14 -99 15zM319 82q-23 0 -41 12q-20 13 -33 35q-14 26 -20 56q-4 28 -4 56q0 27 4 55q6 30 20 56q13 21 33 35q18 12 41 13q21 -1 40 -13q19 -14 32 -35q14 -26 20 -56q4 -28 5 -55q-1 -28 -5 -56q-6 -30 -20 -56q-13 -21 -32 -35q-19 -12 -40 -12z" />
    <glyph glyph-name="ocircumflex" unicode="&#xf4;" horiz-adv-x="637" 
d="M399 780h-164l-144 -176h183l43 79l43 -79h183zM319 560q-51 -1 -100 -15q-59 -20 -105 -62q-44 -45 -66 -104q-24 -67 -23 -138q-1 -72 23 -139q22 -59 66 -103q46 -43 105 -62q49 -14 100 -15q50 1 99 15q59 19 104 62q44 44 66 103q24 67 24 139q0 71 -24 138
q-22 59 -66 104q-45 42 -104 62q-49 14 -99 15zM319 82q-23 0 -41 12q-20 13 -33 35q-14 26 -20 56q-4 28 -4 56q0 27 4 55q6 30 20 56q13 21 33 35q18 12 41 13q21 -1 40 -13q19 -14 32 -35q14 -26 20 -56q4 -28 5 -55q-1 -28 -5 -56q-6 -30 -20 -56q-13 -21 -32 -35
q-19 -12 -40 -12z" />
    <glyph glyph-name="otilde" unicode="&#xf5;" horiz-adv-x="637" 
d="M389 633q26 0 51 7q29 9 52 30q21 23 32 51q12 34 14 70h-119q-4 -18 -16 -31q-12 -11 -28 -10q-11 0 -21 5q-11 5 -21 12q-21 14 -44 24q-21 8 -44 9q-31 -1 -60 -10q-28 -11 -50 -31q-23 -25 -37 -57q-11 -30 -16 -61l123 -1q8 18 22 31q12 10 28 11q25 -4 46 -18
q22 -13 45 -23q20 -8 43 -8zM319 560q-51 -1 -100 -15q-59 -20 -105 -62q-44 -45 -66 -104q-24 -67 -23 -138q-1 -72 23 -139q22 -59 66 -103q46 -43 105 -62q49 -14 100 -15q50 1 99 15q59 19 104 62q44 44 66 103q24 67 24 139q0 71 -24 138q-22 59 -66 104
q-45 42 -104 62q-49 14 -99 15zM319 82q-23 0 -41 12q-20 13 -33 35q-14 26 -20 56q-4 28 -4 56q0 27 4 55q6 30 20 56q13 21 33 35q18 12 41 13q21 -1 40 -13q19 -14 32 -35q14 -26 20 -56q4 -28 5 -55q-1 -28 -5 -56q-6 -30 -20 -56q-13 -21 -32 -35q-19 -12 -40 -12z" />
    <glyph glyph-name="odieresis" unicode="&#xf6;" horiz-adv-x="637" 
d="M110 640h142v140h-142v-140zM372 640h143v140h-143v-140zM319 560q-51 -1 -100 -15q-59 -20 -105 -62q-44 -45 -66 -104q-24 -67 -23 -138q-1 -72 23 -139q22 -59 66 -103q46 -43 105 -62q49 -14 100 -15q50 1 99 15q59 19 104 62q44 44 66 103q24 67 24 139
q0 71 -24 138q-22 59 -66 104q-45 42 -104 62q-49 14 -99 15zM319 82q-23 0 -41 12q-20 13 -33 35q-14 26 -20 56q-4 28 -4 56q0 27 4 55q6 30 20 56q13 21 33 35q18 12 41 13q21 -1 40 -13q19 -14 32 -35q14 -26 20 -56q4 -28 5 -55q-1 -28 -5 -56q-6 -30 -20 -56
q-13 -21 -32 -35q-19 -12 -40 -12z" />
    <glyph glyph-name="divide" unicode="&#xf7;" horiz-adv-x="585" 
d="M525 263v139h-465v-139h465zM360 193h-134v-134h134v134zM360 607h-134v-134h134v134z" />
    <glyph glyph-name="oslash" unicode="&#xf8;" horiz-adv-x="637" 
d="M319 560q-51 -1 -100 -15q-59 -20 -105 -62q-44 -45 -66 -104q-24 -67 -23 -138q-1 -67 20 -130q21 -64 69 -111l-71 -116h120l37 60q57 -22 119 -22q50 1 99 15q59 19 104 62q44 44 66 103q24 67 24 139q0 64 -19 125q-20 62 -64 110l71 114h-121l-34 -55
q-61 25 -126 25zM218 241q0 27 5 55q6 30 21 56q13 21 33 35q19 11 42 12q19 -1 36 -9l-131 -212q-7 31 -6 63zM319 81q-16 -1 -30 6l126 205q4 -26 5 -51q-1 -28 -6 -56q-6 -30 -21 -57q-13 -21 -34 -35q-18 -12 -40 -12z" />
    <glyph glyph-name="ugrave" unicode="&#xf9;" horiz-adv-x="579" 
d="M408 604l-105 176h-177l131 -176h151zM180 -78q49 1 94 22q52 25 91 69q4 -36 15 -71h189q-12 50 -16 99q-6 71 -5 142v357h-196v-403q-14 -24 -37 -39q-21 -15 -46 -16q-24 0 -41 15q-18 19 -18 47v396h-196v-435q-1 -41 13 -79q13 -33 38 -59q48 -45 115 -45z" />
    <glyph glyph-name="uacute" unicode="&#xfa;" horiz-adv-x="579" 
d="M338 604l131 176h-177l-105 -176h151zM180 -78q49 1 94 22q52 25 91 69q4 -36 15 -71h189q-12 50 -16 99q-6 71 -5 142v357h-196v-403q-14 -24 -37 -39q-21 -15 -46 -16q-24 0 -41 15q-18 19 -18 47v396h-196v-435q-1 -41 13 -79q13 -33 38 -59q48 -45 115 -45z" />
    <glyph glyph-name="ucircumflex" unicode="&#xfb;" horiz-adv-x="579" 
d="M366 780h-164l-144 -176h183l43 79l43 -79h183zM180 -78q49 1 94 22q52 25 91 69q4 -36 15 -71h189q-12 50 -16 99q-6 71 -5 142v357h-196v-403q-14 -24 -37 -39q-21 -15 -46 -16q-24 0 -41 15q-18 19 -18 47v396h-196v-435q-1 -41 13 -79q13 -33 38 -59q48 -45 115 -45z
" />
    <glyph glyph-name="udieresis" unicode="&#xfc;" horiz-adv-x="579" 
d="M80 640h142v140h-142v-140zM342 640h143v140h-143v-140zM180 -78q49 1 94 22q52 25 91 69q4 -36 15 -71h189q-12 50 -16 99q-6 71 -5 142v357h-196v-403q-14 -24 -37 -39q-21 -15 -46 -16q-24 0 -41 15q-18 19 -18 47v396h-196v-435q-1 -41 13 -79q13 -33 38 -59
q48 -45 115 -45z" />
    <glyph glyph-name="yacute" unicode="&#xfd;" horiz-adv-x="636" 
d="M424 540q-44 -159 -78 -319l-25 -122l-24 122q-32 161 -78 319h-207l185 -598h71q-15 -50 -60 -76q-30 -17 -63 -25q-42 -9 -84 -11l-6 -148q62 2 124 13q66 13 124 45q48 29 82 75q32 49 50 104l192 621h-203zM391 604l131 176h-177l-105 -176h151z" />
    <glyph glyph-name="thorn" unicode="&#xfe;" horiz-adv-x="615" 
d="M379 -78q94 2 151 77q33 46 47 102q15 68 16 138q-1 70 -16 138q-14 57 -47 105q-31 41 -78 62q-38 15 -78 16q-39 -1 -75 -16q-40 -16 -73 -41v277h-196v-1078h192v302q31 -39 75 -61q39 -19 82 -21zM303 92q-49 3 -77 43v229q18 16 40 26q18 9 38 10q41 -1 63 -36
q13 -24 18 -50q7 -36 7 -72q-1 -27 -4 -54q-5 -28 -17 -53q-10 -20 -28 -33q-19 -11 -40 -10z" />
    <glyph glyph-name="ydieresis" unicode="&#xff;" horiz-adv-x="636" 
d="M424 540q-44 -159 -78 -319l-25 -122l-24 122q-32 161 -78 319h-207l185 -598h71q-15 -50 -60 -76q-30 -17 -63 -25q-42 -9 -84 -11l-6 -148q62 2 124 13q66 13 124 45q48 29 82 75q32 49 50 104l192 621h-203zM121 640h142v140h-142v-140zM383 640h143v140h-143v-140z
" />
    <glyph glyph-name="amacron" unicode="&#x101;" horiz-adv-x="592" 
d="M288 560q-121 -3 -232 -49l37 -131q76 24 157 26q23 0 45 -6q19 -4 35 -15q25 -20 25 -52v-33h-105q-52 0 -102 -15q-41 -13 -73 -42q-30 -30 -43 -69q-10 -34 -10 -69q-1 -42 12 -82q12 -33 36 -58q26 -24 59 -35q28 -7 58 -8q48 1 91 22q46 23 81 60q5 -31 16 -62h207
q-15 49 -20 98q-10 66 -11 133v185q-1 36 -11 72q-15 42 -48 71q-37 31 -84 44q-59 15 -120 15zM355 104q-35 -34 -82 -36q-25 -1 -42 17q-14 18 -13 41q-2 33 23 55q27 17 60 16h54v-93zM455 780h-317v-122h317v122z" />
    <glyph glyph-name="emacron" unicode="&#x113;" horiz-adv-x="613" 
d="M98 780v-125h411v125h-411zM589 190q2 29 2 60q0 69 -21 135q-20 57 -61 101q-41 41 -96 59q-46 14 -94 15q-53 -1 -103 -15q-60 -18 -106 -60q-44 -44 -66 -103q-23 -69 -22 -141q0 -56 14 -110q18 -63 60 -113q43 -46 101 -71q64 -25 134 -25q61 0 121 16q61 17 112 53
l-43 132q-37 -19 -77 -30q-39 -11 -79 -11q-30 -1 -58 7q-25 8 -46 24q-36 30 -43 77h371zM217 304q2 44 29 78q27 31 69 32q41 0 67 -32q23 -36 24 -78h-189z" />
    <glyph glyph-name="ecaron" unicode="&#x11b;" horiz-adv-x="613" 
d="M589 190q2 29 2 60q0 69 -21 135q-20 57 -61 101q-41 41 -96 59q-46 14 -94 15q-53 -1 -103 -15q-60 -18 -106 -60q-44 -44 -66 -103q-23 -69 -22 -141q0 -56 14 -110q18 -63 60 -113q43 -46 101 -71q64 -25 134 -25q61 0 121 16q61 17 112 53l-43 132q-37 -19 -77 -30
q-39 -11 -79 -11q-30 -1 -58 7q-25 8 -46 24q-36 30 -43 77h371zM217 304q2 44 29 78q27 31 69 32q41 0 67 -32q23 -36 24 -78h-189zM547 780h-183l-43 -79l-43 79h-183l144 -176h164z" />
    <glyph glyph-name="imacron" unicode="&#x12b;" horiz-adv-x="306" 
d="M55 -58h196v586h-196v-586zM-54 780v-125h411v125h-411z" />
    <glyph glyph-name="nacute" unicode="&#x144;" horiz-adv-x="595" 
d="M357 604l131 176h-177l-105 -176h151zM399 560q-50 -1 -95 -22q-52 -25 -90 -69q-5 36 -15 71h-189q11 -50 15 -100q6 -71 6 -141v-357h196v403q13 23 36 38q21 15 47 17q23 -1 40 -16q18 -19 19 -46v-396h196v435q-1 40 -14 78q-13 34 -38 60q-48 45 -114 45z" />
    <glyph glyph-name="ncaron" unicode="&#x148;" horiz-adv-x="595" 
d="M529 780h-183l-43 -79l-43 79h-183l144 -176h164zM399 560q-50 -1 -95 -22q-52 -25 -90 -69q-5 36 -15 71h-189q11 -50 15 -100q6 -71 6 -141v-357h196v403q13 23 36 38q21 15 47 17q23 -1 40 -16q18 -19 19 -46v-396h196v435q-1 40 -14 78q-13 34 -38 60q-48 45 -114 45
z" />
    <glyph glyph-name="omacron" unicode="&#x14d;" horiz-adv-x="637" 
d="M319 560q-51 -1 -100 -15q-59 -20 -105 -62q-44 -45 -66 -104q-24 -67 -23 -138q-1 -72 23 -139q22 -59 66 -103q46 -43 105 -62q49 -14 100 -15q50 1 99 15q59 19 104 62q44 44 66 103q24 67 24 139q0 71 -24 138q-22 59 -66 104q-45 42 -104 62q-49 14 -99 15zM319 80
q-23 0 -41 12q-20 14 -33 36q-14 27 -20 57q-4 28 -4 56q0 27 4 55q6 30 20 56q13 21 33 35q18 12 41 13q21 -1 40 -13q19 -14 32 -35q14 -26 20 -56q4 -28 5 -55q-1 -28 -5 -56q-6 -30 -20 -57q-13 -22 -32 -36q-19 -12 -40 -12zM105 780v-125h411v125h-411z" />
    <glyph glyph-name="OE" unicode="&#x152;" horiz-adv-x="1072" 
d="M441 757q-46 -1 -90 -9q-42 -9 -81 -25q-76 -33 -131 -95q-55 -66 -79 -148q-18 -70 -19 -142q0 -74 19 -144q13 -42 34 -81q20 -36 47 -67q56 -60 133 -92q83 -32 172 -32q75 1 148 20h517v158h-333v174h289v144h-289v159h332v160h-530q-69 19 -139 20zM461 82
q-95 1 -159 71q-34 40 -49 91q-12 46 -12 94t11 94q14 51 47 93q64 70 159 72q60 0 120 -14v-484q-58 -18 -117 -17z" />
    <glyph glyph-name="oe" unicode="&#x153;" horiz-adv-x="1008" 
d="M984 190q2 29 2 60q0 69 -21 135q-20 57 -61 101q-41 41 -96 59q-46 14 -94 15q-55 0 -107 -16q-53 -17 -94 -53q-42 35 -94 53q-49 16 -100 16q-51 -1 -100 -15q-59 -20 -105 -62q-44 -45 -66 -104q-24 -67 -23 -138q-1 -72 23 -139q22 -59 66 -103q46 -43 105 -62
q49 -14 100 -15q53 0 103 17q53 18 95 55q44 -38 99 -55q54 -17 110 -17q61 0 121 16q61 17 112 53l-43 132q-37 -19 -77 -30q-39 -11 -79 -11q-30 -1 -58 7q-25 8 -46 24q-36 30 -43 77h371zM319 82q-23 0 -41 12q-20 13 -33 35q-14 26 -20 56q-4 28 -4 56q0 27 4 55
q6 30 20 56q13 21 33 35q18 12 41 13q21 -1 40 -13q19 -14 32 -35q14 -26 20 -56q4 -28 5 -55q-1 -28 -5 -56q-6 -30 -20 -56q-13 -21 -32 -35q-19 -12 -40 -12zM612 304q3 40 31 70q28 25 67 26q38 0 65 -27q24 -30 26 -69h-189z" />
    <glyph glyph-name="Scaron" unicode="&#x160;" horiz-adv-x="609" 
d="M312 -78q61 0 119 21q51 19 90 56q37 38 54 88q12 41 13 85q0 45 -13 89q-14 40 -43 72q-26 25 -57 45q-55 32 -115 54q-48 15 -88 43q-14 11 -23 26q-7 13 -7 28q1 29 27 45q29 17 64 17q86 -1 166 -35l41 148q-110 53 -231 53q-49 -1 -96 -13q-53 -14 -96 -49
q-39 -33 -59 -79q-20 -48 -20 -100q-1 -46 14 -89q11 -30 30 -55q29 -36 68 -61q49 -30 103 -49q50 -18 92 -49q29 -23 30 -59q-2 -29 -24 -48q-27 -20 -61 -19q-60 0 -116 18q-53 17 -101 47l-52 -150q134 -81 291 -80zM537 976h-183l-43 -79l-43 79h-183l144 -176h164z
" />
    <glyph glyph-name="scaron" unicode="&#x161;" horiz-adv-x="516" 
d="M225 373q0 9 6 16q7 8 17 13q25 10 53 10q63 -3 121 -29l48 126q-95 48 -201 51q-45 -1 -89 -11q-47 -11 -85 -40q-32 -27 -50 -65q-16 -40 -16 -82q0 -68 45 -116q28 -28 64 -47q41 -21 85 -34q33 -10 62 -28q15 -10 17 -28q-1 -19 -18 -28q-28 -12 -59 -10
q-35 1 -69 10q-44 11 -85 31l-51 -125q108 -63 235 -65q43 1 85 10q46 11 85 38q34 27 53 64q17 41 18 86q0 64 -41 114q-26 28 -61 46q-46 23 -95 39q-30 8 -56 24q-17 10 -18 30zM479 780h-183l-43 -79l-43 79h-183l144 -176h164z" />
    <glyph glyph-name="umacron" unicode="&#x16b;" horiz-adv-x="579" 
d="M180 -78q49 1 94 22q52 25 91 69q4 -36 15 -71h189q-12 50 -16 99q-6 71 -5 142v357h-196v-403q-14 -24 -37 -39q-21 -15 -46 -16q-24 0 -41 15q-18 19 -18 47v396h-196v-435q-1 -41 13 -79q13 -33 38 -59q48 -45 115 -45zM68 780v-125h411v125h-411z" />
    <glyph glyph-name="Ydieresis" unicode="&#x178;" horiz-adv-x="713" 
d="M259 -58h200v290l249 505h-205l-144 -370l-140 370h-214l254 -503v-292zM158 800h142v140h-142v-140zM420 800h143v140h-143v-140z" />
    <glyph glyph-name="Zcaron" unicode="&#x17d;" horiz-adv-x="630" 
d="M20 -58h590v158h-358l350 467v170h-571v-160h358l-369 -481v-154zM555 976h-183l-43 -79l-43 79h-183l144 -176h164z" />
    <glyph glyph-name="zcaron" unicode="&#x17e;" horiz-adv-x="509" 
d="M5 -58h499v140h-261l259 319v139h-483v-145h274l-288 -340v-113zM490 780h-183l-43 -79l-43 79h-183l144 -176h164z" />
    <glyph glyph-name="florin" unicode="&#x192;" horiz-adv-x="521" 
d="M5 -301q73 -15 149 -17q37 1 72 10q42 13 72 43q30 33 43 76q15 53 15 107v477h138v145h-144v23q-2 34 19 62q20 22 51 22q43 -1 87 -8l17 137q-81 23 -164 24q-36 -1 -71 -12q-40 -14 -70 -45q-29 -31 -44 -71q-14 -43 -14 -88v-44h-84v-145h83v-444q0 -24 -5 -47
q-4 -18 -14 -34q-17 -24 -46 -24q-38 1 -74 7z" />
    <glyph glyph-name="uni01CE" unicode="&#x1ce;" horiz-adv-x="592" 
d="M288 560q-121 -4 -232 -49l37 -131q76 24 157 26q23 0 45 -6q19 -4 35 -15q25 -20 25 -52v-33h-105q-52 0 -102 -15q-41 -13 -73 -42q-30 -30 -43 -69q-10 -34 -10 -69q-1 -42 12 -82q12 -33 36 -58q26 -24 59 -35q28 -7 58 -8q48 1 91 22q46 23 81 60q5 -31 16 -62h207
q-15 49 -20 98q-10 66 -11 133v185q-1 36 -11 72q-15 42 -48 71q-37 31 -84 44q-59 15 -120 15zM355 104q-35 -34 -82 -36q-25 -1 -42 17q-14 18 -13 41q-2 33 23 55q27 17 60 16h54v-93zM539 780h-183l-43 -79l-43 79h-183l144 -176h164z" />
    <glyph glyph-name="uni01D0" unicode="&#x1d0;" horiz-adv-x="306" 
d="M381 780h-183l-43 -79l-43 79h-183l144 -176h164zM55 -58h196v598h-196v-598z" />
    <glyph glyph-name="uni01D2" unicode="&#x1d2;" horiz-adv-x="637" 
d="M319 560q-51 -1 -100 -15q-59 -20 -105 -62q-44 -45 -66 -104q-24 -67 -23 -138q-1 -72 23 -139q22 -59 66 -103q46 -43 105 -62q49 -14 100 -15q50 1 99 15q59 19 104 62q44 44 66 103q24 67 24 139q0 71 -24 138q-22 59 -66 104q-45 42 -104 62q-49 14 -99 15zM319 83
q-23 0 -41 11q-20 14 -33 35q-14 27 -20 56q-4 28 -4 56q0 27 4 55q6 30 20 56q13 21 33 35q18 12 41 13q21 -1 40 -13q19 -14 32 -35q14 -26 20 -56q4 -28 5 -55q-1 -28 -5 -56q-6 -29 -20 -56q-13 -21 -32 -35q-19 -11 -40 -11zM545 780h-183l-43 -79l-43 79h-183
l144 -176h164z" />
    <glyph glyph-name="uni01D4" unicode="&#x1d4;" horiz-adv-x="579" 
d="M180 -78q49 1 94 22q52 25 91 69q4 -36 15 -71h189q-12 50 -16 99q-6 71 -5 142v357h-196v-403q-14 -24 -37 -39q-21 -15 -46 -16q-24 0 -41 15q-18 19 -18 47v396h-196v-435q-1 -41 13 -79q13 -33 38 -59q48 -45 115 -45zM503 780h-183l-43 -79l-43 79h-183l144 -176
h164z" />
    <glyph glyph-name="uni01D6" unicode="&#x1d6;" horiz-adv-x="579" 
d="M80 590h142v140h-142v-140zM342 590h143v140h-143v-140zM445 879h-317v-122h317v122zM180 -78q49 1 94 22q52 25 91 69q4 -36 15 -71h189q-12 50 -16 99q-6 71 -5 142v357h-196v-403q-14 -24 -37 -39q-21 -15 -46 -16q-24 0 -41 15q-18 19 -18 47v396h-196v-435
q-1 -41 13 -79q13 -33 38 -59q48 -45 115 -45z" />
    <glyph glyph-name="uni01D8" unicode="&#x1d8;" horiz-adv-x="579" 
d="M80 590h142v140h-142v-140zM342 590h143v140h-143v-140zM357 758l131 176h-177l-105 -176h151zM180 -78q49 1 94 22q52 25 91 69q4 -36 15 -71h189q-12 50 -16 99q-6 71 -5 142v357h-196v-403q-14 -24 -37 -39q-21 -15 -46 -16q-24 0 -41 15q-18 19 -18 47v396h-196v-435
q-1 -41 13 -79q13 -33 38 -59q48 -45 115 -45z" />
    <glyph glyph-name="uni01DA" unicode="&#x1da;" horiz-adv-x="579" 
d="M80 590h142v140h-142v-140zM342 590h143v140h-143v-140zM508 933h-183l-43 -79l-43 79h-183l144 -176h164zM180 -78q49 1 94 22q52 25 91 69q4 -36 15 -71h189q-12 50 -16 99q-6 71 -5 142v357h-196v-403q-14 -24 -37 -39q-21 -15 -46 -16q-24 0 -41 15q-18 19 -18 47
v396h-196v-435q-1 -41 13 -79q13 -33 38 -59q48 -45 115 -45z" />
    <glyph glyph-name="uni01DC" unicode="&#x1dc;" horiz-adv-x="579" 
d="M80 590h142v140h-142v-140zM342 590h143v140h-143v-140zM360 757l-105 176h-177l131 -176h151zM180 -78q49 1 94 22q52 25 91 69q4 -36 15 -71h189q-12 50 -16 99q-6 71 -5 142v357h-196v-403q-14 -24 -37 -39q-21 -15 -46 -16q-24 0 -41 15q-18 19 -18 47v396h-196v-435
q-1 -41 13 -79q13 -33 38 -59q48 -45 115 -45z" />
    <glyph glyph-name="uni01F9" unicode="&#x1f9;" horiz-adv-x="595" 
d="M398 604l-105 176h-177l131 -176h151zM399 560q-50 -1 -95 -22q-52 -25 -90 -69q-5 36 -15 71h-189q11 -50 15 -100q6 -71 6 -141v-357h196v403q13 23 36 38q21 15 47 17q23 -1 40 -16q18 -19 19 -46v-396h196v435q-1 40 -14 78q-13 34 -38 60q-48 45 -114 45z" />
    <glyph glyph-name="uni0251" unicode="&#x251;" horiz-adv-x="564" 
d="M241 -19q86 1 146 63v-44h169l-1 498q-117 64 -250 66q-62 0 -119 -22q-53 -22 -92 -63q-39 -46 -56 -104q-13 -50 -13 -102q0 -51 9 -101q11 -56 41 -104q27 -41 70 -65q45 -22 96 -22zM290 130q-33 1 -49 31q-10 22 -14 46q-6 31 -5 64q-1 25 3 51q4 27 17 51
q23 41 70 43q26 -1 51 -10v-227q-11 -21 -30 -35t-43 -14z" />
    <glyph glyph-name="circumflex" unicode="&#x2c6;" horiz-adv-x="521" 
d="M342 780h-164l-144 -176h183l43 79l43 -79h183z" />
    <glyph glyph-name="caron" unicode="&#x2c7;" horiz-adv-x="521" 
d="M486 780h-183l-43 -79l-43 79h-183l144 -176h164z" />
    <glyph glyph-name="uni02C9" unicode="&#x2c9;" horiz-adv-x="479" 
d="M34 780v-125h411v125h-411z" />
    <glyph glyph-name="uni02CA" unicode="&#x2ca;" horiz-adv-x="383" 
d="M201 604l131 176h-177l-105 -176h151z" />
    <glyph glyph-name="uni02CB" unicode="&#x2cb;" horiz-adv-x="383" 
d="M332 604l-105 176h-177l131 -176h151z" />
    <glyph glyph-name="dotaccent" unicode="&#x2d9;" horiz-adv-x="239" 
d="M20 548h199v189h-199v-189z" />
    <glyph glyph-name="tilde" unicode="&#x2dc;" horiz-adv-x="579" 
d="M368 633q26 0 51 7q29 9 52 30q21 23 32 51q12 34 14 70h-119q-4 -18 -16 -31q-12 -11 -28 -10q-11 0 -21 5q-11 5 -21 12q-21 14 -44 24q-21 8 -44 9q-31 -1 -60 -10q-28 -11 -50 -31q-23 -25 -37 -57q-11 -30 -16 -61l123 -1q8 18 22 31q12 10 28 11q25 -4 46 -18
q22 -13 45 -23q20 -8 43 -8z" />
    <glyph glyph-name="Alpha" unicode="&#x391;" horiz-adv-x="750" 
d="M741 -58l-214 795h-305l-213 -795h217l37 155h223l37 -155h218zM374 564h2l72 -307h-147z" />
    <glyph glyph-name="Beta" unicode="&#x392;" horiz-adv-x="676" 
d="M390 -58q60 1 117 17q49 15 88 47q36 33 53 79q12 38 13 78q0 65 -37 118q-21 28 -51 47q-33 21 -70 31v3q53 16 89 59q38 49 39 112q-1 85 -65 141q-40 32 -89 46q-59 16 -119 17h-328v-795h360zM230 416v161h108q38 0 68 -24q24 -22 25 -54q-1 -34 -25 -58
q-30 -26 -70 -25h-106zM230 102v183h122q41 0 74 -25t35 -66q-1 -42 -32 -70q-30 -23 -68 -22h-131z" />
    <glyph glyph-name="Gamma" unicode="&#x393;" horiz-adv-x="612" 
d="M30 737v-795h200v635h362v160h-562z" />
    <glyph glyph-name="uni0394" unicode="&#x394;" horiz-adv-x="708" 
d="M9 -58h690l-257 795h-176zM259 102l94 384h2l93 -384h-189z" />
    <glyph glyph-name="Epsilon" unicode="&#x395;" horiz-adv-x="583" 
d="M30 -58h533v160h-333v172h289v144h-289v159h332v160h-532v-795z" />
    <glyph glyph-name="Zeta" unicode="&#x396;" horiz-adv-x="630" 
d="M20 -58h590v158h-358l350 467v170h-571v-160h358l-369 -481v-154z" />
    <glyph glyph-name="Eta" unicode="&#x397;" horiz-adv-x="702" 
d="M472 737v-314h-242v314h-200v-795h200v321h242v-321h200v795h-200z" />
    <glyph glyph-name="Theta" unicode="&#x398;" horiz-adv-x="802" 
d="M402 757q-81 -1 -154 -34q-73 -34 -125 -95q-54 -66 -79 -148q-18 -70 -19 -142q0 -73 19 -142q23 -82 77 -148q52 -59 124 -93q75 -32 157 -33q81 1 156 33q72 34 123 93q53 66 77 148q17 70 19 142q-2 72 -19 142q-24 82 -77 148q-51 61 -123 95q-75 33 -156 34z
M402 95q-39 0 -73 17q-36 19 -60 52q-28 39 -40 86q-9 43 -9 88q0 43 9 86q12 47 40 87q24 33 60 53q34 18 73 19q37 -1 71 -18q36 -20 60 -53q27 -40 39 -87q9 -43 10 -87q-1 -45 -10 -88q-12 -46 -39 -86q-25 -32 -60 -52q-34 -17 -71 -17zM281 402v-135h247v135h-247z
" />
    <glyph glyph-name="Iota" unicode="&#x399;" horiz-adv-x="320" 
d="M260 737h-200v-795h200v795z" />
    <glyph glyph-name="Kappa" unicode="&#x39a;" horiz-adv-x="739" 
d="M230 737h-200v-795h200v313h75q46 -96 101 -186q41 -67 89 -127h244q-158 187 -275 403l215 392h-205l-172 -322h-72v322z" />
    <glyph glyph-name="Lambda" unicode="&#x39b;" horiz-adv-x="750" 
d="M741 -58l-214 795h-305l-213 -795h217l148 622h2l147 -622h218z" />
    <glyph glyph-name="Mu" unicode="&#x39c;" horiz-adv-x="874" 
d="M30 -58h200v585h3l118 -585h173l116 585h4v-585h200v794h-304l-103 -572l-103 572h-304v-794z" />
    <glyph glyph-name="Nu" unicode="&#x39d;" horiz-adv-x="696" 
d="M30 -58h200v583h3l133 -583h300v795h-200v-611h-3l-137 611h-296v-795z" />
    <glyph glyph-name="Xi" unicode="&#x39e;" horiz-adv-x="638" 
d="M55 736v-159h528v159h-528zM125 436v-159h388v159h-388zM20 101v-159h598v159h-598z" />
    <glyph glyph-name="Omicron" unicode="&#x39f;" horiz-adv-x="802" 
d="M402 757q-81 -1 -154 -34q-73 -34 -125 -95q-54 -66 -79 -148q-18 -70 -19 -142q0 -73 19 -142q23 -82 77 -148q52 -59 124 -93q75 -32 157 -33q81 1 156 33q72 34 123 93q53 66 77 148q17 70 19 142q-2 72 -19 142q-24 82 -77 148q-51 61 -123 95q-75 33 -156 34z
M402 95q-38 0 -72 17q-35 19 -59 52q-26 40 -37 86q-9 43 -9 88q0 43 9 86q11 47 37 87q24 33 59 53q34 18 72 19q37 -1 70 -18q35 -20 58 -53q26 -40 37 -87q9 -43 10 -87q-1 -45 -10 -88q-11 -46 -37 -86q-24 -32 -58 -52q-33 -17 -70 -17z" />
    <glyph glyph-name="Pi" unicode="&#x3a0;" horiz-adv-x="721" 
d="M30 737v-795h199v635h262v-635h200v795h-661z" />
    <glyph glyph-name="Rho" unicode="&#x3a1;" horiz-adv-x="675" 
d="M30 -58h200v242h50q72 0 144 13q38 8 74 22q31 14 58 33q49 37 73 92q23 58 23 121q-1 56 -20 108q-21 52 -62 91q-48 41 -109 58q-58 14 -116 15h-315v-795zM230 344v233h96q27 -1 53 -10q23 -9 41 -26q32 -35 32 -82q0 -50 -37 -83q-20 -17 -45 -25q-27 -7 -55 -7h-85z
" />
    <glyph glyph-name="Sigma" unicode="&#x3a3;" horiz-adv-x="627" 
d="M617 -58v160h-348v3l177 193v83l-177 192v4h348v160h-587v-154l230 -244l-230 -243v-154h587z" />
    <glyph glyph-name="Tau" unicode="&#x3a4;" horiz-adv-x="611" 
d="M206 -58h200v635h200v159h-601v-159h201v-635z" />
    <glyph glyph-name="Upsilon" unicode="&#x3a5;" horiz-adv-x="713" 
d="M259 -58h200v290l249 505h-205l-144 -370l-140 370h-214l254 -503v-292z" />
    <glyph glyph-name="Phi" unicode="&#x3a6;" horiz-adv-x="802" 
d="M321 -58h160v84q65 9 125 37q55 26 97 70q41 46 59 105q14 49 15 100q-1 51 -15 101q-18 59 -59 105q-42 45 -97 71q-60 27 -125 38v83h-160v-84q-65 -11 -125 -38q-55 -26 -97 -71q-41 -46 -60 -104q-14 -50 -14 -101q0 -52 14 -101q18 -59 59 -104q42 -45 97 -71
q60 -27 126 -36v-84zM582 338q0 -52 -25 -97q-27 -44 -76 -61v310q49 -14 76 -57q25 -44 25 -95zM220 338q-1 50 24 93q28 43 77 58v-309q-50 16 -77 61q-25 45 -24 97z" />
    <glyph glyph-name="Chi" unicode="&#x3a7;" horiz-adv-x="736" 
d="M736 -58l-229 406l208 389h-211l-136 -275l-136 275h-211l208 -389l-229 -406h214l154 290l154 -290h214z" />
    <glyph glyph-name="Psi" unicode="&#x3a8;" horiz-adv-x="838" 
d="M319 -58h198v154q61 11 118 38q67 37 108 103q21 35 35 74q15 44 23 90q9 53 13 106q3 62 3 124h-184q0 -75 -7 -149q-6 -57 -23 -112q-13 -41 -41 -75q-20 -20 -45 -32v474h-198v-476q-28 10 -48 31q-29 32 -42 74q-17 55 -22 112q-6 76 -5 153h-182q-2 -115 17 -229
q9 -45 23 -90q14 -38 35 -74q40 -65 106 -103q56 -28 118 -38v-155z" />
    <glyph glyph-name="uni03A9" unicode="&#x3a9;" horiz-adv-x="776" 
d="M48 82v-140h294v142q-54 53 -86 122q-32 72 -31 152q0 41 8 82q10 44 35 81q44 62 120 65q34 -1 64 -17q32 -18 54 -48q25 -37 36 -81q8 -41 9 -82q-2 -162 -117 -274v-142h294v140h-160q82 50 134 131q48 79 49 172q-1 64 -17 127q-20 74 -68 132q-49 55 -118 84
q-36 14 -75 21q-42 7 -85 8q-83 0 -159 -30q-68 -29 -118 -84q-49 -58 -70 -132q-16 -62 -16 -126q-1 -92 45 -172q51 -84 138 -131h-160z" />
    <glyph glyph-name="alpha" unicode="&#x3b1;" horiz-adv-x="818" 
d="M22 238q0 -57 14 -111q17 -62 57 -112q78 -91 198 -94q74 0 135 43q32 25 57 55q27 34 49 72q6 -14 13 -27q23 -48 49 -93q15 -25 34 -49h190q-115 149 -203 316q47 87 91 178q29 60 53 124h-165q-31 -84 -69 -163q-18 44 -42 84q-22 34 -53 59q-33 23 -71 32
q-34 7 -68 8q-61 -1 -117 -26q-52 -26 -87 -73q-38 -52 -53 -114q-12 -54 -12 -109zM222 235q-1 34 6 68q6 29 20 55q12 20 32 33q14 8 31 9q17 -1 34 -9q23 -13 40 -33q21 -25 35 -54q16 -33 27 -67q-19 -65 -61 -116q-17 -20 -41 -32q-16 -7 -34 -7q-16 0 -30 7
q-20 12 -32 31q-14 24 -20 51q-8 31 -7 64z" />
    <glyph glyph-name="beta" unicode="&#x3b2;" horiz-adv-x="688" 
d="M497 379q55 25 88 77q28 48 28 104q-1 45 -14 88q-17 50 -56 86q-41 34 -92 49q-60 16 -121 17q-63 0 -122 -19q-59 -20 -103 -64q-22 -24 -39 -53q-18 -33 -28 -69q-17 -66 -17 -135v-758h198v811q-1 50 32 87q31 33 77 35q40 0 68 -27q14 -15 20 -34q4 -18 5 -36
q1 -42 -22 -75q-21 -26 -54 -28l-32 -1l1 -138h37q24 -1 48 -7q22 -7 39 -22q17 -17 24 -39q6 -21 7 -42q0 -46 -32 -79q-30 -26 -70 -25q-46 0 -89 16l-23 -154q74 -20 152 -22q50 1 98 13q53 14 95 50q37 33 55 80q17 50 18 104q0 72 -43 130q-24 29 -57 49q-36 20 -76 31
z" />
    <glyph glyph-name="gamma" unicode="&#x3b3;" horiz-adv-x="599" 
d="M347 -211q17 80 24 160q194 264 223 591h-190q0 -202 -74 -388h-3q-15 97 -43 191q-29 102 -75 197h-209q83 -137 133 -288q28 -82 45 -167q15 -71 17 -144q-3 -77 -23 -152h175z" />
    <glyph glyph-name="delta" unicode="&#x3b4;" horiz-adv-x="631" 
d="M22 239q0 -60 14 -118q18 -63 61 -113q40 -42 96 -64q57 -22 119 -22q52 1 103 14q59 18 105 60q44 43 66 101q23 69 23 142q-1 51 -13 100q-12 42 -32 81q-27 44 -65 79q-43 37 -93 64q-36 17 -68 40q-28 20 -51 45q-35 38 -41 89h-202q7 -63 41 -115q21 -29 48 -53
q31 -27 67 -47q-81 -41 -131 -115q-48 -77 -47 -168zM218 238q-1 55 26 104q27 44 77 62q46 -23 70 -69q22 -45 22 -94q0 -36 -7 -71q-6 -27 -21 -51q-25 -37 -70 -37q-44 0 -69 36q-15 24 -21 51q-8 34 -7 69z" />
    <glyph glyph-name="epsilon" unicode="&#x3b5;" horiz-adv-x="518" 
d="M139 258q-26 -9 -49 -23q-22 -13 -39 -32q-31 -40 -29 -91q0 -35 13 -67q20 -41 56 -67q40 -28 87 -41q53 -14 108 -15q56 1 112 11q52 8 102 26l-26 141q-72 -19 -146 -18q-43 -2 -81 16q-23 12 -25 38q1 24 23 35q35 16 75 15h76v123h-73q-34 -2 -64 13q-19 10 -20 32
q1 20 20 31q29 15 62 15q71 -1 140 -17l27 137q-46 20 -94 28q-59 11 -119 12q-42 -1 -82 -8q-44 -9 -84 -32q-32 -21 -52 -53q-18 -32 -18 -68q0 -44 24 -80q28 -42 76 -61z" />
    <glyph glyph-name="zeta" unicode="&#x3b6;" horiz-adv-x="498" 
d="M20 199q0 -44 10 -85q14 -49 47 -88q34 -36 80 -57q53 -22 110 -27q-26 -76 -66 -146l195 -2q55 135 82 277l-17 21q-57 -2 -112 6q-42 8 -79 30q-30 21 -44 56q-11 29 -10 61q1 52 15 103q22 72 59 137q36 62 82 119q39 46 85 86l-36 95q-85 -4 -169 0q-74 2 -147 15
l-23 -152q75 -12 153 -12q-94 -93 -155 -209q-31 -61 -48 -127q-11 -50 -12 -101z" />
    <glyph glyph-name="eta" unicode="&#x3b7;" horiz-adv-x="595" 
d="M399 560q-50 -1 -95 -22q-52 -25 -90 -69q-5 36 -15 71h-189q11 -50 15 -100q6 -71 6 -141v-357h196v403q13 23 36 38q21 15 47 17q23 -1 40 -16q18 -19 19 -46v-636h196v675q-1 40 -14 78q-13 34 -38 60q-48 45 -114 45z" />
    <glyph glyph-name="theta" unicode="&#x3b8;" horiz-adv-x="626" 
d="M312 800q-66 -1 -124 -32q-28 -17 -51 -39q-25 -25 -44 -55q-20 -34 -35 -71q-15 -42 -24 -86q-14 -79 -14 -159q-1 -80 13 -159q9 -44 24 -86q14 -36 34 -69q19 -29 43 -53q24 -22 52 -38q59 -31 126 -31q66 1 125 31q59 34 96 91q20 33 34 69q15 42 24 86q14 79 15 159
q-1 80 -15 159q-9 44 -24 86q-14 37 -34 71q-19 30 -44 55q-24 22 -52 39q-59 31 -125 32zM312 635q16 -1 30 -10q20 -16 30 -40q14 -32 20 -67q7 -46 10 -92h-181q2 45 9 91q6 35 20 68q10 24 30 40q15 9 32 10zM312 82q-17 0 -31 9q-20 15 -31 38q-14 32 -19 66
q-8 44 -10 90h181q-3 -46 -11 -90q-6 -34 -20 -66q-10 -23 -30 -38q-13 -9 -29 -9z" />
    <glyph glyph-name="iota" unicode="&#x3b9;" horiz-adv-x="362" 
d="M336 81q-25 -2 -49 2q-20 3 -35 15q-16 13 -20 34q-6 35 -4 72v553h-196v-599q-1 -43 8 -84q10 -46 37 -83q27 -33 66 -51q43 -17 91 -18q61 0 121 12z" />
    <glyph glyph-name="kappa" unicode="&#x3ba;" horiz-adv-x="625" 
d="M30 -58h196v240h55q53 -127 130 -240h214q-102 146 -179 308l149 290h-201l-111 -237h-57v477h-196v-838z" />
    <glyph glyph-name="lambda" unicode="&#x3bb;" horiz-adv-x="667" 
d="M667 -58q-55 93 -91 195q-55 157 -100 318q-16 54 -31 108q-17 55 -48 104q-31 46 -78 75q-56 33 -120 45q-62 11 -124 13v-148q32 -2 64 -7q35 -6 68 -21q54 -27 71 -84h-71q-58 -204 -126 -404q-34 -100 -81 -194h207q34 89 60 182q35 128 64 259q28 -131 66 -259
q27 -94 67 -182h203z" />
    <glyph glyph-name="uni03BC" unicode="&#x3bc;" horiz-adv-x="603" 
d="M282 -78q35 2 64 21q34 22 55 56q4 -29 15 -57h177q-12 50 -16 99q-6 71 -5 142v357h-196v-403q-14 -24 -37 -39q-21 -15 -46 -16q-29 0 -49 20q-18 17 -18 42v396h-196v-838h173v261q29 -40 79 -41z" />
    <glyph glyph-name="nu" unicode="&#x3bd;" horiz-adv-x="685" 
d="M477 -58q89 156 146 328q26 79 43 161q11 54 16 109h-207q-6 -101 -28 -200q-27 -117 -71 -229h-3q-19 119 -55 234q-31 102 -82 195h-233q80 -130 135 -272q61 -159 93 -326h246z" />
    <glyph glyph-name="xi" unicode="&#x3be;" horiz-adv-x="486" 
d="M20 153q0 -37 10 -72q14 -41 44 -71q33 -29 75 -44q48 -17 100 -23q-23 -75 -57 -147l206 -2q45 133 68 270l-17 21q-50 -5 -99 0q-39 5 -76 22q-29 13 -47 40q-11 20 -11 43q0 51 34 89q22 21 50 34q32 15 68 22l29 5l3 136h-23q-34 0 -59 21q-22 21 -22 51q0 16 6 30
q11 21 30 35q22 17 49 28q32 14 67 23l-23 121q-89 -5 -177 0q-78 3 -154 15l-25 -138q64 -11 129 -10q-45 -26 -74 -67q-23 -35 -24 -77q0 -38 23 -66q29 -33 73 -42l-1 -4q-84 -32 -134 -105q-41 -63 -41 -138z" />
    <glyph glyph-name="omicron" unicode="&#x3bf;" horiz-adv-x="631" 
d="M316 560q-51 -1 -100 -15q-59 -20 -105 -62q-44 -45 -66 -104q-24 -67 -23 -138q-1 -72 23 -139q22 -59 66 -103q46 -43 105 -62q49 -14 100 -15q50 1 99 15q59 19 104 62q44 44 66 103q24 67 24 139q0 71 -24 138q-22 59 -66 104q-45 42 -104 62q-49 14 -99 15zM316 82
q-23 0 -41 12q-20 13 -33 35q-14 26 -20 56q-4 28 -4 56q0 27 4 55q6 30 20 56q13 21 33 35q18 12 41 13q21 -1 40 -13q19 -14 32 -35q14 -26 20 -56q4 -28 5 -55q-1 -28 -5 -56q-6 -30 -20 -56q-13 -21 -32 -35q-19 -12 -40 -12z" />
    <glyph glyph-name="pi" unicode="&#x3c0;" horiz-adv-x="691" 
d="M5 510v-144q35 32 84 34h20v-230q0 -62 -15 -122q-16 -58 -55 -106h221q28 50 36 106q10 77 9 155v197h127v-458h196v458h58v140h-564q-35 0 -68 -8q-27 -6 -49 -22z" />
    <glyph glyph-name="rho" unicode="&#x3c1;" horiz-adv-x="615" 
d="M327 560q-69 0 -132 -25q-57 -25 -96 -74q-41 -54 -56 -121q-14 -59 -13 -120v-219q0 -85 -7 -171q-4 -64 -17 -128h204q9 58 12 116q4 81 6 161q62 -54 146 -57q40 1 78 16q47 21 78 62q33 47 47 104q15 68 16 139q0 72 -21 141q-18 58 -58 103q-41 41 -95 59
q-45 13 -92 14zM311 400q20 -1 38 -12q18 -13 28 -33q12 -25 16 -54q3 -26 4 -53q0 -38 -8 -74q-6 -28 -20 -54q-23 -37 -65 -38q-27 0 -48 15t-30 39v131q-1 24 4 48q5 26 18 48q22 35 63 37z" />
    <glyph glyph-name="sigma" unicode="&#x3c3;" horiz-adv-x="685" 
d="M316 560q-51 -1 -100 -15q-59 -20 -105 -62q-44 -45 -66 -104q-24 -67 -23 -138q-1 -72 23 -139q22 -59 66 -103q46 -43 105 -62q49 -14 100 -15q50 1 99 15q59 19 104 62q44 44 66 103q24 67 24 139q1 97 -45 183q58 -1 116 6v130q-72 -8 -144 -8q-87 0 -174 5
q-23 3 -46 3zM316 82q-23 0 -41 12q-20 13 -33 35q-14 26 -20 56q-4 28 -4 56q0 27 4 55q6 30 20 56q13 21 33 35q18 12 41 13q21 -1 40 -13q19 -14 32 -35q14 -26 20 -56q4 -28 5 -55q-1 -28 -5 -56q-6 -30 -20 -56q-13 -21 -32 -35q-19 -12 -40 -12z" />
    <glyph glyph-name="tau" unicode="&#x3c4;" horiz-adv-x="564" 
d="M375 -78q85 2 169 23l-22 141q-36 -9 -72 -9q-21 0 -40 6q-16 5 -27 18q-10 14 -13 31q-5 23 -4 48v220h193v140h-554v-140h165v-249q-1 -50 13 -98q13 -42 43 -74q31 -32 73 -46q37 -10 76 -11z" />
    <glyph glyph-name="upsilon" unicode="&#x3c5;" horiz-adv-x="642" 
d="M381 540q24 -55 32 -113q10 -65 10 -131v-79q-1 -24 -5 -48q-6 -26 -20 -48q-27 -38 -73 -39q-47 1 -74 39q-27 44 -25 96v323h-196v-319q-1 -55 12 -108q15 -59 54 -106q40 -42 95 -63q65 -22 134 -22q52 1 102 14q59 17 105 57q43 40 65 96q23 64 23 132v63
q-1 65 -13 130q-11 65 -37 126h-189z" />
    <glyph glyph-name="phi" unicode="&#x3c6;" horiz-adv-x="803" 
d="M504 324q-2 29 9 55q10 20 33 21q11 -1 20 -10q10 -13 15 -29q13 -52 12 -106q1 -59 -26 -110q-22 -38 -63 -52v231zM25 262q0 -55 13 -108q17 -60 57 -107q39 -44 93 -69q59 -26 123 -36v-240h196v240q64 14 124 43q50 27 87 72q35 47 48 104q11 50 12 102
q-1 52 -12 104q-15 57 -49 105q-33 42 -80 65q-48 22 -101 23q-44 -1 -86 -14q-46 -15 -80 -50q-31 -33 -45 -76q-14 -41 -14 -85v-244q-45 13 -66 54q-13 25 -19 53q-6 31 -5 64q2 143 94 254l-142 44q-67 -58 -107 -135t-41 -163z" />
    <glyph glyph-name="chi" unicode="&#x3c7;" horiz-adv-x="692" 
d="M4 -185h206l112 234l57 -105q39 -74 97 -135h216q-54 53 -98 113q-52 70 -95 146l-61 107l200 365h-188l-112 -214l-42 85q-3 4 -5 9q-19 39 -41 75q-15 25 -35 45h-215q36 -33 65 -72q34 -48 64 -100q9 -16 19 -31l72 -122z" />
    <glyph glyph-name="psi" unicode="&#x3c8;" horiz-adv-x="869" 
d="M347 -298h198v248q70 12 131 48q34 22 62 53q27 33 46 71q20 41 32 85q13 49 20 100q13 116 13 233h-184q1 -91 -5 -182q-4 -67 -20 -132q-12 -48 -43 -86q-23 -24 -52 -37v437h-198v-437q-55 16 -83 65q-16 29 -23 62q-8 35 -7 71q1 74 -15 146q-11 50 -37 93h-182
q56 -116 54 -245q-1 -71 20 -137q20 -60 62 -108q44 -47 104 -72q51 -21 107 -29v-247z" />
    <glyph glyph-name="omega" unicode="&#x3c9;" horiz-adv-x="950" 
d="M471 83q25 -68 84 -108q56 -34 122 -33q55 1 105 25q50 26 83 69q36 52 50 113q12 55 13 111q-1 73 -25 142q-26 73 -66 138h-177q28 -58 43 -120q18 -72 21 -146q-1 -36 -7 -71q-5 -31 -18 -61q-10 -23 -30 -40q-14 -10 -31 -10q-18 0 -33 10q-21 17 -31 42
q-14 30 -19 63q-6 37 -6 75v177h-161v-178q1 -69 -24 -132q-11 -27 -32 -46q-17 -11 -36 -11q-17 0 -30 9q-19 16 -28 39q-11 30 -16 61q-5 37 -4 74q1 74 21 146q16 63 48 119h-178q-40 -65 -64 -138q-23 -69 -23 -142q0 -57 12 -112q14 -61 50 -112q32 -44 81 -69
q49 -24 104 -25q64 -1 119 34q27 19 47 44q21 30 36 63z" />
    <glyph glyph-name="uni0401" unicode="&#x401;" horiz-adv-x="583" 
d="M30 -58h533v160h-333v172h289v144h-289v159h332v160h-532v-795zM102 800h142v140h-142v-140zM364 800h143v140h-143v-140z" />
    <glyph glyph-name="uni0410" unicode="&#x410;" horiz-adv-x="750" 
d="M741 -58l-214 795h-305l-213 -795h217l37 155h223l37 -155h218zM374 564h2l72 -307h-147z" />
    <glyph glyph-name="uni0411" unicode="&#x411;" horiz-adv-x="680" 
d="M230 416v161h338v160h-538v-795h360q46 1 90 12q53 14 96 46q40 32 62 77q22 50 23 104q0 52 -21 101q-20 45 -57 77q-40 32 -90 46q-43 10 -87 11h-176zM230 102v183h122q41 0 74 -25t35 -66q-1 -42 -32 -70q-30 -23 -68 -22h-131z" />
    <glyph glyph-name="uni0412" unicode="&#x412;" horiz-adv-x="676" 
d="M390 -58q60 1 117 17q49 15 88 47q36 33 53 79q12 38 13 78q0 65 -37 118q-21 28 -51 47q-33 21 -70 31v3q53 16 89 59q38 49 39 112q-1 85 -65 141q-40 32 -89 46q-59 16 -119 17h-328v-795h360zM230 416v161h108q38 0 68 -24q24 -22 25 -54q-1 -34 -25 -58
q-30 -26 -70 -25h-106zM230 102v183h122q41 0 74 -25t35 -66q-1 -42 -32 -70q-30 -23 -68 -22h-131z" />
    <glyph glyph-name="uni0413" unicode="&#x413;" horiz-adv-x="598" 
d="M26 737v-795h200v625h362v170h-562z" />
    <glyph glyph-name="uni0414" unicode="&#x414;" horiz-adv-x="881" 
d="M10 102v-341h114l24 181h586l21 -181h116v341h-89v635h-592v-236q0 -111 -22 -219q-20 -96 -69 -180h-89zM390 458v120h192v-476h-257q64 172 65 356z" />
    <glyph glyph-name="uni0415" unicode="&#x415;" horiz-adv-x="583" 
d="M30 -58h533v160h-333v172h289v144h-289v159h332v160h-532v-795z" />
    <glyph glyph-name="uni0416" unicode="&#x416;" horiz-adv-x="1198" 
d="M499 -58h200v313h65q46 -96 101 -186q41 -67 89 -127h244q-158 187 -275 403l215 392h-205l-172 -322h-62v322h-200v-322h-63l-171 322h-205l215 -392q-118 -216 -275 -403h244q47 61 88 127q54 91 102 186h65v-313z" />
    <glyph glyph-name="uni0417" unicode="&#x417;" horiz-adv-x="583" 
d="M422 357q54 25 89 73q36 52 37 116q-2 39 -17 76q-24 46 -66 75q-46 30 -100 45q-57 14 -116 15q-121 -2 -229 -52l11 -140q86 26 176 28q52 -1 99 -24q19 -10 33 -28q8 -13 9 -27q-2 -41 -33 -68q-40 -29 -90 -28h-88v-137h89q56 1 103 -29q37 -25 39 -68
q-2 -47 -42 -72q-25 -14 -53 -21q-32 -7 -65 -6q-50 0 -98 9q-43 8 -84 25l-10 -150q45 -22 95 -32q56 -13 115 -15q75 0 149 18q61 15 111 50q44 33 66 83q15 40 16 84q0 62 -33 114q-20 29 -47 49q-31 22 -66 37z" />
    <glyph glyph-name="uni0418" unicode="&#x418;" horiz-adv-x="696" 
d="M30 -58h296l137 611h3v-611h200v795h-300l-133 -583h-3v583h-200v-795z" />
    <glyph glyph-name="uni0419" unicode="&#x419;" horiz-adv-x="696" 
d="M30 737h200v-583h3l133 583h300v-795h-200v611h-3l-137 -611h-296v795zM426 966q-6 -27 -26 -46q-21 -20 -50 -19q-30 -1 -52 19q-20 18 -24 46h-117q3 -42 21 -80q17 -35 46 -61q54 -46 126 -45q71 -1 125 45q29 26 46 61q17 38 22 80h-117z" />
    <glyph glyph-name="uni041A" unicode="&#x41a;" horiz-adv-x="739" 
d="M230 737h-200v-795h200v313h75q46 -96 101 -186q41 -67 89 -127h244q-158 187 -275 403l215 392h-205l-172 -322h-72v322z" />
    <glyph glyph-name="uni041B" unicode="&#x41b;" horiz-adv-x="764" 
d="M0 -62h237q43 109 63 225q22 135 22 273v141h212v-635h200v795h-612v-248q1 -152 -28 -300q-29 -133 -94 -251z" />
    <glyph glyph-name="uni041C" unicode="&#x41c;" horiz-adv-x="874" 
d="M30 -58h200v585h3l118 -585h173l116 585h4v-585h200v795h-304l-103 -573l-103 573h-304v-795z" />
    <glyph glyph-name="uni041D" unicode="&#x41d;" horiz-adv-x="702" 
d="M472 737v-314h-242v314h-200v-795h200v321h242v-321h200v795h-200z" />
    <glyph glyph-name="uni041E" unicode="&#x41e;" horiz-adv-x="802" 
d="M402 757q-81 -1 -154 -34q-73 -34 -125 -95q-54 -66 -79 -148q-18 -70 -19 -142q0 -73 19 -142q23 -82 77 -148q52 -59 124 -93q75 -32 157 -33q81 1 156 33q72 34 123 93q53 66 77 148q17 70 19 142q-2 72 -19 142q-24 82 -77 148q-51 61 -123 95q-75 33 -156 34z
M402 95q-38 0 -72 17q-35 19 -59 52q-26 40 -37 86q-9 43 -9 88q0 43 9 86q11 47 37 87q24 33 59 53q34 18 72 19q37 -1 70 -18q35 -20 58 -53q26 -40 37 -87q9 -43 10 -87q-1 -45 -10 -88q-11 -46 -37 -86q-24 -32 -58 -52q-33 -17 -70 -17z" />
    <glyph glyph-name="uni041F" unicode="&#x41f;" horiz-adv-x="701" 
d="M230 -58v635h241v-635h200v795h-641v-795h200z" />
    <glyph glyph-name="uni0420" unicode="&#x420;" horiz-adv-x="675" 
d="M30 -58h200v242h50q72 0 144 13q38 8 74 22q31 14 58 33q49 37 73 92q23 58 23 121q-1 56 -20 108q-21 52 -62 91q-48 41 -109 58q-58 14 -116 15h-315v-795zM230 344v233h96q27 -1 53 -10q23 -9 41 -26q32 -35 32 -82q0 -50 -37 -83q-20 -17 -45 -25q-27 -7 -55 -7h-85z
" />
    <glyph glyph-name="uni0421" unicode="&#x421;" horiz-adv-x="670" 
d="M604 117q-36 -19 -76 -27q-41 -8 -83 -8q-95 1 -159 71q-34 40 -49 91q-12 46 -12 94t11 94q14 51 47 93q64 70 159 72q87 1 170 -29l7 149q-93 39 -194 40q-46 -1 -90 -9q-42 -9 -81 -25q-76 -33 -131 -95q-55 -66 -79 -148q-18 -70 -19 -142q0 -74 19 -144
q13 -42 34 -81q20 -36 47 -67q56 -60 133 -92q83 -32 172 -32q65 1 129 15q50 12 95 36z" />
    <glyph glyph-name="uni0422" unicode="&#x422;" horiz-adv-x="611" 
d="M206 -58h200v635h200v160h-601v-160h201v-635z" />
    <glyph glyph-name="uni0423" unicode="&#x423;" horiz-adv-x="615" 
d="M412 737l-103 -398l-102 398h-207l185 -555h71q-15 -51 -60 -77q-30 -17 -63 -25q-42 -9 -84 -10l-6 -148q62 2 124 13q66 13 124 45q48 28 82 74q32 49 50 105l192 578h-203z" />
    <glyph glyph-name="uni0424" unicode="&#x424;" horiz-adv-x="802" 
d="M321 -58h160v84q65 9 125 37q55 26 97 70q41 46 59 105q14 49 15 100q-1 51 -15 101q-18 59 -59 105q-42 45 -97 71q-60 27 -125 38v84h-160v-85q-65 -11 -125 -38q-55 -26 -97 -71q-41 -46 -60 -104q-14 -50 -14 -101q0 -52 14 -101q18 -59 59 -104q42 -45 97 -71
q60 -27 126 -36v-84zM582 338q0 -52 -25 -97q-27 -44 -76 -61v310q49 -14 76 -57q25 -44 25 -95zM220 338q-1 50 24 93q28 43 77 58v-309q-50 16 -77 61q-25 45 -24 97z" />
    <glyph glyph-name="uni0425" unicode="&#x425;" horiz-adv-x="736" 
d="M736 -58l-229 406l208 389h-211l-136 -275l-136 275h-211l208 -389l-229 -406h214l154 290l154 -290h214z" />
    <glyph glyph-name="uni0426" unicode="&#x426;" horiz-adv-x="816" 
d="M30 737v-795h644l21 -181h116v341h-140v635h-200v-635h-241v635h-200z" />
    <glyph glyph-name="uni0427" unicode="&#x427;" horiz-adv-x="669" 
d="M211 162q130 2 231 87v-307h197v795h-200v-355q-27 -30 -63 -45q-32 -15 -67 -15q-35 -1 -60 23q-20 24 -19 56v336h-200v-379q0 -34 8 -67q11 -38 36 -70q24 -28 59 -44q37 -16 78 -15z" />
    <glyph glyph-name="uni0428" unicode="&#x428;" horiz-adv-x="1042" 
d="M30 737v-795h982v795h-200v-635h-191v635h-200v-636h-191v636h-200z" />
    <glyph glyph-name="uni0429" unicode="&#x429;" horiz-adv-x="1157" 
d="M30 737v-795h985l21 -181h116v341h-140v635h-200v-635h-191v635h-200v-636h-191v636h-200z" />
    <glyph glyph-name="uni042A" unicode="&#x42a;" horiz-adv-x="795" 
d="M5 737v-160h189v-635h321q45 1 90 12q51 14 94 46q38 32 60 77q21 50 21 104q-1 94 -67 161q-38 36 -87 54q-56 20 -115 20h-117v321h-389zM394 102v183h83q40 0 72 -25q30 -26 31 -66q0 -41 -29 -70q-28 -23 -65 -22h-92z" />
    <glyph glyph-name="uni042B" unicode="&#x42b;" horiz-adv-x="917" 
d="M230 416v321h-200v-795h319q45 1 89 12q52 14 94 46q38 32 59 77q21 50 21 104q-1 39 -13 78q-17 47 -53 83q-38 36 -87 54q-55 20 -114 20h-115zM230 102v183h81q40 0 71 -25q29 -27 30 -66q0 -41 -28 -70q-28 -23 -64 -22h-90zM687 -58h200v795h-200v-795z" />
    <glyph glyph-name="uni042C" unicode="&#x42c;" horiz-adv-x="664" 
d="M230 416v321h-200v-795h349q45 1 90 12q53 14 96 46q40 32 62 77q21 50 22 104q-1 95 -69 161q-39 36 -89 54q-57 19 -116 20h-145zM230 102v183h111q41 0 74 -25q32 -26 34 -66q-1 -42 -31 -70q-30 -23 -68 -22h-120z" />
    <glyph glyph-name="uni042D" unicode="&#x42d;" horiz-adv-x="637" 
d="M16 -10q43 -23 91 -33q61 -14 124 -15q83 1 161 31q72 30 125 88q53 62 76 141q17 67 19 136q-2 68 -19 134q-22 78 -75 141q-51 59 -123 91q-77 32 -160 33q-114 -1 -215 -52l47 -142q67 34 143 34q40 -1 79 -13q37 -14 66 -40q30 -29 47 -68q13 -34 19 -70h-272v-105
h270q-7 -35 -22 -67q-18 -36 -48 -64q-58 -48 -133 -48q-41 0 -80 8q-38 7 -72 26z" />
    <glyph glyph-name="uni042E" unicode="&#x42e;" horiz-adv-x="1090" 
d="M30 -58h200v317h108q8 -60 30 -116q28 -67 78 -120q50 -48 114 -74q67 -26 140 -27q80 1 154 33q70 34 120 93q51 67 73 148q16 70 18 142q-2 72 -18 142q-22 81 -73 148q-49 61 -120 95q-74 33 -154 34q-71 -1 -137 -27q-64 -27 -113 -76q-51 -53 -80 -120
q-23 -56 -31 -115h-109v318h-200v-795zM700 95q-36 0 -68 17q-33 20 -55 52q-26 40 -36 86q-8 43 -8 88q0 43 8 86q11 47 36 87q22 33 55 53q32 18 68 19q35 -1 66 -18q33 -21 55 -53q24 -40 35 -87q8 -43 9 -87q-1 -44 -9 -88q-11 -46 -36 -86q-22 -32 -55 -52
q-30 -17 -65 -17z" />
    <glyph glyph-name="uni042F" unicode="&#x42f;" horiz-adv-x="717" 
d="M245 -58q40 56 73 115q45 84 82 173h86v-288h201v795h-341q-46 -1 -91 -13q-54 -16 -99 -52q-88 -74 -90 -189q0 -70 36 -128q41 -62 108 -96q-43 -78 -92 -151q-57 -85 -118 -166h245zM486 374h-102q-49 -1 -86 29q-32 29 -32 73q0 43 34 72q36 28 83 29h103v-203z" />
    <glyph glyph-name="uni0430" unicode="&#x430;" horiz-adv-x="592" 
d="M288 560q-114 -3 -220 -42v-136q86 23 177 24q23 -1 46 -6q20 -4 36 -15q27 -19 28 -52v-33h-105q-52 0 -102 -15q-41 -13 -73 -42q-30 -30 -43 -69q-10 -34 -10 -69q-1 -42 12 -82q12 -33 36 -58q26 -24 59 -35q28 -7 58 -8q48 1 91 22q46 23 81 60q5 -31 16 -62h207
q-15 49 -20 98q-10 66 -11 133v185q-1 36 -11 72q-15 42 -48 71q-37 31 -84 44q-59 15 -120 15zM355 104q-35 -34 -82 -36q-25 -1 -42 17q-14 18 -13 41q-2 33 23 55q27 17 60 16h54v-93z" />
    <glyph glyph-name="uni0431" unicode="&#x431;" horiz-adv-x="630" 
d="M384 462q-88 -1 -153 -57q3 32 13 64q8 28 25 52q33 44 87 56q99 12 192 51v129q-109 -33 -220 -47q-62 -11 -118 -37q-65 -35 -109 -94q-42 -63 -61 -136q-19 -81 -18 -164q-1 -65 12 -127q8 -36 22 -70q14 -30 33 -57q38 -50 96 -76q31 -13 63 -20q36 -6 73 -7
q64 0 125 21q54 20 93 60q39 44 55 101q13 49 14 101q-1 44 -11 87q-13 50 -44 91q-30 38 -73 58q-46 20 -96 21zM327 69q-40 1 -65 32q-15 20 -23 43q-9 28 -11 57q-3 36 0 74q37 49 99 50q44 -1 69 -38q12 -21 17 -45q4 -23 5 -46q-1 -25 -5 -49q-5 -24 -18 -45
q-26 -34 -68 -33z" />
    <glyph glyph-name="uni0432" unicode="&#x432;" horiz-adv-x="620" 
d="M381 -58q36 1 72 9q41 10 76 33q65 49 66 131q0 48 -31 85q-19 21 -43 34q-29 14 -59 22v3q49 14 82 53q25 35 25 79q-2 62 -49 103q-30 22 -65 34q-41 11 -83 12h-342v-598h351zM230 301v99h87q23 0 41 -14q15 -14 15 -35q0 -23 -16 -39q-16 -12 -37 -11h-90zM230 82
l-1 121h104q27 0 48 -17q17 -17 18 -41q0 -26 -18 -45q-20 -18 -46 -18h-105z" />
    <glyph glyph-name="uni0433" unicode="&#x433;" horiz-adv-x="495" 
d="M30 540v-598h196v458h264v140h-460z" />
    <glyph glyph-name="uni0434" unicode="&#x434;" horiz-adv-x="695" 
d="M10 82v-288h104l21 147h426l19 -147h105v288h-54v458h-506v-143q2 -96 -17 -189q-14 -67 -48 -126h-50zM321 353v51h114v-322h-160q23 59 34 122q12 74 12 149z" />
    <glyph glyph-name="uni0435" unicode="&#x435;" horiz-adv-x="613" 
d="M589 190q2 29 2 60q0 69 -21 135q-20 57 -61 101q-41 41 -96 59q-46 14 -94 15q-53 -1 -103 -15q-60 -18 -106 -60q-44 -44 -66 -103q-23 -69 -22 -141q0 -56 14 -110q18 -63 60 -113q43 -46 101 -71q64 -25 134 -25q61 0 121 16q61 17 112 53l-43 132q-37 -19 -77 -30
q-39 -11 -79 -11q-30 -1 -58 7q-25 8 -46 24q-36 30 -43 77h371zM217 304q3 40 30 69q29 27 68 27t66 -28q23 -30 25 -68h-189z" />
    <glyph glyph-name="uni0436" unicode="&#x436;" horiz-adv-x="1033" 
d="M416 -58h196v260h31q40 -86 85 -170q26 -46 59 -90h246q-129 153 -225 329l186 318h-224l-130 -267h-28v267h-196v-267h-28l-129 267h-213l179 -318q-97 -176 -225 -329h242q31 44 57 90q34 63 66 127q10 21 21 43h30v-260z" />
    <glyph glyph-name="uni0437" unicode="&#x437;" horiz-adv-x="507" 
d="M362 253q51 19 86 61q24 34 25 76q-1 38 -19 71q-21 34 -54 56q-39 24 -84 34q-40 8 -80 9q-116 -2 -222 -45l10 -136q74 20 151 21q37 1 72 -13q13 -6 22 -17q7 -8 8 -19q-3 -23 -23 -34q-31 -15 -66 -14h-66v-108h67q42 0 79 -19q14 -8 23 -20q5 -9 6 -19
q-1 -12 -8 -22q-10 -12 -24 -18q-43 -17 -89 -15q-81 1 -157 26l-9 -144q92 -38 192 -42q53 0 106 9q55 9 104 35q38 22 61 59q20 38 20 82q-1 26 -9 51q-10 24 -28 43q-40 38 -94 52z" />
    <glyph glyph-name="uni0438" unicode="&#x438;" horiz-adv-x="668" 
d="M30 -58h292l117 414h3v-414h196v598h-296l-113 -386h-3v386h-196v-598z" />
    <glyph glyph-name="uni0439" unicode="&#x439;" horiz-adv-x="668" 
d="M422 780q-6 -27 -26 -46q-21 -20 -50 -19q-30 -1 -52 19q-20 18 -24 46h-117q3 -42 21 -80q17 -35 46 -61q54 -46 126 -45q71 -1 125 45q29 26 46 61q17 38 22 80h-117zM30 540h196v-386h3l113 386h296v-598h-196v414h-3l-117 -414h-292v598z" />
    <glyph glyph-name="uni043A" unicode="&#x43a;" horiz-adv-x="625" 
d="M30 -58h196v240h55q53 -127 130 -240h214q-102 146 -179 308l149 290h-201l-111 -237h-57v477h-196v-838z" />
    <glyph glyph-name="uni043B" unicode="&#x43b;" horiz-adv-x="689" 
d="M0 -58h233q38 93 54 193q15 106 14 214v51h162v-458h196v598h-554v-138q1 -132 -27 -259q-26 -106 -78 -201z" />
    <glyph glyph-name="uni043C" unicode="&#x43c;" horiz-adv-x="718" 
d="M30 -58h161v388h2l95 -388h142l94 388h3v-388h161v598h-247l-82 -376l-82 376h-247v-598z" />
    <glyph glyph-name="uni043D" unicode="&#x43d;" horiz-adv-x="654" 
d="M428 540v-196h-202v196h-196v-598h196v242h202v-242h196v598h-196z" />
    <glyph glyph-name="uni043E" unicode="&#x43e;" horiz-adv-x="637" 
d="M319 560q-51 -1 -100 -15q-59 -20 -105 -62q-44 -45 -66 -104q-24 -67 -23 -138q-1 -72 23 -139q22 -59 66 -103q46 -43 105 -62q49 -14 100 -15q50 1 99 15q59 19 104 62q44 44 66 103q24 67 24 139q0 71 -24 138q-22 59 -66 104q-45 42 -104 62q-49 14 -99 15zM319 85
q-22 0 -41 11q-20 13 -33 34q-14 26 -20 55q-4 28 -4 56q0 27 4 54q6 29 20 55q13 20 33 33q19 11 41 12q21 -1 40 -12q19 -13 32 -33q14 -26 20 -55q4 -27 5 -54q-1 -28 -5 -56q-6 -29 -20 -55q-13 -20 -32 -34q-19 -11 -40 -11z" />
    <glyph glyph-name="uni043F" unicode="&#x43f;" horiz-adv-x="633" 
d="M226 -58v458h181v-458h196v598h-573v-598h196z" />
    <glyph glyph-name="uni0440" unicode="&#x440;" horiz-adv-x="619" 
d="M382 560q-43 -2 -81 -21q-45 -22 -75 -61v62h-192v-539q0 -85 -7 -171q-4 -64 -17 -128h204q9 58 12 116q4 81 6 161q33 -25 71 -41q36 -15 75 -16q40 1 78 16q47 21 78 62q33 47 47 104q15 68 16 139q-1 69 -17 137q-15 56 -49 103q-30 41 -76 62q-36 14 -73 15z
M307 398q21 -1 40 -11q18 -13 28 -33q12 -25 17 -53q3 -27 4 -53q0 -37 -7 -72q-5 -27 -18 -50q-23 -34 -63 -34q-45 3 -78 34v229q28 39 77 43z" />
    <glyph glyph-name="uni0441" unicode="&#x441;" horiz-adv-x="536" 
d="M334 -78q53 0 104 12t95 40l-48 140q-55 -32 -118 -31q-31 0 -59 11q-28 13 -48 35q-39 49 -38 112q0 27 7 53q9 30 31 53q20 21 48 32q28 10 59 11q57 -2 111 -24l47 143q-47 25 -100 37q-50 13 -102 14q-68 0 -131 -25q-57 -24 -98 -71q-41 -50 -58 -113
q-14 -55 -14 -110q0 -57 14 -112q19 -64 63 -114q43 -45 101 -69q65 -24 134 -24z" />
    <glyph glyph-name="uni0442" unicode="&#x442;" horiz-adv-x="564" 
d="M366 -58v458h193v140h-554v-140h165v-458h196z" />
    <glyph glyph-name="uni0443" unicode="&#x443;" horiz-adv-x="615" 
d="M412 540l-103 -441l-102 441h-207l185 -598h71q-15 -50 -60 -76q-30 -17 -63 -25q-42 -9 -84 -11l-6 -148q62 2 124 13q66 13 124 45q48 29 82 75q32 49 50 104l192 621h-203z" />
    <glyph glyph-name="uni0444" unicode="&#x444;" horiz-adv-x="1034" 
d="M419 -298h195v231q44 -11 91 -11q68 0 132 24q58 24 100 69q42 50 60 114q14 55 15 112q-1 55 -14 110q-17 63 -57 113q-40 47 -96 71q-62 25 -129 25q-53 -1 -102 -17v194h-195v-193q-50 16 -101 16q-68 0 -130 -25q-56 -24 -96 -71q-40 -50 -57 -113q-13 -55 -13 -110
q0 -57 14 -112q18 -64 60 -114q42 -45 100 -69q64 -24 133 -24q45 -1 90 10v-230zM672 390q29 -1 58 -11q26 -11 46 -32q20 -23 28 -53q7 -26 8 -53q-1 -29 -8 -56q-9 -31 -29 -56q-41 -46 -103 -46q-31 -2 -58 11v284q27 12 58 12zM362 83q-63 0 -104 46q-21 25 -29 56
q-7 27 -7 56q0 27 7 53q8 30 28 53q20 21 46 32q29 10 59 11q29 0 57 -11v-286q-28 -12 -57 -10z" />
    <glyph glyph-name="uni0445" unicode="&#x445;" horiz-adv-x="617" 
d="M0 -57h211l98 200l91 -200h217l-175 303l165 294h-198l-99 -201l-85 201h-213l165 -295z" />
    <glyph glyph-name="uni0446" unicode="&#x446;" horiz-adv-x="745" 
d="M30 540v-598h165v-1h421l19 -147h105v298h-102v448h-196v-448h-216v448h-196z" />
    <glyph glyph-name="uni0447" unicode="&#x447;" horiz-adv-x="661" 
d="M207 80q130 2 231 87v-225h193v598h-196v-240q-27 -30 -63 -45q-32 -15 -67 -15q-35 -1 -60 23q-20 24 -19 56v221h-196v-264q0 -34 8 -67q10 -38 34 -70q24 -28 57 -44q37 -16 78 -15z" />
    <glyph glyph-name="uni0448" unicode="&#x448;" horiz-adv-x="914" 
d="M30 540v-598h854v598h-196v-438h-133v438h-196v-439h-133v439h-196z" />
    <glyph glyph-name="uni0449" unicode="&#x449;" horiz-adv-x="992" 
d="M30 540v-598h412v-1h421l19 -147h105v298h-103v448h-196v-448h-133v448h-196v-448h-133v448h-196z" />
    <glyph glyph-name="uni044A" unicode="&#x44a;" horiz-adv-x="773" 
d="M5 540v-139h193v-459h313q41 1 82 10q47 11 86 39q34 26 53 66q18 43 19 90q-1 82 -59 139q-34 30 -77 45q-48 16 -98 17h-123v192h-389zM394 82v127h82q30 0 55 -16q23 -19 24 -48q-1 -27 -20 -44q-25 -20 -56 -19h-85z" />
    <glyph glyph-name="uni044B" unicode="&#x44b;" horiz-adv-x="869" 
d="M643 -58h196v598h-196v-598zM226 348v192h-196v-598h313q41 1 82 10q47 11 86 39q34 26 53 66q18 43 19 90q-1 82 -59 139q-34 30 -77 45q-48 16 -98 17h-123zM226 82v127h82q30 0 55 -16q23 -19 24 -48q-1 -27 -20 -44q-25 -20 -56 -19h-85z" />
    <glyph glyph-name="uni044C" unicode="&#x44c;" horiz-adv-x="605" 
d="M226 348v192h-196v-598h313q41 1 82 10q47 11 86 39q34 26 53 66q18 43 19 90q-1 82 -59 139q-34 30 -77 45q-48 16 -98 17h-123zM226 82v127h82q30 0 55 -16q23 -19 24 -48q-1 -27 -20 -44q-25 -20 -56 -19h-85z" />
    <glyph glyph-name="uni044D" unicode="&#x44d;" horiz-adv-x="536" 
d="M202 -78q68 0 133 24q58 24 101 69q44 50 63 114q14 55 15 112q-1 55 -15 110q-17 63 -58 113q-41 47 -98 71q-63 25 -130 25q-107 -2 -202 -47l47 -142q52 27 112 29q50 0 89 -31q35 -30 48 -74h-194v-105h194q-12 -46 -47 -77q-40 -31 -90 -31q-64 -1 -119 32l-48 -140
q44 -28 96 -40q50 -12 103 -12z" />
    <glyph glyph-name="uni044E" unicode="&#x44e;" horiz-adv-x="920" 
d="M226 540h-196v-598h196v248h88q6 -62 33 -118q25 -50 67 -86q45 -36 99 -51q45 -12 92 -13q50 1 99 15q59 19 104 62q44 44 66 103q24 67 24 139q0 71 -24 138q-22 59 -66 104q-45 42 -104 62q-49 14 -99 15q-47 -1 -91 -13q-55 -15 -98 -51t-68 -86q-27 -55 -34 -115
h-88v245zM605 85q-22 0 -41 11q-20 13 -33 34q-14 26 -20 55q-4 28 -4 56q0 27 4 54q6 29 20 55q13 20 33 33q19 11 41 12q21 -1 40 -12q19 -13 32 -33q14 -26 20 -55q4 -27 5 -54q-1 -28 -5 -56q-6 -29 -20 -55q-13 -20 -32 -34q-19 -11 -40 -11z" />
    <glyph glyph-name="uni044F" unicode="&#x44f;" horiz-adv-x="594" 
d="M202 -58q67 96 111 205h65v-205h186v598h-300q-49 -1 -95 -17q-41 -15 -73 -44q-56 -54 -57 -130q-2 -59 29 -108q32 -47 85 -67q-68 -122 -153 -232h202zM378 272h-80q-26 0 -45 18q-19 19 -18 46q0 25 18 44q21 19 50 20h75v-128z" />
    <glyph glyph-name="uni0451" unicode="&#x451;" horiz-adv-x="613" 
d="M589 190q2 29 2 60q0 69 -21 135q-20 57 -61 101q-41 41 -96 59q-46 14 -94 15q-53 -1 -103 -15q-60 -18 -106 -60q-44 -44 -66 -103q-23 -69 -22 -141q0 -56 14 -110q18 -63 60 -113q43 -46 101 -71q64 -25 134 -25q61 0 121 16q61 17 112 53l-43 132q-37 -19 -77 -30
q-39 -11 -79 -11q-30 -1 -58 7q-25 8 -46 24q-36 30 -43 77h371zM217 304q2 44 29 78q27 31 69 32q41 0 67 -32q23 -36 24 -78h-189zM106 640h142v140h-142v-140zM368 640h143v140h-143v-140z" />
    <glyph glyph-name="uni1E3F" unicode="&#x1e3f;" horiz-adv-x="933" 
d="M734 560q-50 -2 -94 -24q-53 -26 -93 -69q-18 41 -55 66q-44 27 -96 27q-50 -2 -94 -23q-52 -25 -88 -68q-5 36 -15 71h-189q11 -55 15 -110q5 -70 6 -140v-348h196v404q14 22 36 37t48 17q25 -1 42 -20q15 -18 16 -42v-396h196v406q17 23 41 38q19 12 42 14
q25 -1 43 -19q15 -19 15 -43v-396h197v435q-1 31 -8 62q-10 36 -33 65q-23 27 -55 41q-35 14 -73 15zM542 604l131 176h-177l-105 -176h151z" />
    <glyph glyph-name="uni2010" unicode="&#x2010;" horiz-adv-x="500" 
d="M500 382h-500v-150h500v150z" />
    <glyph glyph-name="endash" unicode="&#x2013;" 
d="M676 382h-337v-150h337v150z" />
    <glyph glyph-name="emdash" unicode="&#x2014;" 
d="M1000 382h-1000v-150h1000v150z" />
    <glyph glyph-name="uni2015" unicode="&#x2015;" 
d="M1000 382h-1000v-150h1000v150z" />
    <glyph glyph-name="uni2016" unicode="&#x2016;" 
d="M455 800h-200v-858h200v858zM745 800h-200v-858h200v858z" />
    <glyph glyph-name="quoteleft" unicode="&#x2018;" 
d="M806 870q-47 -4 -90 -21q-37 -17 -64 -47q-26 -31 -37 -71q-8 -34 -8 -68v-153h199v189h-88q1 36 24 64q30 30 73 38z" />
    <glyph glyph-name="quoteright" unicode="&#x2019;" 
d="M195 440q46 3 89 20q37 16 64 47q26 31 37 71q8 34 9 69v153h-199v-189h88q-2 -37 -25 -65q-30 -30 -72 -37z" />
    <glyph glyph-name="quotesinglbase" unicode="&#x201a;" 
d="M195 -229q46 4 89 21q37 17 64 47q26 31 37 71q8 34 9 68v153h-199v-189h88q-2 -36 -25 -64q-30 -30 -72 -38z" />
    <glyph glyph-name="quotedblleft" unicode="&#x201c;" 
d="M886 870q-47 -4 -90 -21q-37 -17 -64 -47q-26 -31 -37 -71q-8 -34 -8 -68v-153h199v189h-88q1 36 24 64q30 30 73 38zM626 870q-47 -4 -90 -21q-37 -17 -64 -47q-26 -31 -37 -71q-8 -34 -8 -68v-153h199v189h-88q1 36 24 64q30 30 73 38z" />
    <glyph glyph-name="quotedblright" unicode="&#x201d;" 
d="M114 460q46 3 89 20q37 16 64 47q26 31 37 71q8 34 9 69v153h-199v-189h88q-2 -37 -25 -65q-30 -30 -72 -37zM374 460q46 3 89 20q37 16 64 47q26 31 37 71q8 34 9 69v153h-199v-189h88q-2 -37 -25 -65q-30 -30 -72 -37z" />
    <glyph glyph-name="quotedblbase" unicode="&#x201e;" 
d="M114 -229q46 4 89 21q37 17 64 47q26 31 37 71q8 34 9 68v153h-199v-189h88q-2 -36 -25 -64q-30 -30 -72 -38zM374 -229q46 4 89 21q37 17 64 47q26 31 37 71q8 34 9 68v153h-199v-189h88q-2 -36 -25 -64q-30 -30 -72 -38z" />
    <glyph glyph-name="dagger" unicode="&#x2020;" horiz-adv-x="600" 
d="M550 592h-150v145h-200v-145h-150v-150h150v-500h200v500h150v150z" />
    <glyph glyph-name="daggerdbl" unicode="&#x2021;" horiz-adv-x="600" 
d="M550 592h-150v145h-200v-145h-150v-150h150v-205h-150v-150h150v-145h200v145h150v150h-150v205h150v150z" />
    <glyph glyph-name="bullet" unicode="&#x2022;" 
d="M374 341q0 -49 32 -85q38 -40 93 -41q48 0 85 32q40 38 42 94q-1 48 -33 84q-39 40 -94 42q-55 -2 -93 -42q-32 -36 -32 -84z" />
    <glyph glyph-name="twodotenleader" unicode="&#x2025;" 
d="M183 225h191v181h-191v-181zM626 225h191v181h-191v-181z" />
    <glyph glyph-name="ellipsis" unicode="&#x2026;" 
d="M75 225h191v181h-191v-181zM404 225h191v181h-191v-181zM734 225h191v181h-191v-181z" />
    <glyph glyph-name="perthousand" unicode="&#x2030;" horiz-adv-x="1275" 
d="M332 -58l412 796h-158l-412 -796h158zM210 737q-39 -1 -74 -15q-31 -16 -53 -44q-22 -34 -30 -73q-7 -37 -7 -73q-1 -37 7 -73q8 -40 30 -73q21 -28 53 -44q35 -15 74 -14q37 -1 72 14q32 16 53 44q22 34 30 73q7 36 8 73q-1 36 -8 73q-8 39 -30 73q-21 28 -53 44
q-35 14 -72 15zM210 424q-12 0 -22 7q-12 9 -18 22q-15 38 -13 79q-2 41 13 79q7 13 18 22q10 7 22 8q11 -1 21 -8q11 -9 17 -22q15 -38 14 -79q1 -41 -14 -79q-6 -13 -17 -22q-10 -7 -21 -7zM706 351q-39 -1 -74 -15q-32 -16 -53 -44q-22 -34 -30 -73q-8 -37 -7 -73
q-1 -37 7 -73q8 -40 30 -73q21 -27 53 -43q35 -15 74 -15q37 1 72 15q31 16 53 43q22 34 30 73q7 36 8 73q-1 36 -8 73q-8 39 -30 73q-21 28 -53 44q-35 14 -72 15zM706 43q-12 0 -21 6q-11 9 -17 22q-14 36 -12 75q-2 39 12 75q6 13 17 22q9 6 21 7q11 -1 20 -7
q10 -9 16 -22q14 -36 13 -75q1 -39 -13 -75q-6 -13 -16 -22q-9 -6 -20 -6zM1076 351q-39 -1 -74 -15q-32 -16 -53 -44q-22 -34 -30 -73q-8 -37 -7 -73q-1 -37 7 -73q8 -40 30 -73q21 -27 53 -43q35 -15 74 -15q37 1 72 15q31 16 53 43q22 34 30 73q7 36 8 73q-1 36 -8 73
q-8 39 -30 73q-21 28 -53 44q-35 14 -72 15zM1076 43q-12 0 -21 6q-11 9 -17 22q-14 36 -12 75q-2 39 12 75q6 13 17 22q9 6 21 7q11 -1 20 -7q10 -9 16 -22q14 -36 13 -75q1 -39 -13 -75q-6 -13 -16 -22q-9 -6 -20 -6z" />
    <glyph glyph-name="minute" unicode="&#x2032;" horiz-adv-x="607" 
d="M276 514l171 266h-177l-110 -266h116z" />
    <glyph glyph-name="second" unicode="&#x2033;" horiz-adv-x="856" 
d="M276 514l171 266h-177l-110 -266h116zM525 514l171 266h-177l-110 -266h116z" />
    <glyph glyph-name="uni2034" unicode="&#x2034;" horiz-adv-x="986" 
d="M216 514l171 266h-177l-110 -266h116zM465 514l171 266h-177l-110 -266h116zM715 514l171 266h-177l-110 -266h116z" />
    <glyph glyph-name="uni2035" unicode="&#x2035;" horiz-adv-x="607" 
d="M447 514l-110 266h-177l171 -266h116z" />
    <glyph glyph-name="uni2036" unicode="&#x2036;" horiz-adv-x="856" 
d="M696 514l-110 266h-177l171 -266h116zM447 514l-110 266h-177l171 -266h116z" />
    <glyph glyph-name="uni2037" unicode="&#x2037;" horiz-adv-x="986" 
d="M886 514l-110 266h-177l171 -266h116zM637 514l-110 266h-177l171 -266h116zM387 514l-110 266h-177l171 -266h116z" />
    <glyph glyph-name="guilsinglleft" unicode="&#x2039;" horiz-adv-x="500" 
d="M408 -33l-141 335l143 335h-156l-165 -303v-64l165 -303h154z" />
    <glyph glyph-name="guilsinglright" unicode="&#x203a;" horiz-adv-x="500" 
d="M246 -33l165 303v64l-165 303h-156l143 -335l-141 -335h154z" />
    <glyph glyph-name="uni203B" unicode="&#x203b;" 
d="M114 633l305 -304l-312 -311l81 -81l314 313l315 -315l73 82l-309 312l310 310l-77 80l-312 -312l-307 307zM424 794v-161h157v161h-157zM424 26v-161h157v161h-157zM786 406v-159h157v159h-157zM58 406v-159h160v159h-160z" />
    <glyph glyph-name="Euro" unicode="&#x20ac;" horiz-adv-x="697" 
d="M629 125q-34 -18 -72 -26q-38 -7 -77 -7q-60 0 -111 33q-47 33 -71 86h166l21 105h-213v22q-1 16 1 33h224l26 105h-221q24 48 69 79q48 31 105 32q39 0 78 -8q38 -7 73 -25l47 134q-49 25 -103 36q-55 12 -110 13q-51 -1 -100 -12q-62 -15 -115 -50q-51 -34 -87 -84
q-38 -53 -56 -115h-83v-105h65q-2 -17 -1 -33v-22h-64v-105h80q13 -49 38 -94q32 -55 82 -95q50 -39 111 -59q65 -20 134 -21q61 1 121 15q48 10 91 33z" />
    <glyph glyph-name="uni2103" unicode="&#x2103;" 
d="M940 127q-37 -19 -78 -27t-83 -8q-44 0 -84 19q-42 21 -73 56q-62 74 -61 171q0 46 11 91q13 49 46 89q31 34 74 52q45 16 94 17q83 0 162 -29l7 159q-93 39 -194 40q-46 -1 -90 -9q-42 -9 -81 -25q-76 -33 -131 -95q-55 -66 -79 -148q-19 -70 -19 -142q0 -74 19 -144
q13 -42 34 -81q20 -36 47 -67q56 -60 133 -92q83 -32 172 -32q65 1 128 16q50 12 96 35zM186 483q71 0 120 51q40 46 41 108q-1 70 -52 118q-48 39 -109 40q-63 -1 -110 -40q-52 -48 -52 -118q0 -71 52 -120q47 -39 110 -39zM186 581q-27 0 -45 20q-15 17 -15 41q0 23 15 40
q18 20 45 21q26 -1 45 -21q16 -17 17 -40q-1 -24 -17 -41q-19 -20 -45 -20z" />
    <glyph glyph-name="uni2105" unicode="&#x2105;" 
d="M312 -58l412 796h-158l-412 -796h158zM231 355q63 -2 117 30l-28 84q-33 -18 -70 -18q-38 0 -65 27q-24 29 -23 68q-1 36 23 63q27 26 65 26q33 -2 65 -14l28 86q-57 29 -120 30q-41 -1 -79 -15q-34 -15 -59 -43q-24 -30 -35 -68q-8 -32 -8 -65q0 -35 9 -68
q11 -38 38 -67q26 -28 61 -42q39 -15 81 -14zM766 366q-34 -1 -66 -10q-40 -13 -70 -42q-29 -29 -44 -69q-16 -44 -15 -91q-1 -48 15 -93q15 -39 44 -68q30 -28 70 -41q32 -9 66 -10q33 1 65 10q38 13 68 41q29 29 43 68q15 45 16 93q-1 47 -16 91q-15 39 -43 69
q-30 28 -68 42q-32 9 -65 10zM766 49q-33 2 -49 31q-18 34 -16 74q-2 39 16 73q16 29 49 32q32 -3 47 -32q17 -35 17 -73q0 -40 -17 -74q-15 -29 -47 -31z" />
    <glyph glyph-name="uni2109" unicode="&#x2109;" 
d="M969 577v160h-532v-795h200v300h289v155h-289v180h332zM186 483q71 0 120 51q40 46 41 108q-1 70 -52 118q-48 39 -109 40q-63 -1 -110 -40q-52 -48 -52 -118q0 -71 52 -120q47 -39 110 -39zM186 581q-27 0 -45 20q-15 17 -15 41q0 23 15 40q18 20 45 21q26 -1 45 -21
q16 -17 17 -40q-1 -24 -17 -41q-19 -20 -45 -20z" />
    <glyph glyph-name="uni2116" unicode="&#x2116;" 
d="M24 -58h157v583h3l113 -583h245v795h-159v-611h-2l-116 611h-241v-795zM787 635q-43 -1 -81 -20q-37 -21 -60 -55q-26 -40 -36 -86q-8 -41 -8 -82q0 -42 8 -83q10 -47 36 -87q23 -34 60 -55q38 -19 81 -19q42 0 79 19q36 21 59 55q25 41 35 87q8 41 9 83q-1 54 -15 106
q-13 43 -41 79q-50 57 -126 58zM787 274q-15 0 -27 8q-13 10 -20 25q-16 40 -14 85q-2 44 14 84q7 15 20 25q12 8 27 9q14 -1 25 -9q13 -10 20 -25q16 -41 15 -84q1 -44 -15 -85q-7 -15 -20 -25q-11 -8 -25 -8zM631 61v-119h344v119h-344z" />
    <glyph glyph-name="uni2121" unicode="&#x2121;" 
d="M271 481h67v206h64v50h-195v-50h64v-206zM426 481h174v51h-106v57h93v48h-93v50h106v50h-174v-256zM793 529h-100v208h-67v-260h167v52z" />
    <glyph glyph-name="trademark" unicode="&#x2122;" horiz-adv-x="829" 
d="M155 380h91v287h90v70h-271v-70h90v-287zM378 380h90v262h2l53 -262h78l53 262h2v-262h90v357h-137l-47 -257l-47 257h-137v-357z" />
    <glyph glyph-name="uni2160" unicode="&#x2160;" 
d="M400 -58h200v795h-200v-795z" />
    <glyph glyph-name="uni2161" unicode="&#x2161;" 
d="M220 -58h200v795h-200v-795zM580 -58h200v795h-200v-795z" />
    <glyph glyph-name="uni2162" unicode="&#x2162;" 
d="M95 -58h200v795h-200v-795zM405 -58h200v795h-200v-795zM705 -58h200v795h-200v-795z" />
    <glyph glyph-name="uni2163" unicode="&#x2163;" 
d="M249 737l221 -795h305l220 795h-217l-155 -627h-2l-154 627h-218zM20 -58h200v795h-200v-795z" />
    <glyph glyph-name="uni2164" unicode="&#x2164;" 
d="M655 737l-154 -627h-2l-155 627h-217l220 -795h305l221 795h-218z" />
    <glyph glyph-name="uni2165" unicode="&#x2165;" 
d="M533 737l-154 -627h-2l-155 627h-217l220 -795h305l221 795h-218zM980 737h-200v-795h200v795z" />
    <glyph glyph-name="uni2166" unicode="&#x2166;" 
d="M376 737l-91 -620h-3l-92 620h-185l157 -795h241l159 795h-186zM749 737h-161v-795h161v795zM961 737h-163v-795h163v795z" />
    <glyph glyph-name="uni2167" unicode="&#x2167;" horiz-adv-x="1083" 
d="M336 737l-83 -620h-2l-84 620h-167l142 -795h219l143 795h-168zM674 737h-146v-795h146v795zM866 737h-147v-795h147v795zM1057 737h-146v-795h146v795z" />
    <glyph glyph-name="uni2168" unicode="&#x2168;" 
d="M28 -58h200v795h-200v-795zM995 -58l-229 406l208 389h-211l-136 -275l-136 275h-211l208 -389l-229 -406h214l154 290l154 -290h214z" />
    <glyph glyph-name="uni2169" unicode="&#x2169;" 
d="M868 -58l-229 406l208 389h-211l-136 -275l-136 275h-211l208 -389l-229 -406h214l154 290l154 -290h214z" />
    <glyph glyph-name="uni216A" unicode="&#x216a;" 
d="M972 737h-200v-795h200v795zM5 -58l229 406l-208 389h211l136 -275l136 275h211l-208 -389l229 -406h-214l-154 290l-154 -290h-214z" />
    <glyph glyph-name="uni216B" unicode="&#x216b;" 
d="M764 737h-162v-795h162v795zM5 -58l177 406l-161 389h164l104 -275l105 275h164l-161 -389l177 -406h-166l-119 290l-119 -290h-165zM986 737h-162v-795h162v795z" />
    <glyph glyph-name="uni2170" unicode="&#x2170;" 
d="M401 613h199v167h-199v-167zM402 -58h196v598h-196v-598z" />
    <glyph glyph-name="uni2171" unicode="&#x2171;" horiz-adv-x="999" 
d="M250 613h199v167h-199v-167zM251 -58h196v598h-196v-598zM550 613h199v167h-199v-167zM551 -58h196v598h-196v-598z" />
    <glyph glyph-name="uni2172" unicode="&#x2172;" 
d="M100 613h199v167h-199v-167zM101 -58h196v598h-196v-598zM400 613h199v167h-199v-167zM401 -58h196v598h-196v-598zM700 613h199v167h-199v-167zM701 -58h196v598h-196v-598z" />
    <glyph glyph-name="uni2173" unicode="&#x2173;" 
d="M101 613h199v167h-199v-167zM102 -58h196v598h-196v-598zM535 -58h246l184 598h-202l-102 -431h-3l-101 431h-207z" />
    <glyph glyph-name="uni2174" unicode="&#x2174;" 
d="M378 -58h246l184 598h-202l-102 -431h-3l-101 431h-207z" />
    <glyph glyph-name="uni2175" unicode="&#x2175;" 
d="M919 780h-199v-167h199v167zM918 540h-196v-598h196v598zM670 540h-207l-101 -431h-3l-102 431h-202l184 -598h246z" />
    <glyph glyph-name="uni2176" unicode="&#x2176;" 
d="M746 780h-171v-167h171v167zM746 540h-169v-598h169v598zM533 540h-178l-86 -431h-3l-88 431h-173l158 -598h211zM976 780h-171v-167h171v167zM976 540h-169v-598h169v598z" />
    <glyph glyph-name="uni2177" unicode="&#x2177;" 
d="M617 780h-139v-167h139v167zM617 540h-137v-598h137v598zM463 540h-158l-73 -431h-3l-75 431h-154l136 -598h191zM805 780h-139v-167h139v167zM805 540h-137v-598h137v598zM991 780h-140v-167h140v167zM991 540h-138v-598h138v598z" />
    <glyph glyph-name="uni2178" unicode="&#x2178;" 
d="M90 613h199v167h-199v-167zM91 -58h196v598h-196v-598zM776 245l165 295h-210l-88 -200l-87 200h-210l165 -295l-177 -303h217l94 201l91 -201h217z" />
    <glyph glyph-name="uni2179" unicode="&#x2179;" 
d="M632 245l165 295h-210l-88 -200l-87 200h-210l165 -295l-177 -303h217l94 201l91 -201h217z" />
    <glyph glyph-name="arrowleft" unicode="&#x2190;" 
d="M43 347l234 -233h170l-161 160v2h669v142h-669v2l161 164h-170z" />
    <glyph glyph-name="arrowup" unicode="&#x2191;" 
d="M264 567v-169l161 160h2v-668h142v668h2l164 -160v169l-237 234z" />
    <glyph glyph-name="arrowright" unicode="&#x2192;" 
d="M43 418v-142h669v-2l-160 -160h169l234 233l-234 237h-169l160 -164v-2h-669z" />
    <glyph glyph-name="arrowdown" unicode="&#x2193;" 
d="M264 293v-170l234 -233l237 233v170l-164 -161h-2v669h-142v-669h-2z" />
    <glyph glyph-name="uni2196" unicode="&#x2196;" 
d="M152 665v-331l120 -120v227l1 1l474 -471l100 100l-473 472l2 1h229l-121 121h-332z" />
    <glyph glyph-name="uni2197" unicode="&#x2197;" 
d="M152 71l100 -100l474 471l1 -1v-227l120 120v331h-332l-121 -120l229 -1l2 -1z" />
    <glyph glyph-name="uni2198" unicode="&#x2198;" 
d="M152 565l473 -473l-2 -1h-229l121 -120l332 1v330l-121 119l1 -226l-1 -1l-474 471z" />
    <glyph glyph-name="uni2199" unicode="&#x2199;" 
d="M152 -28l332 -1l121 120h-229l-2 1l473 473l-100 100l-474 -471l-1 1l1 226l-121 -119v-330z" />
    <glyph glyph-name="element" unicode="&#x2208;" 
d="M138 347q0 -76 29 -146q30 -65 84 -111q59 -46 131 -66q61 -16 124 -16h354v143h-358q-35 -1 -69 6q-33 7 -62 24q-54 33 -71 95h560v143h-561q17 60 70 94q29 16 62 23q35 7 71 8h358v142h-354q-63 -1 -124 -17q-72 -20 -130 -66q-54 -46 -85 -111q-29 -70 -29 -145z
" />
    <glyph glyph-name="product" unicode="&#x220f;" 
d="M170 737v-795h199v635h262v-635h200v795h-661z" />
    <glyph glyph-name="summation" unicode="&#x2211;" 
d="M767 -58v160h-348v3l177 193v83l-177 192v4h348v160h-587v-154l230 -244l-230 -243v-154h587z" />
    <glyph glyph-name="uni2215" unicode="&#x2215;" 
d="M226 -48l170 -1l377 781l-169 1z" />
    <glyph glyph-name="radical" unicode="&#x221a;" 
d="M0 382l65 -119l90 50l269 -461h80l496 867h-191l-340 -608l-237 410z" />
    <glyph glyph-name="proportional" unicode="&#x221d;" 
d="M108 347q0 -96 61 -169q71 -77 177 -78q56 -1 105 26q26 16 48 38q24 26 45 56q38 -59 97 -94q49 -27 105 -26q43 -2 85 12q34 14 61 39l-63 126q-38 -29 -85 -26q-36 0 -66 20q-42 31 -68 76q24 41 61 71q32 25 73 26q46 0 85 -27l63 126q-63 52 -145 51q-57 0 -106 -27
q-59 -35 -97 -93q-20 29 -44 55q-22 22 -48 38q-50 27 -106 27q-106 -2 -177 -79q-61 -73 -61 -168zM259 347q-1 40 26 69q29 27 69 28q33 0 59 -21q16 -14 29 -31q17 -22 32 -45q-15 -25 -32 -47q-13 -17 -30 -31q-26 -19 -58 -18q-42 -1 -71 28q-25 29 -24 68z" />
    <glyph glyph-name="infinity" unicode="&#x221e;" 
d="M58 344q0 -47 13 -91q17 -50 53 -87q35 -33 80 -50q44 -16 91 -16q56 1 105 31q60 38 98 98q38 -59 97 -98q47 -31 104 -31q96 1 169 64q39 37 57 88q15 46 16 95q-1 48 -15 95q-17 52 -54 91q-36 34 -81 52q-44 16 -90 17q-69 0 -126 -37q-50 -36 -77 -91q-30 54 -79 90
q-56 38 -123 38q-98 -4 -168 -73q-38 -39 -56 -91q-14 -46 -14 -94zM209 347q-2 38 22 68q27 28 66 28q35 -1 64 -21q42 -31 71 -75q-30 -45 -71 -77q-28 -20 -62 -19q-41 -1 -68 27q-24 30 -22 69zM567 347q16 24 36 46q15 17 34 30q29 19 64 20q39 0 67 -29q22 -30 22 -67
q1 -39 -23 -70q-27 -27 -65 -26q-36 0 -65 20q-43 31 -70 76z" />
    <glyph glyph-name="orthogonal" unicode="&#x221f;" 
d="M118 680v-680h762v161h-584v519h-178z" />
    <glyph glyph-name="angle" unicode="&#x2220;" 
d="M99 0h801v161h-470l321 454l-156 80z" />
    <glyph glyph-name="uni2223" unicode="&#x2223;" 
d="M411 801v-989h177v989h-177z" />
    <glyph glyph-name="uni2225" unicode="&#x2225;" 
d="M318 -176h165l492 970h-164zM24 -176h164l492 970h-164z" />
    <glyph glyph-name="logicaland" unicode="&#x2227;" 
d="M100 -50h195l203 565h2l204 -565h195l-301 787h-197z" />
    <glyph glyph-name="logicalor" unicode="&#x2228;" 
d="M100 737l301 -787h197l302 787h-196l-204 -566h-2l-203 566h-195z" />
    <glyph glyph-name="intersection" unicode="&#x2229;" 
d="M161 400v-467h182v466q-1 36 9 71q10 33 31 59q23 26 56 38q30 9 61 10q30 -1 59 -9q32 -10 56 -34q21 -25 31 -57q10 -39 10 -78v-466h182v467q-1 62 -17 123q-19 68 -67 120q-47 48 -110 71q-71 23 -144 23q-75 0 -145 -24q-63 -23 -111 -71q-47 -52 -67 -120
q-16 -60 -16 -122z" />
    <glyph glyph-name="union" unicode="&#x222a;" 
d="M161 737v-467q0 -63 16 -123q20 -68 67 -120q48 -47 111 -70q70 -24 145 -24q73 0 144 23q63 23 110 69q48 52 67 120q16 61 17 125v467h-182v-467q0 -40 -10 -78q-10 -32 -31 -57q-24 -24 -56 -34q-29 -9 -59 -8q-31 -1 -61 9q-33 12 -56 37q-21 26 -31 59q-10 35 -9 72
v467h-182z" />
    <glyph glyph-name="integral" unicode="&#x222b;" 
d="M283 34v-135q62 0 123 12q53 11 97 44q43 36 61 88q14 51 15 105v460q-1 23 5 47q7 23 26 39q20 14 44 18q31 5 62 5v137q-64 0 -125 -13q-54 -12 -97 -45q-43 -37 -60 -90q-15 -51 -14 -104v-458q-1 -25 -6 -49q-7 -23 -25 -39q-20 -14 -44 -18q-31 -5 -62 -4z" />
    <glyph glyph-name="uni222E" unicode="&#x222e;" 
d="M243 376q0 -79 43 -144q50 -73 133 -101q-2 -22 -8 -43q-8 -21 -25 -35q-20 -12 -43 -16q-30 -4 -60 -3v-136q60 0 120 12q52 11 96 41q42 33 61 82q16 48 19 98q82 28 132 100q44 66 45 145q-1 78 -44 143q-50 72 -133 100q1 21 8 41q8 22 27 35q20 13 43 17q29 5 59 5
v137q-62 0 -122 -12q-52 -11 -96 -42q-42 -34 -61 -84q-16 -48 -17 -97q-84 -28 -134 -100q-43 -65 -43 -143zM643 376q-3 -76 -64 -120v240q61 -45 64 -120zM356 376q2 75 64 120v-240q-63 43 -64 120z" />
    <glyph glyph-name="therefore" unicode="&#x2234;" 
d="M408 579q0 -36 23 -62q27 -30 68 -30q35 0 61 23q30 28 31 69q-1 40 -31 67q-26 23 -61 24q-41 -1 -68 -31q-23 -26 -23 -60zM105 71q0 -35 23 -61q28 -28 68 -29q40 1 68 29q23 26 24 61q-1 35 -24 61q-28 29 -68 30q-35 0 -61 -23q-30 -28 -30 -68zM711 71
q0 -35 23 -61q28 -28 69 -29q39 1 67 29q23 26 24 61q-1 34 -24 61q-28 29 -67 30q-41 -1 -69 -30q-23 -26 -23 -61z" />
    <glyph glyph-name="uni2235" unicode="&#x2235;" 
d="M408 71q0 -35 23 -61q28 -28 69 -29q34 0 60 22q30 27 31 68q-1 40 -31 67q-26 23 -61 24q-35 -1 -61 -24q-30 -27 -30 -67zM105 579q0 -41 30 -69q26 -23 62 -23q40 0 67 30q23 26 24 62q-1 40 -31 67q-26 23 -61 24q-41 -1 -68 -31q-23 -26 -23 -60zM711 579
q0 -41 30 -69q26 -23 62 -23q40 0 67 30q23 26 24 62q-1 34 -24 60q-27 30 -67 31q-36 -1 -62 -24q-30 -27 -30 -67z" />
    <glyph glyph-name="uni2236" unicode="&#x2236;" 
d="M408 579q0 -36 23 -62q27 -30 68 -30q35 0 61 23q30 28 31 69q-1 40 -31 67q-26 23 -61 24q-41 -1 -68 -31q-23 -26 -23 -60zM408 71q0 -35 23 -61q28 -28 69 -29q39 1 67 29q23 26 24 61q-1 34 -24 61q-28 29 -67 30q-41 -1 -69 -30q-23 -26 -23 -61z" />
    <glyph glyph-name="uni2237" unicode="&#x2237;" 
d="M154 579q0 -36 23 -62q28 -30 69 -30q40 0 67 30q23 26 24 62q-1 34 -24 60q-27 30 -67 31q-36 -1 -62 -24q-30 -27 -30 -67zM155 71q0 -35 23 -61q28 -28 68 -29q39 1 67 29q23 26 24 61q-1 34 -24 61q-28 29 -67 30q-35 0 -61 -23q-30 -28 -30 -68zM662 579
q0 -36 23 -62q27 -30 68 -30q40 0 68 30q23 26 24 62q-1 34 -24 60q-28 30 -68 31q-35 -1 -61 -24q-30 -27 -30 -67zM662 71q0 -35 23 -61q28 -28 68 -29q40 1 68 29q23 26 24 61q-1 35 -24 61q-28 29 -68 30q-35 0 -61 -23q-30 -28 -30 -68z" />
    <glyph glyph-name="uni223D" unicode="&#x223d;" 
d="M74 463q2 -74 24 -145q18 -59 57 -107q37 -42 90 -63q42 -14 88 -14q51 0 97 23q63 33 116 80q30 27 65 51q22 13 49 14q18 -2 34 -13q18 -15 29 -36q27 -57 30 -119h171q-5 69 -25 136q-20 59 -59 108q-71 83 -180 85q-54 -1 -101 -25q-57 -31 -103 -75q-30 -32 -67 -54
q-26 -15 -56 -15q-21 -1 -39 11q-18 14 -28 35q-9 20 -14 43q-8 39 -10 80h-168z" />
    <glyph glyph-name="approxequal" unicode="&#x2248;" 
d="M96 422l65 -130q27 40 72 63q48 24 103 26q35 -1 69 -12q45 -16 87 -40q77 -48 168 -49q45 -1 89 6q36 6 70 21q54 27 84 82l-65 138q-28 -41 -73 -63q-50 -24 -104 -24q-35 0 -69 10q-44 15 -84 39q-79 48 -170 51q-46 0 -90 -8q-28 -6 -54 -17q-64 -30 -98 -93zM96 140
l65 -121q27 41 72 64q48 24 103 26q35 -1 69 -12q45 -16 87 -41q78 -46 168 -48q45 -1 89 6q36 7 70 23q54 29 84 84l-65 134q-28 -41 -73 -63q-50 -25 -104 -25q-35 0 -69 11q-44 15 -84 40q-79 47 -170 50q-35 -1 -70 -6q-38 -7 -74 -24q-64 -34 -98 -98z" />
    <glyph glyph-name="uni224C" unicode="&#x224c;" 
d="M74 714q2 -74 23 -144q18 -59 56 -106q37 -42 90 -61q44 -14 90 -14q56 -1 106 23q53 27 98 68q33 28 69 52q21 15 46 17q18 -1 33 -11q18 -14 29 -34q15 -27 22 -57q6 -29 9 -58h179q-5 69 -26 135q-20 59 -59 107q-71 81 -179 83q-49 0 -94 -20q-56 -26 -101 -68
q-30 -29 -66 -51q-15 -10 -32 -17q-12 -5 -25 -5q-40 -1 -62 32q-14 23 -19 50q-8 39 -10 79h-177zM94 322v-143h816v143h-816zM94 112v-142h816v142h-816z" />
    <glyph glyph-name="uni2252" unicode="&#x2252;" 
d="M91 335v-143h816v143h-816zM91 553v-142h816v142h-816zM600 41q0 -40 29 -67q26 -22 62 -23q40 1 68 30q23 25 24 60q-1 40 -30 69q-27 24 -62 23q-41 -3 -69 -32q-23 -26 -22 -60zM216 704q0 -36 22 -62q28 -29 69 -29q40 0 68 29q22 26 23 62q-1 40 -29 68
q-27 24 -62 23q-41 -3 -69 -31q-22 -26 -22 -60z" />
    <glyph glyph-name="notequal" unicode="&#x2260;" 
d="M91 552v-143h345l-23 -73h-322v-142h276l-61 -188h157l61 188h383v142h-337l23 73h314v143h-267l61 187h-157l-61 -187h-392z" />
    <glyph glyph-name="equivalence" unicode="&#x2261;" 
d="M91 184v-143h816v143h-816zM91 620v-142h816v142h-816zM91 402v-142h816v142h-816z" />
    <glyph glyph-name="lessequal" unicode="&#x2264;" 
d="M93 532v-143l812 -265v151l-612 185v2l612 184v152zM93 161l812 -263v150l-812 265v-152z" />
    <glyph glyph-name="greaterequal" unicode="&#x2265;" 
d="M93 798v-152l612 -184v-2l-612 -185v-151l812 265v143zM93 48v-150l812 263v152z" />
    <glyph glyph-name="uni2266" unicode="&#x2266;" 
d="M93 604v-134l812 -200v143l-568 123v2l568 124v142zM93 229v-134h812v134h-812zM93 37v-133h812v133h-812z" />
    <glyph glyph-name="uni2267" unicode="&#x2267;" 
d="M92 804v-142l568 -124v-2l-568 -123v-143l813 200v134zM92 229v-134h813v134h-813zM92 37v-133h813v133h-813z" />
    <glyph glyph-name="uni226E" unicode="&#x226e;" 
d="M93 413v-142l309 -101l-64 -194h157l48 147l362 -118v151l-319 96l65 199l254 77v151l-200 -66l37 114h-157l-56 -171zM293 343l184 55l-34 -103l-150 46v2z" />
    <glyph glyph-name="uni226F" unicode="&#x226f;" 
d="M256 727l37 -114l-200 66v-151l254 -77l65 -199l-319 -96v-151l361 118l49 -147h157l-64 194l309 101v142l-436 143l-56 171h-157zM705 343v-2l-150 -46l-34 103z" />
    <glyph glyph-name="circleplus" unicode="&#x2295;" 
d="M59 322q1 -73 23 -141q31 -88 93 -156q62 -66 145 -104q87 -38 181 -39q71 1 139 24q87 31 155 94q66 62 105 145q38 84 40 177q-1 92 -39 177q-39 83 -106 146q-68 63 -156 94q-68 23 -139 24q-94 -2 -180 -39q-83 -38 -146 -105q-62 -69 -93 -156q-22 -69 -22 -141z
M97 322q0 85 35 163q36 76 97 133q63 57 143 85q62 20 128 22q86 -1 165 -36q76 -36 133 -98q102 -115 105 -269q-2 -65 -21 -128q-28 -79 -84 -142q-57 -60 -132 -96q-78 -35 -163 -36q-86 1 -164 35q-76 35 -134 94q-105 116 -108 273zM203 395v-143h223v-215h143v215h223
v143h-223v236h-143v-236h-223z" />
    <glyph glyph-name="uni2299" unicode="&#x2299;" 
d="M59 322q1 -73 23 -141q31 -88 93 -156q62 -66 145 -104q87 -38 181 -39q71 1 139 24q87 31 155 94q66 62 105 145q38 84 40 177q-1 92 -39 177q-39 83 -106 146q-68 63 -156 94q-68 23 -139 24q-94 -2 -180 -39q-83 -38 -146 -105q-62 -69 -93 -156q-22 -69 -22 -141z
M97 322q0 85 35 163q36 76 97 133q63 57 143 85q62 20 128 22q86 -1 165 -36q76 -36 133 -98q102 -115 105 -269q-2 -65 -21 -128q-28 -79 -84 -142q-57 -60 -132 -96q-78 -35 -163 -36q-86 1 -164 35q-76 35 -134 94q-105 116 -108 273zM407 321q0 -36 23 -62
q28 -29 69 -29q35 0 61 22q29 28 30 69q-1 40 -29 68q-27 23 -62 24q-36 -1 -63 -24q-29 -28 -29 -68z" />
    <glyph glyph-name="perpendicular" unicode="&#x22a5;" 
d="M98 123v-142h803v142h-330v628h-143v-628h-330z" />
    <glyph glyph-name="uni22BF" unicode="&#x22bf;" 
d="M104 -14h791v830zM434 128l318 334v-334h-318z" />
    <glyph glyph-name="uni2312" unicode="&#x2312;" 
d="M27 310q91 70 203 101q132 35 270 34q136 1 268 -34q112 -31 204 -101l27 125q-35 30 -74 53q-57 33 -120 54q-71 22 -143 33q-81 11 -162 12q-82 0 -163 -12q-73 -10 -144 -33q-63 -21 -120 -54q-39 -23 -73 -53z" />
    <glyph glyph-name="uni2460" unicode="&#x2460;" 
d="M568 48v555h-101l-129 -79v-96l100 36v-416h130zM8 320q0 -56 10 -110q11 -52 31 -100q40 -93 115 -160q37 -33 80 -58q45 -25 94 -41q79 -23 162 -24q82 1 161 24q48 16 93 41q43 25 81 58q36 34 65 72q29 42 49 88q20 48 31 100q10 54 11 110q-1 55 -11 110
q-11 51 -31 100q-20 46 -49 87q-29 40 -65 74q-38 33 -81 58q-45 25 -93 41q-79 23 -161 24q-83 -1 -162 -24q-49 -16 -94 -41q-43 -25 -80 -58q-36 -34 -66 -74q-28 -41 -49 -87q-20 -49 -31 -100q-10 -55 -10 -110zM97 320q0 88 34 171q33 76 94 132q63 55 143 81
q64 18 132 20q66 -2 131 -20q80 -26 143 -81q61 -56 94 -132q34 -83 35 -171q-2 -68 -20 -132q-26 -80 -81 -144q-56 -60 -132 -93q-82 -34 -170 -35q-68 2 -132 20q-80 26 -143 80q-61 56 -94 132q-34 82 -34 172z" />
    <glyph glyph-name="uni2461" unicode="&#x2461;" 
d="M684 153h-203q61 54 116 117q36 42 61 93q21 44 23 93q-1 28 -9 56q-11 33 -36 58q-27 24 -61 35q-40 12 -82 13q-41 -1 -80 -14q-45 -14 -85 -39l5 -106q28 19 60 30q32 12 67 14q35 1 64 -20q21 -17 22 -43q-1 -31 -15 -57q-21 -39 -50 -71q-76 -88 -159 -167v-96h362
v104zM8 320q0 -56 10 -110q11 -52 31 -100q40 -93 115 -160q37 -33 80 -58q45 -25 94 -41q79 -23 162 -24q82 1 161 24q48 16 93 41q43 25 81 58q36 34 65 72q29 42 49 88q20 48 31 100q10 54 11 110q-1 55 -11 110q-11 51 -31 100q-20 46 -49 87q-29 40 -65 74
q-38 33 -81 58q-45 25 -93 41q-79 23 -161 24q-83 -1 -162 -24q-49 -16 -94 -41q-43 -25 -80 -58q-36 -34 -66 -74q-28 -41 -49 -87q-20 -49 -31 -100q-10 -55 -10 -110zM97 320q0 88 34 171q33 76 94 132q63 55 143 81q64 18 132 20q66 -2 131 -20q80 -26 143 -81
q61 -56 94 -132q34 -83 35 -171q-2 -68 -20 -132q-26 -80 -81 -144q-56 -60 -132 -93q-82 -34 -170 -35q-68 2 -132 20q-80 26 -143 80q-61 56 -94 132q-34 82 -34 172z" />
    <glyph glyph-name="uni2462" unicode="&#x2462;" 
d="M586 333q38 17 63 50q26 36 26 81q-1 61 -47 103q-27 21 -59 32q-37 11 -75 12q-77 0 -144 -34l1 -109q52 27 112 28q31 1 57 -17q17 -15 18 -37q-1 -30 -22 -49q-20 -17 -46 -16h-43v-97h44q30 0 54 -20q19 -19 20 -46q-1 -34 -25 -56q-25 -18 -55 -17q-26 0 -51 9
q-30 11 -56 30l-45 -98q73 -53 164 -54q35 0 70 8q41 10 75 34q30 23 49 56q17 33 18 71q1 49 -30 88q-30 34 -73 48zM8 320q0 -56 10 -110q11 -52 31 -100q40 -93 115 -160q37 -33 80 -58q45 -25 94 -41q79 -23 162 -24q82 1 161 24q48 16 93 41q43 25 81 58q36 34 65 72
q29 42 49 88q20 48 31 100q10 54 11 110q-1 55 -11 110q-11 51 -31 100q-20 46 -49 87q-29 40 -65 74q-38 33 -81 58q-45 25 -93 41q-79 23 -161 24q-83 -1 -162 -24q-49 -16 -94 -41q-43 -25 -80 -58q-36 -34 -66 -74q-28 -41 -49 -87q-20 -49 -31 -100q-10 -55 -10 -110z
M97 320q0 88 34 171q33 76 94 132q63 55 143 81q64 18 132 20q66 -2 131 -20q80 -26 143 -81q61 -56 94 -132q34 -83 35 -171q-2 -68 -20 -132q-26 -80 -81 -144q-56 -60 -132 -93q-82 -34 -170 -35q-68 2 -132 20q-80 26 -143 80q-61 56 -94 132q-34 82 -34 172z" />
    <glyph glyph-name="uni2463" unicode="&#x2463;" 
d="M8 320q0 -56 10 -110q11 -52 31 -100q40 -93 115 -160q37 -33 80 -58q45 -25 94 -41q79 -23 162 -24q82 1 161 24q48 16 93 41q43 25 81 58q36 34 65 72q29 42 49 88q20 48 31 100q10 54 11 110q-1 55 -11 110q-11 51 -31 100q-20 46 -49 87q-29 40 -65 74q-38 33 -81 58
q-45 25 -93 41q-79 23 -161 24q-83 -1 -162 -24q-49 -16 -94 -41q-43 -25 -80 -58q-36 -34 -66 -74q-28 -41 -49 -87q-20 -49 -31 -100q-10 -55 -10 -110zM97 320q0 88 34 171q33 76 94 132q63 55 143 81q64 18 132 20q66 -2 131 -20q80 -26 143 -81q61 -56 94 -132
q34 -83 35 -171q-2 -68 -20 -132q-26 -80 -81 -144q-56 -60 -132 -93q-82 -34 -170 -35q-68 2 -132 20q-80 26 -143 80q-61 56 -94 132q-34 82 -34 172zM494 62h134v94h95v106h-95v354h-181l-200 -367v-93h247v-94zM374 261l120 233v-233h-120z" />
    <glyph glyph-name="uni2464" unicode="&#x2464;" 
d="M522 389q-32 -1 -63 -6l4 97h196v115h-332l-10 -291l34 -23q47 18 98 19q36 1 66 -20q27 -24 27 -60q-1 -34 -24 -57q-30 -26 -70 -25q-61 -1 -116 26l-36 -98q83 -42 177 -41q47 0 91 14q40 15 71 43q29 30 42 70q10 33 11 68q-1 29 -8 57q-11 33 -33 60q-24 25 -55 38
q-34 13 -70 14zM8 320q0 -56 10 -110q11 -52 31 -100q40 -93 115 -160q37 -33 80 -58q45 -25 94 -41q79 -23 162 -24q82 1 161 24q48 16 93 41q43 25 81 58q36 34 65 72q29 42 49 88q20 48 31 100q10 54 11 110q-1 55 -11 110q-11 51 -31 100q-20 46 -49 87q-29 40 -65 74
q-38 33 -81 58q-45 25 -93 41q-79 23 -161 24q-83 -1 -162 -24q-49 -16 -94 -41q-43 -25 -80 -58q-36 -34 -66 -74q-28 -41 -49 -87q-20 -49 -31 -100q-10 -55 -10 -110zM97 320q0 88 34 171q33 76 94 132q63 55 143 81q64 18 132 20q66 -2 131 -20q80 -26 143 -81
q61 -56 94 -132q34 -83 35 -171q-2 -68 -20 -132q-26 -80 -81 -144q-56 -60 -132 -93q-82 -34 -170 -35q-68 2 -132 20q-80 26 -143 80q-61 56 -94 132q-34 82 -34 172z" />
    <glyph glyph-name="uni2465" unicode="&#x2465;" 
d="M533 422q-65 0 -114 -41q1 30 12 58q10 24 30 42q21 17 47 24q24 5 48 6q46 -1 92 -11l2 105q-61 15 -124 16q-58 -1 -111 -24q-50 -25 -84 -70q-37 -51 -51 -112q-12 -54 -12 -109q-1 -60 16 -116q15 -49 48 -88q32 -35 77 -52q37 -12 76 -12q44 0 86 15q38 16 67 46
q28 31 41 72q10 34 11 70q-1 32 -8 64q-10 35 -32 64q-47 53 -117 53zM488 143q-28 1 -44 24q-21 32 -25 72q-3 26 -1 53q26 33 70 35q30 -2 47 -27q19 -30 18 -65q1 -37 -18 -67q-17 -25 -47 -25zM8 320q0 -56 10 -110q11 -52 31 -100q40 -93 115 -160q37 -33 80 -58
q45 -25 94 -41q79 -23 162 -24q82 1 161 24q48 16 93 41q43 25 81 58q36 34 65 72q29 42 49 88q20 48 31 100q10 54 11 110q-1 55 -11 110q-11 51 -31 100q-20 46 -49 87q-29 40 -65 74q-38 33 -81 58q-45 25 -93 41q-79 23 -161 24q-83 -1 -162 -24q-49 -16 -94 -41
q-43 -25 -80 -58q-36 -34 -66 -74q-28 -41 -49 -87q-20 -49 -31 -100q-10 -55 -10 -110zM97 320q0 88 34 171q33 76 94 132q63 55 143 81q64 18 132 20q66 -2 131 -20q80 -26 143 -81q61 -56 94 -132q34 -83 35 -171q-2 -68 -20 -132q-26 -80 -81 -144q-56 -60 -132 -93
q-82 -34 -170 -35q-68 2 -132 20q-80 26 -143 80q-61 56 -94 132q-34 82 -34 172z" />
    <glyph glyph-name="uni2466" unicode="&#x2466;" 
d="M513 15q23 121 67 236q44 122 115 232v101h-382v-113h238q-71 -105 -121 -221q-49 -114 -79 -235h162zM8 320q0 -56 10 -110q11 -52 31 -100q40 -93 115 -160q37 -33 80 -58q45 -25 94 -41q79 -23 162 -24q82 1 161 24q48 16 93 41q43 25 81 58q36 34 65 72q29 42 49 88
q20 48 31 100q10 54 11 110q-1 55 -11 110q-11 51 -31 100q-20 46 -49 87q-29 40 -65 74q-38 33 -81 58q-45 25 -93 41q-79 23 -161 24q-83 -1 -162 -24q-49 -16 -94 -41q-43 -25 -80 -58q-36 -34 -66 -74q-28 -41 -49 -87q-20 -49 -31 -100q-10 -55 -10 -110zM97 320
q0 88 34 171q33 76 94 132q63 55 143 81q64 18 132 20q66 -2 131 -20q80 -26 143 -81q61 -56 94 -132q34 -83 35 -171q-2 -68 -20 -132q-26 -80 -81 -144q-56 -60 -132 -93q-82 -34 -170 -35q-68 2 -132 20q-80 26 -143 80q-61 56 -94 132q-34 82 -34 172z" />
    <glyph glyph-name="uni2467" unicode="&#x2467;" 
d="M494 38q37 0 73 7q41 10 77 32q30 21 48 52q17 32 18 69q0 46 -28 83q-33 39 -81 58q41 19 68 56q22 33 22 73q-1 34 -15 65q-16 30 -43 50q-32 22 -69 30q-33 7 -67 8q-35 -1 -69 -8q-38 -10 -69 -33q-57 -48 -57 -122q0 -36 20 -65q25 -34 63 -54q-46 -20 -77 -58
q-27 -39 -26 -85q0 -36 17 -68q18 -31 48 -51q35 -23 75 -32q35 -7 72 -7zM497 376q-28 11 -47 34q-14 18 -13 42q-1 25 15 45q18 19 45 20q26 -1 44 -21q15 -20 15 -44q-1 -25 -17 -45q-18 -21 -42 -31zM497 143q-32 -1 -53 21q-19 21 -18 50q0 30 20 53q21 21 51 29
q32 -9 53 -34q16 -21 17 -48q0 -28 -18 -50q-21 -22 -52 -21zM8 320q0 -56 10 -110q11 -52 31 -100q40 -93 115 -160q37 -33 80 -58q45 -25 94 -41q79 -23 162 -24q82 1 161 24q48 16 93 41q43 25 81 58q36 34 65 72q29 42 49 88q20 48 31 100q10 54 11 110q-1 55 -11 110
q-11 51 -31 100q-20 46 -49 87q-29 40 -65 74q-38 33 -81 58q-45 25 -93 41q-79 23 -161 24q-83 -1 -162 -24q-49 -16 -94 -41q-43 -25 -80 -58q-36 -34 -66 -74q-28 -41 -49 -87q-20 -49 -31 -100q-10 -55 -10 -110zM97 320q0 88 34 171q33 76 94 132q63 55 143 81
q64 18 132 20q66 -2 131 -20q80 -26 143 -81q61 -56 94 -132q34 -83 35 -171q-2 -68 -20 -132q-26 -80 -81 -144q-56 -60 -132 -93q-82 -34 -170 -35q-68 2 -132 20q-80 26 -143 80q-61 56 -94 132q-34 82 -34 172z" />
    <glyph glyph-name="uni2468" unicode="&#x2468;" 
d="M460 234q64 0 114 41q-1 -50 -29 -90q-15 -18 -36 -30q-21 -10 -44 -10q-46 -1 -88 14l-41 -95q29 -14 61 -21q42 -8 85 -8q42 0 82 14q51 20 87 61q37 46 54 103q20 68 20 139q-1 59 -17 116q-15 48 -48 86q-33 35 -77 51q-37 12 -75 13q-45 -1 -87 -16q-38 -16 -67 -46
q-29 -31 -42 -72q-9 -34 -9 -69q0 -33 7 -65q10 -36 32 -64q21 -26 52 -39t66 -13zM504 513q27 -2 44 -24q22 -32 26 -70q2 -28 1 -55q-28 -34 -71 -35q-30 1 -48 26q-18 30 -16 66q-2 36 16 66q18 25 48 26zM8 320q0 -56 10 -110q11 -52 31 -100q40 -93 115 -160
q37 -33 80 -58q45 -25 94 -41q79 -23 162 -24q82 1 161 24q48 16 93 41q43 25 81 58q36 34 65 72q29 42 49 88q20 48 31 100q10 54 11 110q-1 55 -11 110q-11 51 -31 100q-20 46 -49 87q-29 40 -65 74q-38 33 -81 58q-45 25 -93 41q-79 23 -161 24q-83 -1 -162 -24
q-49 -16 -94 -41q-43 -25 -80 -58q-36 -34 -66 -74q-28 -41 -49 -87q-20 -49 -31 -100q-10 -55 -10 -110zM97 320q0 88 34 171q33 76 94 132q63 55 143 81q64 18 132 20q66 -2 131 -20q80 -26 143 -81q61 -56 94 -132q34 -83 35 -171q-2 -68 -20 -132q-26 -80 -81 -144
q-56 -60 -132 -93q-82 -34 -170 -35q-68 2 -132 20q-80 26 -143 80q-61 56 -94 132q-34 82 -34 172z" />
    <glyph glyph-name="uni2469" unicode="&#x2469;" 
d="M8 320q0 -56 10 -110q11 -52 31 -100q40 -93 115 -160q37 -33 80 -58q45 -25 94 -41q79 -23 162 -24q82 1 161 24q48 16 93 41q43 25 81 58q36 34 65 72q29 42 49 88q20 48 31 100q10 54 11 110q-1 55 -11 110q-11 51 -31 100q-20 46 -49 87q-29 40 -65 74q-38 33 -81 58
q-45 25 -93 41q-79 23 -161 24q-83 -1 -162 -24q-49 -16 -94 -41q-43 -25 -80 -58q-36 -34 -66 -74q-28 -41 -49 -87q-20 -49 -31 -100q-10 -55 -10 -110zM97 320q0 88 34 171q33 76 94 132q63 55 143 81q64 18 132 20q66 -2 131 -20q80 -26 143 -81q61 -56 94 -132
q34 -83 35 -171q-2 -68 -20 -132q-26 -80 -81 -144q-56 -60 -132 -93q-82 -34 -170 -35q-68 2 -132 20q-80 26 -143 80q-61 56 -94 132q-34 82 -34 172zM391 48v555h-92l-120 -79v-96l91 36v-416h121zM631 612q-46 0 -86 -21q-39 -24 -62 -62q-26 -48 -35 -102
q-9 -51 -8 -102q-1 -52 8 -102q9 -54 35 -102q23 -38 62 -62q40 -21 86 -20q45 -1 85 20q39 24 62 62q26 48 35 102q8 50 9 102q-1 51 -9 102q-9 53 -35 102q-23 38 -62 62q-40 21 -85 21zM631 149q-17 0 -28 12q-15 16 -21 37q-9 30 -12 62t-2 65q-1 32 2 64t12 63
q6 21 21 37q11 12 28 13q15 -1 27 -13q14 -16 20 -37q16 -62 15 -127q1 -65 -15 -127q-6 -21 -20 -37q-12 -12 -27 -12z" />
    <glyph glyph-name="uni2474" unicode="&#x2474;" 
d="M621 -58v795h-143l-185 -114v-141l142 56v-596h186zM161 -58q-86 190 -87 400q0 109 25 216q21 93 63 179h-90q-35 -88 -52 -180q-20 -107 -20 -215t20 -214q17 -96 52 -186h89zM929 -58q34 90 51 186q19 106 20 214q-1 108 -20 215q-18 92 -51 180h-90q41 -86 62 -179
q25 -107 26 -216q-2 -210 -87 -400h89z" />
    <glyph glyph-name="uni2475" unicode="&#x2475;" 
d="M742 92h-259q73 80 142 165q50 62 83 135q27 63 29 132q-1 40 -12 79q-15 47 -47 83q-34 34 -79 52q-50 18 -102 19q-55 -2 -106 -20q-62 -20 -115 -56l7 -151q37 27 81 43q42 17 88 19q23 -1 46 -7q20 -7 36 -20q26 -25 26 -62q-2 -43 -20 -82q-25 -53 -61 -100
q-58 -78 -124 -147q-45 -46 -87 -94v-138h474v150zM161 -58q-86 190 -87 400q0 109 25 216q21 93 63 179h-90q-35 -88 -52 -180q-20 -107 -20 -215t20 -214q17 -96 52 -186h89zM929 -58q34 90 51 186q19 106 20 214q-1 108 -20 215q-18 92 -51 180h-90q41 -86 62 -179
q25 -107 26 -216q-2 -210 -87 -400h89z" />
    <glyph glyph-name="uni2476" unicode="&#x2476;" 
d="M632 360q54 24 91 71q36 51 36 115q-1 88 -67 147q-37 31 -84 47q-52 16 -105 17q-60 -1 -118 -14q-48 -12 -91 -34l1 -156q36 19 76 28q42 10 85 11q23 -1 45 -6q19 -6 35 -17q26 -22 27 -55q-1 -37 -25 -64q-31 -30 -73 -29h-61v-137h62q44 -1 78 -30q28 -28 29 -67
q0 -47 -35 -78q-36 -25 -79 -24q-38 0 -73 12q-43 16 -80 43l-65 -141q106 -74 236 -77q50 1 100 12q58 15 107 49q43 32 70 79q24 48 25 103q1 71 -42 126q-43 49 -105 69zM161 -58q-86 190 -87 400q0 109 25 216q21 93 63 179h-90q-35 -88 -52 -180q-20 -107 -20 -215
t20 -214q17 -96 52 -186h89zM929 -58q34 90 51 186q19 106 20 214q-1 108 -20 215q-18 92 -51 180h-90q41 -86 62 -179q25 -107 26 -216q-2 -210 -87 -400h89z" />
    <glyph glyph-name="uni2477" unicode="&#x2477;" 
d="M514 -58h171v135h123v153h-123v506h-233l-260 -526v-133h322v-135zM161 -58q-86 190 -87 400q0 109 25 216q21 93 63 179h-90q-35 -88 -52 -180q-20 -107 -20 -215t20 -214q17 -96 52 -186h89zM929 -58q34 90 51 186q19 106 20 214q-1 108 -20 215q-18 92 -51 180h-90
q41 -86 62 -179q25 -107 26 -216q-2 -210 -87 -400h89zM357 229l161 338v-338h-161z" />
    <glyph glyph-name="uni2478" unicode="&#x2478;" 
d="M544 443q-43 0 -83 -9l5 139h254v165h-430l-12 -414l44 -37q60 29 127 32q21 -1 42 -6q24 -7 43 -24q17 -16 26 -38q8 -25 9 -50q-1 -47 -32 -81q-37 -37 -89 -37q-81 -1 -150 39l-47 -141q48 -28 103 -42q62 -16 126 -17q61 0 118 22q52 21 91 61q38 43 54 99
q13 48 14 98q-1 41 -11 82q-12 47 -42 85q-29 35 -70 55q-43 18 -90 19zM161 -58q-86 190 -87 400q0 109 25 216q21 93 63 179h-90q-35 -88 -52 -180q-20 -107 -20 -215t20 -214q17 -96 52 -186h89zM929 -58q34 90 51 186q19 106 20 214q-1 108 -20 215q-18 92 -51 180h-90
q41 -86 62 -179q25 -107 26 -216q-2 -210 -87 -400h89z" />
    <glyph glyph-name="uni2479" unicode="&#x2479;" 
d="M560 472q-82 -2 -140 -58q1 42 15 83q13 34 38 60q25 24 58 34q28 8 57 9q56 -2 111 -17l4 151q-75 22 -153 23q-73 -1 -136 -35q-30 -18 -56 -42q-26 -26 -47 -57q-21 -35 -37 -73q-16 -42 -25 -87q-15 -77 -15 -155q-1 -86 20 -168q18 -68 59 -126q37 -48 94 -74
q43 -17 91 -18q56 1 107 23q49 23 83 64q36 47 51 103q12 50 13 101q-1 46 -10 92q-11 50 -39 92q-25 35 -63 56q-38 18 -80 19zM504 73q-14 0 -27 6q-17 11 -27 28q-13 21 -19 44q-8 29 -11 59q-3 37 -2 76q13 21 35 35q23 15 51 16q17 -1 32 -10q16 -11 26 -29
q23 -44 22 -94q-1 -25 -5 -49q-4 -25 -17 -47q-20 -34 -58 -35zM161 -58q-86 190 -87 400q0 109 25 216q21 93 63 179h-90q-35 -88 -52 -180q-20 -107 -20 -215t20 -214q17 -96 52 -186h89zM929 -58q34 90 51 186q19 106 20 214q-1 108 -20 215q-18 92 -51 180h-90
q41 -86 62 -179q25 -107 26 -216q-2 -210 -87 -400h89z" />
    <glyph glyph-name="uni247A" unicode="&#x247a;" 
d="M523 -78q25 175 79 343q55 171 144 328v144h-489v-163h309q-86 -152 -145 -315q-61 -166 -102 -337h204zM161 -58q-86 190 -87 400q0 109 25 216q21 93 63 179h-90q-35 -88 -52 -180q-20 -107 -20 -215t20 -214q17 -96 52 -186h89zM929 -58q34 90 51 186q19 106 20 214
q-1 108 -20 215q-18 92 -51 180h-90q41 -86 62 -179q25 -107 26 -216q-2 -210 -87 -400h89z" />
    <glyph glyph-name="uni247B" unicode="&#x247b;" 
d="M498 -78q52 1 104 11q59 13 110 45q43 28 69 74q24 47 25 100q0 66 -40 119q-22 27 -50 47q-31 21 -64 36q57 28 95 79q32 47 32 104q0 49 -21 94q-22 43 -61 72q-46 31 -99 43q-48 10 -97 11q-50 -1 -98 -12q-54 -13 -99 -47q-39 -31 -61 -76q-21 -47 -21 -98
q0 -52 29 -94q36 -49 90 -76q-33 -15 -61 -36t-49 -48q-38 -55 -37 -122q0 -53 23 -99q26 -44 69 -72q50 -32 108 -44q51 -10 104 -11zM501 406q-40 15 -66 48q-20 27 -19 61q-1 36 22 64q25 27 63 28q38 -1 62 -30q22 -28 22 -62q-1 -36 -23 -65q-25 -30 -61 -44zM501 73
q-45 0 -76 31q-27 30 -26 71q0 44 30 76q30 30 72 41q46 -12 77 -48q24 -31 24 -69q0 -41 -25 -71q-32 -32 -76 -31zM161 -58q-86 190 -87 400q0 109 25 216q21 93 63 179h-90q-35 -88 -52 -180q-20 -107 -20 -215t20 -214q17 -96 52 -186h89zM929 -58q34 90 51 186
q19 106 20 214q-1 108 -20 215q-18 92 -51 180h-90q41 -86 62 -179q25 -107 26 -216q-2 -210 -87 -400h89z" />
    <glyph glyph-name="uni247C" unicode="&#x247c;" 
d="M430 207q91 0 162 58q0 -71 -40 -128q-21 -27 -51 -43q-31 -15 -65 -15q-65 -1 -125 21l-58 -137q42 -19 88 -28q59 -12 120 -13q60 2 118 21q73 29 124 87q25 31 45 67q20 39 33 81q28 96 28 198q0 85 -24 166q-22 69 -69 124q-46 50 -109 73q-52 17 -106 18
q-65 0 -126 -23q-55 -22 -97 -65q-41 -45 -59 -103q-14 -49 -14 -100q0 -47 11 -93q13 -51 46 -92q30 -36 73 -56q46 -18 95 -18zM495 606q38 -2 62 -33q15 -20 23 -44q9 -28 12 -57q3 -40 2 -79q-38 -49 -99 -51q-45 1 -70 38q-14 21 -20 47q-4 23 -4 48q-1 24 4 48
q6 25 20 47q26 35 70 36zM161 -58q-86 190 -87 400q0 109 25 216q21 93 63 179h-90q-35 -88 -52 -180q-20 -107 -20 -215t20 -214q17 -96 52 -186h89zM929 -58q34 90 51 186q19 106 20 214q-1 108 -20 215q-18 92 -51 180h-90q41 -86 62 -179q25 -107 26 -216
q-2 -210 -87 -400h89z" />
    <glyph glyph-name="uni247D" unicode="&#x247d;" 
d="M377 -58v795h-92l-120 -111v-125l74 37v-596h138zM641 757q-49 -2 -88 -31q-20 -16 -36 -37q-18 -25 -31 -52q-32 -72 -42 -149q-11 -74 -10 -149q-1 -76 10 -151q10 -77 42 -148q13 -27 31 -51q16 -20 36 -37q39 -29 88 -30q47 1 86 30q20 17 36 37q17 24 30 51
q31 71 42 148q9 75 10 151q-1 75 -10 150q-11 77 -42 149q-13 27 -30 52q-16 20 -36 37q-39 29 -86 30zM641 82q-7 0 -12 4q-6 6 -11 14q-12 27 -17 56q-15 90 -13 183q-2 92 12 183q4 29 17 56q7 15 24 19q16 -4 23 -19q12 -27 17 -56q14 -91 13 -183q1 -93 -14 -183
q-5 -29 -17 -56q-7 -15 -22 -18zM161 -58q-86 190 -87 400q0 109 25 216q21 93 63 179h-90q-35 -88 -52 -180q-20 -107 -20 -215t20 -214q17 -96 52 -186h89zM929 -58q34 90 51 186q19 106 20 214q-1 108 -20 215q-18 92 -51 180h-90q41 -86 62 -179q25 -107 26 -216
q-2 -210 -87 -400h89z" />
    <glyph glyph-name="uni247E" unicode="&#x247e;" 
d="M445 -58v795h-112l-147 -114v-137l105 52v-596h154zM768 -58v795h-112l-147 -114v-137l107 52v-596h152zM161 -58q-86 190 -87 400q0 109 25 216q21 93 63 179h-90q-35 -88 -52 -180q-20 -107 -20 -215t20 -214q17 -96 52 -186h89zM929 -58q34 90 51 186q19 106 20 214
q-1 108 -20 215q-18 92 -51 180h-90q41 -86 62 -179q25 -107 26 -216q-2 -210 -87 -400h89z" />
    <glyph glyph-name="uni247F" unicode="&#x247f;" 
d="M369 -58v795h-102l-117 -87v-137l83 37v-608h136zM830 92h-205q61 78 114 164q39 66 63 140q21 62 23 128q-1 50 -16 98q-15 43 -45 77q-30 31 -72 46q-35 11 -71 12q-47 -1 -91 -17q-46 -18 -83 -49l7 -151q28 22 62 37q32 14 68 15q36 0 62 -26q20 -26 20 -59
q-2 -43 -16 -84q-19 -55 -48 -105q-73 -126 -164 -238v-138h392v150zM161 -58q-86 190 -87 400q0 109 25 216q21 93 63 179h-90q-35 -88 -52 -180q-20 -107 -20 -215t20 -214q17 -96 52 -186h89zM929 -58q34 90 51 186q19 106 20 214q-1 108 -20 215q-18 92 -51 180h-90
q41 -86 62 -179q25 -107 26 -216q-2 -210 -87 -400h89z" />
    <glyph glyph-name="uni2480" unicode="&#x2480;" 
d="M722 360q45 26 72 71q30 53 30 115q-1 37 -11 73q-13 41 -42 74q-30 31 -68 47q-42 16 -86 17q-89 -3 -165 -48l1 -153q59 34 129 36q36 1 63 -23q20 -24 20 -55q0 -35 -19 -64q-22 -28 -57 -29h-49v-137h50q37 -2 62 -30q23 -30 23 -67q-1 -23 -7 -45q-6 -18 -18 -33
q-26 -25 -62 -24t-68 16t-59 39l-43 -141q77 -75 185 -77q40 1 79 12q47 16 83 49q36 34 54 79q19 49 20 103q1 60 -26 113q-32 56 -91 82zM369 -58v795h-100l-114 -87v-137l80 37v-608h134zM161 -58q-86 190 -87 400q0 109 25 216q21 93 63 179h-90q-35 -88 -52 -180
q-20 -107 -20 -215t20 -214q17 -96 52 -186h89zM929 -58q34 90 51 186q19 106 20 214q-1 108 -20 215q-18 92 -51 180h-90q41 -86 62 -179q25 -107 26 -216q-2 -210 -87 -400h89z" />
    <glyph glyph-name="uni2481" unicode="&#x2481;" 
d="M638 -58h138v135h103v142h-103v517h-175l-206 -537v-122h243v-135zM358 -58v795h-101l-116 -111v-127l83 52v-609h134zM161 -58q-86 190 -87 400q0 109 25 216q21 93 63 179h-90q-35 -88 -52 -180q-20 -107 -20 -215t20 -214q17 -96 52 -186h89zM929 -58q34 90 51 186
q19 106 20 214q-1 108 -20 215q-18 92 -51 180h-90q41 -86 62 -179q25 -107 26 -216q-2 -210 -87 -400h89zM548 218l91 274v-274h-91z" />
    <glyph glyph-name="uni2482" unicode="&#x2482;" 
d="M372 -58v795h-107l-138 -113v-143l99 53v-592h146zM660 443q-38 -1 -75 -9l2 139h214v164h-356l-9 -413l40 -37q48 28 105 32q42 0 71 -30q15 -17 23 -38q7 -25 8 -50q-1 -28 -8 -55q-7 -22 -22 -40q-30 -31 -73 -30q-31 0 -59 10q-37 12 -69 33l-40 -141q92 -55 201 -56
q110 2 181 86q34 44 49 99q12 46 13 94q-1 42 -11 83q-13 47 -42 86q-27 33 -65 54q-37 18 -78 19zM161 -58q-86 190 -87 400q0 109 25 216q21 93 63 179h-90q-35 -88 -52 -180q-20 -107 -20 -215t20 -214q17 -96 52 -186h89zM929 -58q34 90 51 186q19 106 20 214
q-1 108 -20 215q-18 92 -51 180h-90q41 -86 62 -179q25 -107 26 -216q-2 -210 -87 -400h89z" />
    <glyph glyph-name="uni2483" unicode="&#x2483;" 
d="M688 472q-32 -1 -61 -13q-33 -16 -57 -42q3 33 11 66q10 36 32 67q39 52 106 54q45 -1 91 -9l3 148q-64 13 -129 14q-65 -1 -120 -33q-28 -18 -51 -41q-23 -26 -42 -56q-19 -35 -33 -72q-15 -43 -24 -88q-13 -79 -13 -159q0 -67 10 -133q12 -72 46 -137q29 -52 78 -85
q49 -30 107 -31q51 1 96 24q44 25 73 65q31 48 43 104q10 48 11 98q-1 46 -10 91q-11 49 -37 92q-23 34 -59 56q-33 19 -71 20zM637 73q-12 0 -21 6q-15 11 -24 28q-23 47 -24 100q-2 39 1 79q8 21 26 35q19 14 42 16q17 -1 32 -11q16 -13 25 -31q21 -44 20 -92
q-1 -25 -5 -49t-16 -46q-19 -33 -56 -35zM361 -58v795h-108l-118 -97v-142l79 44v-600h147zM161 -58q-86 190 -87 400q0 109 25 216q21 93 63 179h-90q-35 -88 -52 -180q-20 -107 -20 -215t20 -214q17 -96 52 -186h89zM929 -58q34 90 51 186q19 106 20 214q-1 108 -20 215
q-18 92 -51 180h-90q41 -86 62 -179q25 -107 26 -216q-2 -210 -87 -400h89z" />
    <glyph glyph-name="uni2484" unicode="&#x2484;" 
d="M371 -58v795h-107l-99 -102v-137l70 40v-596h136zM642 -58q23 167 68 330q45 165 118 321v144h-391v-163h227q-62 -127 -102 -262q-53 -182 -84 -370h164zM161 -58q-86 190 -87 400q0 109 25 216q21 93 63 179h-90q-35 -88 -52 -180q-20 -107 -20 -215t20 -214
q17 -96 52 -186h89zM929 -58q34 90 51 186q19 106 20 214q-1 108 -20 215q-18 92 -51 180h-90q41 -86 62 -179q25 -107 26 -216q-2 -210 -87 -400h89z" />
    <glyph glyph-name="uni2485" unicode="&#x2485;" 
d="M367 -58v795h-111l-112 -89v-137l80 37v-606h143zM624 -78q40 1 80 11q46 14 83 45q35 30 53 74q18 48 19 100q0 63 -30 119q-33 53 -87 83q46 30 72 80q23 48 23 103q-1 48 -16 94q-16 41 -46 72q-32 30 -74 43q-37 10 -74 11q-37 -1 -72 -11q-42 -14 -75 -44
q-32 -32 -48 -73q-17 -47 -16 -97q-1 -54 24 -101q27 -47 73 -77q-54 -31 -84 -84q-30 -58 -28 -122q-1 -51 17 -99q17 -42 51 -72q34 -31 79 -44q37 -10 76 -11zM627 413q-24 14 -39 39q-15 29 -14 63q-1 33 14 64q7 12 18 20q9 7 21 8q24 -2 36 -23q17 -32 16 -68
q0 -32 -12 -61q-13 -28 -40 -42zM628 73q-32 2 -48 31q-17 33 -16 71q-1 38 19 72q16 27 44 41q34 -15 53 -48q16 -31 16 -65q0 -38 -17 -71q-8 -14 -22 -23q-14 -8 -29 -8zM161 -58q-86 190 -87 400q0 109 25 216q21 93 63 179h-90q-35 -88 -52 -180q-20 -107 -20 -215
t20 -214q17 -96 52 -186h89zM929 -58q34 90 51 186q19 106 20 214q-1 108 -20 215q-18 92 -51 180h-90q41 -86 62 -179q25 -107 26 -216q-2 -210 -87 -400h89z" />
    <glyph glyph-name="uni2486" unicode="&#x2486;" 
d="M347 -58v795h-108l-100 -92v-137l68 30v-596h140zM567 207q76 2 130 58q-1 -41 -11 -80q-10 -33 -29 -61q-32 -43 -85 -45q-50 0 -94 21l-45 -137q31 -19 67 -28q47 -12 96 -13q47 2 91 21q28 15 51 36q25 23 44 51q20 32 35 67q15 39 25 81q22 97 22 198q0 84 -19 166
q-16 67 -54 124q-34 48 -86 73q-40 16 -83 18q-50 -1 -95 -23q-44 -24 -74 -65q-32 -47 -45 -103q-11 -50 -11 -100q-1 -47 8 -93q9 -49 34 -92q21 -35 55 -56q34 -18 73 -18zM618 606q12 -1 24 -7q16 -10 26 -26q12 -21 19 -44q7 -28 10 -57q2 -40 2 -79q-16 -24 -39 -39
q-20 -12 -42 -12q-16 0 -28 9q-15 12 -23 29q-19 45 -17 95q-1 24 3 48t14 47q8 16 23 27q12 8 28 9zM161 -58q-86 190 -87 400q0 109 25 216q21 93 63 179h-90q-35 -88 -52 -180q-20 -107 -20 -215t20 -214q17 -96 52 -186h89zM929 -58q34 90 51 186q19 106 20 214
q-1 108 -20 215q-18 92 -51 180h-90q41 -86 62 -179q25 -107 26 -216q-2 -210 -87 -400h89z" />
    <glyph glyph-name="uni2487" unicode="&#x2487;" 
d="M491 88h-171q48 81 89 166q33 69 52 144q17 64 19 131q0 52 -12 103q-11 40 -36 73q-25 29 -61 42q-29 9 -60 10q-81 -2 -145 -51v-141q43 32 98 35q31 0 54 -22q11 -13 17 -30q5 -20 6 -40q-1 -49 -14 -96q-15 -58 -40 -112q-54 -116 -118 -224v-134h322v146zM692 757
q-48 -1 -85 -30q-19 -16 -35 -37q-16 -25 -29 -52q-28 -72 -37 -149q-10 -75 -9 -150q-1 -75 9 -149q9 -77 37 -149q13 -27 29 -51q16 -21 35 -37q37 -30 85 -31q48 1 85 32q19 17 34 39q16 24 28 52q27 72 36 148q8 73 9 146q-1 74 -9 149q-9 77 -36 149q-12 27 -28 52
q-15 21 -34 37q-38 30 -85 31zM692 83q-6 0 -11 4q-6 7 -10 15q-12 27 -17 56q-16 90 -14 181q-2 91 14 180q5 30 17 57q4 8 10 15q5 4 11 5q15 -4 22 -20q12 -27 16 -57q14 -89 13 -180q1 -91 -13 -181q-4 -29 -16 -56q-7 -16 -22 -19zM161 -58q-86 190 -87 400
q0 109 25 216q21 93 63 179h-90q-35 -88 -52 -180q-20 -107 -20 -215t20 -214q17 -96 52 -186h89zM929 -58q34 90 51 186q19 106 20 214q-1 108 -20 215q-18 92 -51 180h-90q41 -86 62 -179q25 -107 26 -216q-2 -210 -87 -400h89z" />
    <glyph glyph-name="uni2488" unicode="&#x2488;" 
d="M582 -58v795h-143l-185 -114v-137l142 52v-596h186zM693 -58h199v189h-199v-189z" />
    <glyph glyph-name="uni2489" unicode="&#x2489;" 
d="M705 92h-289q85 78 163 166q54 60 89 133q30 63 32 133q-1 41 -12 81q-16 48 -51 83q-37 35 -86 51q-57 17 -116 18q-60 -2 -117 -20q-65 -20 -123 -56l7 -151q40 26 86 43q47 17 96 19q50 0 91 -28q30 -23 32 -61q-2 -43 -22 -82q-29 -54 -69 -100q-43 -51 -89 -99
q-70 -73 -142 -142v-138h520v150zM771 -58h199v189h-199v-189z" />
    <glyph glyph-name="uni248A" unicode="&#x248a;" 
d="M555 360q54 24 91 71q36 51 36 115q-1 88 -67 147q-37 31 -84 47q-52 16 -105 17q-60 -1 -118 -14q-48 -12 -91 -34l1 -156q36 19 76 28q42 10 85 11q23 -1 45 -6q19 -6 35 -17q26 -22 27 -55q-1 -37 -25 -64q-31 -30 -73 -29h-61v-137h62q44 -1 78 -30q28 -28 29 -67
q0 -47 -35 -78q-36 -25 -79 -24q-38 0 -73 12q-43 16 -80 43l-65 -141q106 -74 236 -77q50 1 100 12q58 15 107 49q43 32 70 79q24 48 25 103q1 71 -42 126q-43 49 -105 69zM763 -58h199v189h-199v-189z" />
    <glyph glyph-name="uni248B" unicode="&#x248b;" 
d="M406 -58h196v135h136v153h-136v506h-259l-287 -526v-133h350v-135zM793 -58h199v189h-199v-189zM239 229l173 329v-329h-173z" />
    <glyph glyph-name="uni248C" unicode="&#x248c;" 
d="M471 443q-46 0 -91 -9l5 139h281v165h-476l-13 -414l48 -37q67 29 141 32q23 -1 47 -6q26 -7 47 -24q39 -35 39 -88q-1 -48 -35 -81q-43 -37 -99 -37q-88 -2 -166 39l-52 -141q54 -28 114 -42q69 -16 140 -17q67 0 131 22q56 20 99 61q42 42 61 99q14 48 15 98
q-1 41 -12 82q-14 48 -47 85q-32 36 -77 55q-48 19 -100 19zM786 -58h199v189h-199v-189z" />
    <glyph glyph-name="uni248D" unicode="&#x248d;" 
d="M494 472q-92 -1 -162 -58q2 43 18 83q15 34 43 60q30 24 68 34q33 8 67 9q65 -2 130 -17l4 151q-88 23 -178 23q-43 -1 -84 -9q-39 -9 -75 -26q-72 -36 -120 -99q-25 -35 -43 -73q-19 -42 -30 -87q-17 -77 -17 -155q-1 -86 23 -168q22 -70 69 -126q46 -49 109 -74
q52 -16 107 -18q64 0 125 23q55 22 97 64q41 45 59 103q14 49 15 101q-1 46 -12 92q-13 51 -46 92q-30 36 -73 56q-46 18 -94 19zM429 73q-39 1 -62 34q-15 20 -23 44q-9 29 -12 59q-5 37 -2 76q37 48 99 51q44 -2 69 -39q14 -22 20 -47q4 -23 5 -47q-1 -25 -5 -49
q-6 -25 -20 -47q-26 -35 -69 -35zM788 -58h199v189h-199v-189z" />
    <glyph glyph-name="uni248E" unicode="&#x248e;" 
d="M481 -78q33 173 96 339q34 91 77 179q39 79 88 153v144h-548v-163h343q-199 -302 -287 -652h231zM717 -58h199v189h-199v-189z" />
    <glyph glyph-name="uni248F" unicode="&#x248f;" 
d="M395 -78q52 1 104 11q59 13 110 45q43 28 69 74q24 47 25 100q0 66 -40 119q-22 27 -50 47q-31 21 -64 36q57 28 95 79q32 47 32 104q0 49 -21 94q-22 43 -61 72q-46 31 -99 43q-48 10 -97 11q-50 -1 -98 -12q-54 -13 -99 -47q-39 -31 -61 -76q-21 -47 -21 -98
q0 -52 29 -94q36 -49 90 -76q-33 -15 -61 -36t-49 -48q-38 -55 -37 -122q0 -53 23 -99q26 -44 69 -72q50 -32 108 -44q51 -10 104 -11zM398 406q-40 15 -66 48q-20 27 -19 61q-1 36 22 64q25 27 63 28q38 -1 62 -30q22 -28 22 -62q-1 -36 -23 -65q-25 -30 -61 -44zM398 73
q-45 0 -76 31q-27 30 -26 71q0 44 30 76q30 30 72 41q46 -12 77 -48q24 -31 24 -69q0 -41 -25 -71q-32 -32 -76 -31zM771 -58h199v189h-199v-189z" />
    <glyph glyph-name="uni2490" unicode="&#x2490;" 
d="M343 207q91 0 162 58q0 -71 -40 -128q-21 -27 -51 -43q-31 -15 -65 -15q-65 -1 -125 21l-58 -137q42 -19 88 -28q59 -12 120 -13q60 2 118 21q73 29 124 87q25 31 45 67q20 39 33 81q28 96 28 198q0 85 -24 166q-22 69 -69 124q-46 50 -109 73q-52 17 -106 18
q-65 0 -126 -23q-55 -22 -97 -65q-41 -45 -59 -103q-14 -49 -14 -100q0 -47 11 -93q13 -51 46 -92q30 -36 73 -56q46 -18 95 -18zM408 606q38 -2 62 -33q15 -20 23 -44q9 -28 12 -57q3 -40 2 -79q-38 -49 -99 -51q-45 1 -70 38q-14 21 -20 47q-4 23 -4 48q-1 24 4 48
q6 25 20 47q26 35 70 36zM776 -58h199v189h-199v-189z" />
    <glyph glyph-name="uni2491" unicode="&#x2491;" 
d="M258 -58v795h-116l-139 -114v-137l96 52v-596h159zM571 757q-62 0 -115 -31q-25 -16 -46 -38q-21 -24 -37 -53q-17 -32 -29 -67q-12 -40 -19 -81q-12 -74 -11 -148q-1 -75 11 -148q7 -42 19 -81q12 -35 29 -67q16 -29 37 -52q21 -22 46 -38q53 -31 115 -31q61 0 114 31
q25 16 46 38q21 23 37 52q17 32 29 67q12 39 19 81q11 73 12 148q-1 74 -12 148q-7 41 -19 81q-12 35 -29 67q-16 29 -37 53q-21 22 -46 38q-53 31 -114 31zM571 82q-22 1 -36 17q-19 24 -28 54q-13 45 -17 92q-5 46 -4 94q-1 47 4 94q4 47 17 92q9 30 28 54q14 16 36 18
q20 -2 34 -18q19 -25 28 -54q12 -45 16 -92t5 -94q-1 -48 -5 -94q-4 -47 -16 -92q-9 -29 -28 -54q-14 -16 -34 -17zM847 -58h153v189h-153v-189z" />
    <glyph glyph-name="uni2492" unicode="&#x2492;" 
d="M325 -58v795h-123l-159 -114v-137l116 52v-596h166zM725 -58v795h-123l-159 -114v-137l116 52v-596h166zM838 -58h153v189h-153v-189z" />
    <glyph glyph-name="uni2493" unicode="&#x2493;" 
d="M265 -58v795h-123l-138 -107v-137l103 45v-596h158zM838 -58h153v189h-153v-189zM790 92h-249q74 79 141 166q46 61 76 133q25 64 27 133q-1 41 -11 81q-12 47 -43 83q-31 34 -74 51q-49 17 -100 18q-52 -2 -100 -20q-57 -21 -105 -56l7 -151q34 26 74 43q39 17 82 19
q44 0 78 -28q26 -25 27 -61q-2 -43 -19 -82q-24 -54 -60 -100q-36 -51 -76 -99q-59 -72 -121 -142v-138h446v150z" />
    <glyph glyph-name="uni2494" unicode="&#x2494;" 
d="M265 -58v795h-123l-138 -107v-137l103 45v-596h158zM838 -58h153v189h-153v-189zM663 360q50 25 82 71q33 52 33 115q-1 37 -12 73q-16 42 -48 74q-34 31 -77 47q-46 16 -95 17q-54 -1 -106 -14q-43 -12 -82 -34l1 -156q32 19 69 28q38 10 77 11q40 1 71 -23
q24 -23 24 -55q0 -36 -23 -64q-26 -29 -65 -29h-55v-137h56q41 -1 70 -30q26 -29 27 -67q0 -46 -32 -78q-31 -25 -71 -24q-34 0 -66 12q-39 16 -72 43l-59 -141q48 -37 106 -58q52 -18 108 -19q45 1 90 12q53 15 96 49q84 71 86 182q-1 35 -10 69q-9 31 -28 57
q-38 48 -95 69z" />
    <glyph glyph-name="uni2495" unicode="&#x2495;" 
d="M546 -58h153v135h115v153h-115v506h-201l-223 -526v-133h271v-135zM245 -58v795h-117l-128 -107v-137l95 45v-596h150zM838 -58h153v189h-153v-189zM420 229l128 307v-307h-128z" />
    <glyph glyph-name="uni2496" unicode="&#x2496;" 
d="M245 -58v795h-117l-128 -107v-137l95 45v-596h150zM837 -58h153v189h-153v-189zM579 443q-43 0 -85 -9l5 139h261v165h-430l-12 -414l44 -37q60 29 127 32q21 -1 43 -6q24 -7 44 -23q18 -16 27 -38q9 -25 10 -51q0 -48 -32 -82q-39 -37 -93 -36q-81 -1 -150 39l-47 -141
q48 -28 103 -42q62 -16 126 -17q61 0 118 22q52 20 91 60q38 44 54 99q13 48 14 98q-1 41 -11 82q-13 47 -43 86q-30 35 -72 54q-44 19 -92 20z" />
    <glyph glyph-name="uni2497" unicode="&#x2497;" 
d="M628 472q-82 -2 -139 -58q1 42 15 83q12 34 37 60q25 24 58 34q28 8 58 9q56 -1 112 -15l3 151q-75 21 -152 21q-73 -1 -137 -35q-30 -18 -56 -42q-26 -26 -47 -57q-21 -35 -37 -73q-16 -42 -25 -87q-15 -77 -15 -155q-1 -86 20 -168q18 -68 59 -126q37 -48 94 -74
q44 -17 92 -18q55 1 107 23q48 23 83 64q35 47 50 103q12 50 13 101q-1 46 -10 92q-12 50 -39 92q-26 35 -64 56q-38 18 -80 19zM571 73q-14 0 -25 6q-17 11 -27 28q-13 21 -19 44q-8 29 -11 59q-5 37 -2 76q13 21 34 35q23 14 50 16q40 -3 60 -39q12 -22 17 -47
q4 -24 5 -47q-1 -25 -5 -49q-4 -25 -17 -47q-21 -34 -60 -35zM245 -58v795h-117l-128 -107v-137l95 45v-596h150zM847 -58h143v189h-143v-189z" />
    <glyph glyph-name="uni2498" unicode="&#x2498;" 
d="M315 -58v795h-123l-138 -107v-137l103 45v-596h158zM831 -58h153v189h-153v-189zM674 -78q28 172 82 339q55 173 143 332v144h-470v-163h293q-89 -151 -149 -314q-61 -166 -96 -338h197z" />
    <glyph glyph-name="uni2499" unicode="&#x2499;" 
d="M258 -58v795h-119l-138 -107v-137l103 45v-596h154zM837 -58h153v189h-153v-189zM554 -78q43 1 85 11q49 13 89 45q37 30 57 74q20 48 20 100q0 64 -32 119q-36 53 -94 83q49 29 78 79q26 48 26 104q-1 49 -18 94q-17 42 -49 72q-36 30 -81 43q-38 10 -78 11
q-41 -1 -80 -12q-45 -14 -80 -47q-34 -32 -50 -76q-18 -48 -17 -98q0 -50 23 -94q28 -47 74 -76q-56 -30 -90 -84q-31 -57 -30 -122q-1 -52 19 -99q19 -43 55 -72q40 -31 88 -44q42 -10 85 -11zM557 406q-29 13 -45 41q-16 32 -14 68q-1 20 4 40q4 16 13 30q15 21 42 22
q27 -1 42 -23q17 -33 16 -69q0 -34 -14 -65q-15 -29 -44 -44zM557 73q-32 0 -52 23q-11 15 -16 34q-6 22 -5 45q-2 41 19 76q20 29 54 41q33 -12 53 -40q20 -36 19 -77q0 -23 -6 -45q-5 -18 -15 -34q-20 -24 -51 -23z" />
    <glyph glyph-name="uni249A" unicode="&#x249a;" 
d="M261 -58v795h-119l-138 -107v-137l103 45v-596h154zM838 -58h153v189h-153v-189zM515 207q81 1 139 58q0 -69 -35 -128q-17 -26 -43 -43q-27 -15 -56 -15q-56 -1 -107 21l-50 -137q35 -19 75 -28q51 -12 103 -13q52 2 102 21q30 15 57 36q27 23 49 51q22 32 39 67
q17 39 28 81q24 97 24 198q0 84 -21 166q-18 68 -59 124q-37 49 -94 73q-44 16 -91 18q-56 -1 -108 -23q-48 -23 -83 -65q-35 -47 -50 -103q-12 -50 -12 -100q0 -47 9 -93q11 -50 39 -92q26 -35 64 -56q38 -18 81 -18zM571 606q13 -1 25 -7q17 -10 28 -26q12 -21 19 -44
q8 -28 11 -57q3 -40 2 -79q-14 -22 -36 -36q-22 -15 -49 -15q-18 0 -34 9q-16 11 -26 29q-23 44 -21 95q-1 24 4 48q4 25 17 47q20 34 60 36z" />
    <glyph glyph-name="uni249B" unicode="&#x249b;" 
d="M400 92h-210q67 76 122 162q41 63 66 135q23 66 24 135q-1 41 -9 81q-11 46 -39 83q-27 34 -67 51q-46 17 -94 18q-46 -1 -88 -19q-48 -23 -88 -57l7 -149q32 27 70 46q29 13 60 14q34 0 58 -24q25 -31 24 -71q-1 -47 -16 -90q-15 -46 -40 -87q-76 -127 -170 -240v-138
h390v150zM639 757q-56 -1 -101 -31q-22 -17 -40 -38q-19 -25 -33 -53q-31 -71 -41 -148q-10 -74 -9 -148q-1 -75 9 -148q10 -77 41 -148q14 -28 33 -52q18 -21 40 -38q45 -30 101 -31q55 1 100 31q22 17 40 38q19 24 33 52q31 71 41 148q9 73 10 148q-1 74 -10 148
q-10 77 -41 148q-14 28 -33 53q-18 21 -40 38q-45 30 -100 31zM639 82q-13 1 -21 11q-15 21 -20 47q-10 41 -13 83q-5 58 -4 116q-1 58 4 115q3 42 13 84q5 26 20 47q8 10 21 12q12 -2 20 -12q15 -22 20 -47q10 -42 13 -84q5 -58 5 -115q0 -58 -5 -116q-3 -42 -13 -83
q-6 -26 -20 -47q-8 -10 -20 -11zM865 -58h133v189h-133v-189z" />
    <glyph glyph-name="SF100000" unicode="&#x2500;" 
d="M0 325v-51h1000v51h-1000z" />
    <glyph glyph-name="uni2501" unicode="&#x2501;" 
d="M0 356v-113h1000v113h-1000z" />
    <glyph glyph-name="SF110000" unicode="&#x2502;" 
d="M473 802v-993h50v993h-50z" />
    <glyph glyph-name="uni2503" unicode="&#x2503;" 
d="M437 802v-993h114v993h-114z" />
    <glyph glyph-name="uni2504" unicode="&#x2504;" 
d="M55 325v-51h218v51h-218zM727 325v-51h218v51h-218zM391 325v-51h218v51h-218z" />
    <glyph glyph-name="uni2505" unicode="&#x2505;" 
d="M55 356v-113h218v113h-218zM727 356v-113h218v113h-218zM391 356v-113h218v113h-218z" />
    <glyph glyph-name="uni2506" unicode="&#x2506;" 
d="M469 747v-223h51v223h-51zM469 411v-223h51v223h-51zM469 75v-215h51v215h-51z" />
    <glyph glyph-name="uni2507" unicode="&#x2507;" 
d="M437 747v-223h114v223h-114zM437 411v-223h114v223h-114zM437 75v-215h114v215h-114z" />
    <glyph glyph-name="uni2508" unicode="&#x2508;" 
d="M47 325v-51h156v51h-156zM297 325v-51h156v51h-156zM547 325v-51h156v51h-156zM797 325v-51h156v51h-156z" />
    <glyph glyph-name="uni2509" unicode="&#x2509;" 
d="M47 356v-113h156v113h-156zM297 356v-113h156v113h-156zM547 356v-113h156v113h-156zM797 356v-113h156v113h-156z" />
    <glyph glyph-name="uni250A" unicode="&#x250a;" 
d="M469 755v-157h51v157h-51zM469 505v-157h51v157h-51zM469 255v-157h51v157h-51zM469 5v-149h51v149h-51z" />
    <glyph glyph-name="uni250B" unicode="&#x250b;" 
d="M437 755v-157h114v157h-114zM437 505v-157h114v157h-114zM437 255v-157h114v157h-114zM437 5v-149h114v149h-114z" />
    <glyph glyph-name="SF010000" unicode="&#x250c;" 
d="M473 325v-516h50v465h477v51h-527z" />
    <glyph glyph-name="uni250D" unicode="&#x250d;" 
d="M473 356v-547h50v434h477v113h-527z" />
    <glyph glyph-name="uni250E" unicode="&#x250e;" 
d="M441 325v-516h114v465h445v51h-559z" />
    <glyph glyph-name="uni250F" unicode="&#x250f;" 
d="M441 356v-547h114v434h445v113h-559z" />
    <glyph glyph-name="SF030000" unicode="&#x2510;" 
d="M0 325v-51h473v-465h50v516h-523z" />
    <glyph glyph-name="uni2511" unicode="&#x2511;" 
d="M0 356v-113h473v-434h50v547h-523z" />
    <glyph glyph-name="uni2512" unicode="&#x2512;" 
d="M0 325v-51h441v-465h114v516h-555z" />
    <glyph glyph-name="uni2513" unicode="&#x2513;" 
d="M0 356v-113h441v-434h114v547h-555z" />
    <glyph glyph-name="SF020000" unicode="&#x2514;" 
d="M473 802v-528h527v51h-477v477h-50z" />
    <glyph glyph-name="uni2515" unicode="&#x2515;" 
d="M473 802v-559h527v113h-477v446h-50z" />
    <glyph glyph-name="uni2516" unicode="&#x2516;" 
d="M441 802v-528h559v51h-445v477h-114z" />
    <glyph glyph-name="uni2517" unicode="&#x2517;" 
d="M441 802v-559h559v113h-445v446h-114z" />
    <glyph glyph-name="SF040000" unicode="&#x2518;" 
d="M0 325v-51h523v528h-50v-477h-473z" />
    <glyph glyph-name="uni2519" unicode="&#x2519;" 
d="M0 356v-113h523v559h-50v-446h-473z" />
    <glyph glyph-name="uni251A" unicode="&#x251a;" 
d="M0 325v-51h555v528h-114v-477h-441z" />
    <glyph glyph-name="uni251B" unicode="&#x251b;" 
d="M0 356v-113h555v559h-114v-446h-441z" />
    <glyph glyph-name="SF080000" unicode="&#x251c;" 
d="M473 802v-993h50v465h477v51h-477v477h-50z" />
    <glyph glyph-name="uni251D" unicode="&#x251d;" 
d="M473 802v-993h50v434h477v113h-477v446h-50z" />
    <glyph glyph-name="uni251E" unicode="&#x251e;" 
d="M441 802v-497h32v-496h50v465h477v51h-445v477h-114z" />
    <glyph glyph-name="uni251F" unicode="&#x251f;" 
d="M441 294v-485h114v465h445v51h-477v477h-50v-508h-32z" />
    <glyph glyph-name="uni2520" unicode="&#x2520;" 
d="M441 802v-993h114v465h445v51h-445v477h-114z" />
    <glyph glyph-name="uni2521" unicode="&#x2521;" 
d="M441 802v-559h32v-434h50v434h477v113h-445v446h-114z" />
    <glyph glyph-name="uni2522" unicode="&#x2522;" 
d="M441 356v-547h114v434h445v113h-477v446h-50v-446h-32z" />
    <glyph glyph-name="uni2523" unicode="&#x2523;" 
d="M441 802v-993h114v434h445v113h-445v446h-114z" />
    <glyph glyph-name="SF090000" unicode="&#x2524;" 
d="M0 325v-51h473v-465h50v993h-50v-477h-473z" />
    <glyph glyph-name="uni2525" unicode="&#x2525;" 
d="M0 356v-113h473v-434h50v993h-50v-446h-473z" />
    <glyph glyph-name="uni2526" unicode="&#x2526;" 
d="M0 325v-51h473v-465h50v496h32v497h-114v-477h-441z" />
    <glyph glyph-name="uni2527" unicode="&#x2527;" 
d="M0 325v-51h441v-465h114v485h-32v508h-50v-477h-473z" />
    <glyph glyph-name="uni2528" unicode="&#x2528;" 
d="M0 325v-51h441v-465h114v993h-114v-477h-441z" />
    <glyph glyph-name="uni2529" unicode="&#x2529;" 
d="M0 356v-113h473v-434h50v434h32v559h-114v-446h-441z" />
    <glyph glyph-name="uni252A" unicode="&#x252a;" 
d="M0 356v-113h441v-434h114v547h-32v446h-50v-446h-473z" />
    <glyph glyph-name="uni252B" unicode="&#x252b;" 
d="M0 356v-113h441v-434h114v993h-114v-446h-441z" />
    <glyph glyph-name="SF060000" unicode="&#x252c;" 
d="M0 325v-51h473v-465h50v465h477v51h-1000z" />
    <glyph glyph-name="uni252D" unicode="&#x252d;" 
d="M0 356v-113h473v-438h50v469h477v51h-477v31h-523z" />
    <glyph glyph-name="uni252E" unicode="&#x252e;" 
d="M0 325v-51h473v-465h50v434h477v113h-527v-31h-473z" />
    <glyph glyph-name="uni252F" unicode="&#x252f;" 
d="M0 356v-113h473v-434h50v434h477v113h-1000z" />
    <glyph glyph-name="uni2530" unicode="&#x2530;" 
d="M0 325v-51h441v-465h114v465h445v51h-1000z" />
    <glyph glyph-name="uni2531" unicode="&#x2531;" 
d="M0 356v-113h441v-434h114v465h445v51h-445v31h-555z" />
    <glyph glyph-name="uni2532" unicode="&#x2532;" 
d="M0 325v-51h441v-465h114v434h445v113h-559v-31h-441z" />
    <glyph glyph-name="uni2533" unicode="&#x2533;" 
d="M0 356v-113h441v-434h114v434h445v113h-1000z" />
    <glyph glyph-name="SF070000" unicode="&#x2534;" 
d="M0 325v-51h1000v51h-477v477h-50v-477h-473z" />
    <glyph glyph-name="uni2535" unicode="&#x2535;" 
d="M0 356v-113h523v31h477v51h-477v477h-50v-446h-473z" />
    <glyph glyph-name="uni2536" unicode="&#x2536;" 
d="M0 325v-51h473v-31h527v113h-477v446h-50v-477h-473z" />
    <glyph glyph-name="uni2537" unicode="&#x2537;" 
d="M0 356v-113h1000v113h-477v446h-50v-446h-473z" />
    <glyph glyph-name="uni2538" unicode="&#x2538;" 
d="M0 325v-51h1000v51h-445v477h-114v-477h-441z" />
    <glyph glyph-name="uni2539" unicode="&#x2539;" 
d="M0 356v-113h555v31h445v51h-445v477h-114v-446h-441z" />
    <glyph glyph-name="uni253A" unicode="&#x253a;" 
d="M0 325v-51h441v-31h559v113h-445v446h-114v-477h-441z" />
    <glyph glyph-name="uni253B" unicode="&#x253b;" 
d="M0 356v-113h1000v113h-445v446h-114v-446h-441z" />
    <glyph glyph-name="SF050000" unicode="&#x253c;" 
d="M0 325v-51h473v-465h50v465h477v51h-477v477h-50v-477h-473z" />
    <glyph glyph-name="uni253D" unicode="&#x253d;" 
d="M0 356v-113h473v-434h50v465h477v51h-477v477h-50v-446h-473z" />
    <glyph glyph-name="uni253E" unicode="&#x253e;" 
d="M0 325v-51h473v-465h50v434h477v113h-477v446h-50v-477h-473z" />
    <glyph glyph-name="uni253F" unicode="&#x253f;" 
d="M0 356v-113h473v-434h50v434h477v113h-477v446h-50v-446h-473z" />
    <glyph glyph-name="uni2540" unicode="&#x2540;" 
d="M0 325v-51h473v-465h50v465h477v51h-445v477h-114v-477h-441z" />
    <glyph glyph-name="uni2541" unicode="&#x2541;" 
d="M0 325v-51h441v-465h114v465h445v51h-477v477h-50v-477h-473z" />
    <glyph glyph-name="uni2542" unicode="&#x2542;" 
d="M0 325v-51h441v-465h114v465h445v51h-445v477h-114v-477h-441z" />
    <glyph glyph-name="uni2543" unicode="&#x2543;" 
d="M0 356v-113h473v-434h50v465h477v51h-445v477h-114v-446h-441z" />
    <glyph glyph-name="uni2544" unicode="&#x2544;" 
d="M0 325v-51h473v-465h50v434h477v113h-445v446h-114v-477h-441z" />
    <glyph glyph-name="uni2545" unicode="&#x2545;" 
d="M0 356v-113h441v-434h114v465h445v51h-477v477h-50v-446h-473z" />
    <glyph glyph-name="uni2546" unicode="&#x2546;" 
d="M0 325v-51h441v-465h114v434h445v113h-477v446h-50v-477h-473z" />
    <glyph glyph-name="uni2547" unicode="&#x2547;" 
d="M0 356v-113h473v-434h50v434h477v113h-445v446h-114v-446h-441z" />
    <glyph glyph-name="uni2548" unicode="&#x2548;" 
d="M0 356v-113h441v-434h114v434h445v113h-477v446h-50v-446h-473z" />
    <glyph glyph-name="uni2549" unicode="&#x2549;" 
d="M0 356v-113h441v-434h114v465h445v51h-445v477h-114v-446h-441z" />
    <glyph glyph-name="uni254A" unicode="&#x254a;" 
d="M0 325v-51h441v-465h114v434h445v113h-445v446h-114v-477h-441z" />
    <glyph glyph-name="uni254B" unicode="&#x254b;" 
d="M0 356v-113h441v-434h114v434h445v113h-445v446h-114v-446h-441z" />
    <glyph glyph-name="SF430000" unicode="&#x2550;" 
d="M0 310v-51h1000v51h-1000zM0 203v-51h1000v51h-1000z" />
    <glyph glyph-name="SF240000" unicode="&#x2551;" 
d="M421 731v-990h51v990h-51zM526 731v-990h51v990h-51z" />
    <glyph glyph-name="SF510000" unicode="&#x2552;" 
d="M474 310v-569h50v411h476v51h-476v56h476v51h-526z" />
    <glyph glyph-name="SF520000" unicode="&#x2553;" 
d="M421 256v-515h51v463h54v-463h51v463h423v52h-579z" />
    <glyph glyph-name="SF390000" unicode="&#x2554;" 
d="M421 310v-569h51v518h528v51h-579zM526 203v-462h51v411h423v51h-474z" />
    <glyph glyph-name="SF220000" unicode="&#x2555;" 
d="M0 310v-51h474v-56h-474v-51h474v-411h50v569h-524z" />
    <glyph glyph-name="SF210000" unicode="&#x2556;" 
d="M0 256v-52h421v-463h51v463h54v-463h51v515h-577z" />
    <glyph glyph-name="SF250000" unicode="&#x2557;" 
d="M0 310v-51h526v-518h51v569h-577zM0 203v-51h421v-411h51v462h-472z" />
    <glyph glyph-name="SF500000" unicode="&#x2558;" 
d="M474 731v-579h526v51h-476v56h476v51h-476v421h-50z" />
    <glyph glyph-name="SF490000" unicode="&#x2559;" 
d="M421 731v-527h579v52h-423v475h-51v-475h-54v475h-51z" />
    <glyph glyph-name="SF380000" unicode="&#x255a;" 
d="M526 731v-472h474v51h-423v421h-51zM421 731v-579h579v51h-528v528h-51z" />
    <glyph glyph-name="SF280000" unicode="&#x255b;" 
d="M0 310v-51h474v-56h-474v-51h524v579h-50v-421h-474z" />
    <glyph glyph-name="SF270000" unicode="&#x255c;" 
d="M0 256v-52h577v527h-51v-475h-54v475h-51v-475h-421z" />
    <glyph glyph-name="SF260000" unicode="&#x255d;" 
d="M0 310v-51h472v472h-51v-421h-421zM0 203v-51h577v579h-51v-528h-526z" />
    <glyph glyph-name="SF360000" unicode="&#x255e;" 
d="M474 731v-990h50v411h476v51h-476v56h476v51h-476v421h-50z" />
    <glyph glyph-name="SF370000" unicode="&#x255f;" 
d="M526 731v-990h51v463h423v52h-423v475h-51zM421 731v-990h51v990h-51z" />
    <glyph glyph-name="SF420000" unicode="&#x2560;" 
d="M526 731v-472h474v51h-423v421h-51zM526 203v-462h51v411h423v51h-474zM421 731v-990h51v990h-51z" />
    <glyph glyph-name="SF190000" unicode="&#x2561;" 
d="M0 310v-51h474v-56h-474v-51h474v-411h50v990h-50v-421h-474z" />
    <glyph glyph-name="SF200000" unicode="&#x2562;" 
d="M0 256v-52h421v-463h51v990h-51v-475h-421zM526 731v-990h51v990h-51z" />
    <glyph glyph-name="SF230000" unicode="&#x2563;" 
d="M0 310v-51h472v472h-51v-421h-421zM0 203v-51h421v-411h51v462h-472zM526 731v-990h51v990h-51z" />
    <glyph glyph-name="SF470000" unicode="&#x2564;" 
d="M0 203v-51h474v-411h50v411h476v51h-1000zM0 310v-51h1000v51h-1000z" />
    <glyph glyph-name="SF480000" unicode="&#x2565;" 
d="M0 256v-52h421v-463h51v463h54v-463h51v463h423v52h-1000z" />
    <glyph glyph-name="SF410000" unicode="&#x2566;" 
d="M0 203v-51h421v-411h51v462h-472zM526 203v-462h51v411h423v51h-474zM0 310v-51h1000v51h-1000z" />
    <glyph glyph-name="SF450000" unicode="&#x2567;" 
d="M0 310v-51h1000v51h-476v421h-50v-421h-474zM0 203v-51h1000v51h-1000z" />
    <glyph glyph-name="SF460000" unicode="&#x2568;" 
d="M0 256v-52h1000v52h-423v475h-51v-475h-54v475h-51v-475h-421z" />
    <glyph glyph-name="SF400000" unicode="&#x2569;" 
d="M0 310v-51h472v472h-51v-421h-421zM526 731v-472h474v51h-423v421h-51zM0 203v-51h1000v51h-1000z" />
    <glyph glyph-name="SF540000" unicode="&#x256a;" 
d="M0 310v-51h474v-56h-474v-51h474v-411h50v411h476v51h-476v56h476v51h-476v421h-50v-421h-474z" />
    <glyph glyph-name="SF530000" unicode="&#x256b;" 
d="M0 256v-52h421v-463h51v463h54v-463h51v463h423v52h-423v475h-51v-475h-54v475h-51v-475h-421z" />
    <glyph glyph-name="SF440000" unicode="&#x256c;" 
d="M526 731v-472h474v51h-423v421h-51zM0 310v-51h472v472h-51v-421h-421zM0 203v-51h421v-411h51v462h-472zM526 203v-462h51v411h423v51h-474z" />
    <glyph glyph-name="uni256D" unicode="&#x256d;" 
d="M489 -199h33q7 80 32 155q16 44 39 86q23 38 53 72q31 32 67 59q39 25 82 45q46 19 95 31q54 12 110 18v33q-87 -9 -171 -34q-49 -17 -94 -41q-42 -25 -80 -56q-35 -32 -64 -70q-28 -41 -49 -85q-21 -48 -34 -99q-13 -56 -19 -114z" />
    <glyph glyph-name="uni256E" unicode="&#x256e;" 
d="M0 300v-33q80 -9 158 -32q46 -16 89 -38q39 -23 74 -52q68 -62 106 -145q19 -44 32 -92q12 -53 18 -107h33q-7 58 -20 114q-13 51 -34 99q-21 44 -49 85q-29 38 -64 70q-37 31 -79 56q-46 24 -95 41q-83 25 -169 34z" />
    <glyph glyph-name="uni256F" unicode="&#x256f;" 
d="M0 313v-32q59 6 116 19q53 13 102 34q68 30 125 79q35 33 64 72q28 41 49 87q21 49 34 102q13 57 20 117h-33q-9 -82 -33 -160q-16 -46 -38 -88q-24 -40 -54 -75q-30 -33 -67 -60q-38 -26 -81 -46q-46 -19 -95 -32q-54 -12 -109 -17z" />
    <glyph glyph-name="uni2570" unicode="&#x2570;" 
d="M489 791q6 -60 19 -117q13 -53 34 -102q21 -46 49 -87q29 -39 64 -72q38 -32 80 -56q45 -25 94 -42q84 -26 171 -34v32q-56 5 -110 17q-49 13 -95 32q-43 20 -82 46q-36 27 -67 60q-30 35 -53 75q-23 42 -39 88q-25 78 -32 160h-33z" />
    <glyph glyph-name="uni2571" unicode="&#x2571;" 
d="M54 -126l31 -23l861 857l-31 21z" />
    <glyph glyph-name="uni2572" unicode="&#x2572;" 
d="M4 762l961 -951l26 29l-961 951z" />
    <glyph glyph-name="uni2573" unicode="&#x2573;" 
d="M4 762l469 -471l-469 -451l26 -29l470 451l465 -451l26 29l-465 454l465 468l-26 29l-465 -469l-470 469z" />
    <glyph glyph-name="uni2581" unicode="&#x2581;" 
d="M0 -76v-116h1000v116h-1000z" />
    <glyph glyph-name="uni2582" unicode="&#x2582;" 
d="M0 37v-231h1000v231h-1000z" />
    <glyph glyph-name="uni2583" unicode="&#x2583;" 
d="M0 163v-356h995v356h-995z" />
    <glyph glyph-name="dnblock" unicode="&#x2584;" 
d="M0 286v-481h995v481h-995z" />
    <glyph glyph-name="uni2585" unicode="&#x2585;" 
d="M0 412v-606h995v606h-995z" />
    <glyph glyph-name="uni2586" unicode="&#x2586;" 
d="M0 538v-730h1000v730h-1000z" />
    <glyph glyph-name="uni2587" unicode="&#x2587;" 
d="M0 662v-857h1000v857h-1000z" />
    <glyph glyph-name="block" unicode="&#x2588;" 
d="M0 797v-990h1000v990h-1000z" />
    <glyph glyph-name="uni2589" unicode="&#x2589;" 
d="M0 783v-990h866v990h-866z" />
    <glyph glyph-name="uni258A" unicode="&#x258a;" 
d="M0 783v-990h745v990h-745z" />
    <glyph glyph-name="uni258B" unicode="&#x258b;" 
d="M0 783v-990h625v990h-625z" />
    <glyph glyph-name="lfblock" unicode="&#x258c;" 
d="M0 783v-990h500v990h-500z" />
    <glyph glyph-name="uni258D" unicode="&#x258d;" 
d="M0 783v-990h375v990h-375z" />
    <glyph glyph-name="uni258E" unicode="&#x258e;" 
d="M0 783v-990h250v990h-250z" />
    <glyph glyph-name="uni258F" unicode="&#x258f;" 
d="M0 783v-990h125v990h-125z" />
    <glyph glyph-name="dkshade" unicode="&#x2593;" 
d="M0 783v-990h1000v990h-1000zM815 52h98v-65h-98v65zM815 318h98v-67h-98v67zM815 583h98v-65h-98v65zM719 -75h96v-65h-96v65zM719 186h96v-67h-96v67zM719 451h96v-67h-96v67zM719 714h96v-64h-96v64zM608 52h98v-65h-98v65zM608 318h98v-67h-98v67zM608 583h98v-65h-98
v65zM504 -75h98v-65h-98v65zM504 186h98v-67h-98v67zM504 451h98v-67h-98v67zM504 714h98v-64h-98v64zM397 52h98v-65h-98v65zM397 318h98v-67h-98v67zM397 583h98v-65h-98v65zM292 -75h99v-65h-99v65zM292 186h99v-67h-99v67zM292 451h99v-67h-99v67zM292 714h99v-64h-99
v64zM187 52h96v-65h-96v65zM188 318h96v-67h-96v67zM188 583h96v-65h-96v65zM84 -74h96v-66h-96v66zM84 186h96v-67h-96v67zM84 451h96v-67h-96v67zM84 714h96v-64h-96v64z" />
    <glyph glyph-name="uni2594" unicode="&#x2594;" 
d="M0 783v-121h1000v121h-1000z" />
    <glyph glyph-name="uni2595" unicode="&#x2595;" 
d="M879 783v-990h121v990h-121z" />
    <glyph glyph-name="filledbox" unicode="&#x25a0;" 
d="M102 744v-789h796v789h-796z" />
    <glyph glyph-name="H22073" unicode="&#x25a1;" 
d="M102 744v-789h796v789h-796zM145 701h710v-703h-710v703z" />
    <glyph glyph-name="triagup" unicode="&#x25b2;" 
d="M137 10h726l-363 734z" />
    <glyph glyph-name="uni25B3" unicode="&#x25b3;" 
d="M203 53l297 598l297 -598h-594zM137 10h726l-363 734z" />
    <glyph glyph-name="triagdn" unicode="&#x25bc;" 
d="M137 744l363 -734l363 734h-726z" />
    <glyph glyph-name="uni25BD" unicode="&#x25bd;" 
d="M203 701h594l-297 -598zM137 744l363 -734l363 734h-726z" />
    <glyph glyph-name="uni25C6" unicode="&#x25c6;" 
d="M125 377l375 -367l375 367l-375 375z" />
    <glyph glyph-name="uni25C7" unicode="&#x25c7;" 
d="M184 377l316 317l316 -317l-316 -316zM125 377l375 -367l375 367l-375 375z" />
    <glyph glyph-name="circle" unicode="&#x25cb;" 
d="M179 369q1 123 82 215q98 104 240 107q123 -2 215 -83q104 -98 107 -239q-2 -124 -83 -216q-98 -104 -239 -106q-124 1 -216 82q-104 98 -106 240zM140 368q2 -139 93 -243q51 -55 119 -87q71 -32 150 -32q78 0 149 32q69 32 120 87q91 104 94 243q-3 138 -94 243
q-51 55 -120 87q-71 32 -149 33q-139 -3 -243 -94q-55 -51 -87 -120q-32 -71 -32 -149z" />
    <glyph glyph-name="uni25CE" unicode="&#x25ce;" 
d="M135 366q2 -140 93 -244q52 -56 120 -88q72 -32 151 -32q78 0 150 32q69 32 121 88q92 104 95 244q-1 78 -33 150q-33 68 -89 120q-105 92 -244 95q-140 -3 -244 -95q-56 -52 -88 -120q-32 -72 -32 -150zM164 367q1 129 86 226q103 109 252 112q129 -2 226 -87
q109 -103 112 -251q-3 -149 -112 -252q-97 -85 -226 -86q-149 2 -252 111q-85 97 -86 227zM245 367q1 -98 65 -171q77 -82 190 -84q97 1 171 65q82 77 85 190q-2 97 -67 171q-77 82 -189 85q-113 -3 -190 -85q-64 -74 -65 -171zM276 366q2 99 74 168q65 57 152 59
q86 -2 151 -59q73 -69 76 -168q-2 -87 -59 -152q-69 -72 -168 -74q-87 1 -152 58q-73 68 -74 168z" />
    <glyph glyph-name="H18533" unicode="&#x25cf;" 
d="M140 370q2 -139 93 -243q51 -55 119 -87q71 -32 150 -32q138 2 242 93q55 51 87 119q32 71 33 150q-3 138 -94 242q-51 55 -119 87q-71 32 -149 33q-139 -3 -243 -94q-55 -51 -87 -119q-32 -71 -32 -149z" />
    <glyph glyph-name="uni25E2" unicode="&#x25e2;" 
d="M102 -45h796v789z" />
    <glyph glyph-name="uni25E3" unicode="&#x25e3;" 
d="M102 744v-789h796z" />
    <glyph glyph-name="uni25E4" unicode="&#x25e4;" 
d="M102 744v-789l796 789h-796z" />
    <glyph glyph-name="uni25E5" unicode="&#x25e5;" 
d="M102 744l796 -789v789h-796z" />
    <glyph glyph-name="uni2605" unicode="&#x2605;" 
d="M129 436l226 -172l-82 -262l227 153l227 -153l-82 262l226 172h-277l-94 273l-94 -273h-277z" />
    <glyph glyph-name="uni2606" unicode="&#x2606;" 
d="M129 436l223 -172l-79 -272l227 166l227 -166l-82 272l226 172h-277l-94 273l-94 -273h-277zM211 408h219l66 215h4l66 -215h223l-180 -132l71 -211l-4 -4l-176 129l-176 -133l-4 4l67 215z" />
    <glyph glyph-name="uni2609" unicode="&#x2609;" 
d="M441 365q8 -51 59 -58q22 2 40 16q17 17 19 42q-2 22 -15 40q-19 17 -44 19q-25 -2 -43 -19q-14 -18 -16 -40zM180 365q6 72 33 138q25 58 71 101q48 43 109 63q52 17 107 23q54 -6 106 -23q61 -20 109 -63q46 -43 71 -101q27 -66 34 -138q-7 -72 -34 -138
q-25 -57 -71 -99q-48 -42 -109 -62q-52 -16 -106 -21q-55 5 -107 21q-61 20 -109 62q-46 42 -71 99q-27 66 -33 138zM137 365q5 -61 24 -120q23 -68 70 -121q48 -51 113 -79q75 -30 156 -35q80 5 155 35q65 28 113 79q47 53 70 121q18 59 25 120q-8 80 -39 155
q-28 65 -80 113q-55 48 -124 71q-59 18 -120 25q-62 -7 -121 -25q-69 -23 -124 -71q-52 -48 -80 -113q-31 -75 -38 -155z" />
    <glyph glyph-name="female" unicode="&#x2640;" 
d="M324 514q2 30 10 59q11 34 34 60q23 25 55 39q37 15 77 18q30 -3 59 -11q33 -11 60 -34q25 -23 39 -55q15 -37 18 -76q-3 -40 -18 -77q-14 -32 -39 -55q-26 -23 -60 -34q-29 -8 -59 -10q-31 2 -60 10q-34 11 -60 34t-39 55q-15 37 -17 77zM277 514q3 -46 20 -88
q16 -38 44 -67q30 -28 69 -45q32 -13 67 -19v-164h-149v-47h149v-113h46v113h149v47h-149v164q34 6 66 19q38 17 69 45q28 30 44 67q16 42 21 88q-5 37 -16 73q-14 42 -43 76q-30 32 -69 50q-46 19 -95 24q-50 -5 -96 -24q-39 -18 -69 -50q-29 -34 -43 -76q-12 -36 -15 -73z
" />
    <glyph glyph-name="male" unicode="&#x2642;" 
d="M324 190q3 39 18 75q14 31 40 54q19 16 42 27q37 15 76 19q38 -4 75 -19q23 -11 42 -27q25 -23 40 -54q15 -37 19 -75q-5 -40 -19 -77q-15 -32 -40 -56q-26 -23 -59 -35q-29 -9 -58 -12q-30 3 -59 12q-33 12 -59 35q-26 24 -40 56q-15 37 -18 77zM277 190q3 -48 22 -93
q13 -28 34 -52q30 -31 70 -47q46 -18 97 -23q50 5 96 23q40 16 70 47q21 24 34 52q18 45 23 93q-5 45 -21 87q-16 37 -44 66q-31 28 -69 45q-32 13 -66 20v239q66 -67 153 -102l8 24q-12 5 -20 15q-49 34 -92 75q-36 32 -60 74h-20q-27 -42 -62 -76q-54 -51 -114 -92l12 -20
q81 38 149 98v-235q-35 -7 -67 -20q-38 -17 -69 -45q-28 -29 -44 -66q-17 -42 -20 -87z" />
    <glyph glyph-name="uni2FF0" unicode="&#x2ff0;" 
d="M836 -62v-31h68v66h-33v-35h-35zM836 715v-31h35v-34h33v65h-68zM95 -27v-66h66v31h-36v35h-30zM95 715v-65h30v34h36v31h-66zM871 505v-68h33v68h-33zM871 78v-68h33v68h-33zM871 611v-68h33v68h-33zM483 345v-67h33v67h-33zM871 184v-67h33v67h-33zM483 241v-66h33v66
h-33zM483 449v-66h33v66h-33zM871 290v-65h33v65h-33zM483 30v-65h33v65h-33zM483 135v-64h33v64h-33zM871 396v-64h33v64h-33zM483 658v-64h33v64h-33zM305 715v-31h68v31h-68zM199 715v-31h68v31h-68zM305 -62v-31h68v31h-68zM732 -62v-31h68v31h-68zM732 715v-31h68v31
h-68zM199 -62v-31h68v31h-68zM483 552v-63h33v63h-33zM626 715v-31h67v31h-67zM626 -62v-31h67v31h-67zM413 715v-31h66v31h-66zM413 -62v-31h66v31h-66zM95 505v-68h30v68h-30zM95 611v-68h30v68h-30zM95 78v-68h30v68h-30zM520 -62v-31h65v31h-65zM520 715v-31h65v31h-65z
M95 184v-67h30v67h-30zM95 290v-65h30v65h-30zM95 396v-64h30v64h-30z" />
    <glyph glyph-name="uni2FF1" unicode="&#x2ff1;" 
d="M837 714v-32h36v-36h31v68h-67zM837 -63v-31h67v67h-31v-36h-36zM95 714v-68h32v36h30v32h-62zM95 -27v-67h62v31h-30v36h-32zM623 714v-32h70v32h-70zM781 326v-33h67v33h-67zM95 186v-69h32v69h-32zM623 -63v-31h70v31h-70zM154 326v-33h65v33h-65zM677 326v-33h65v33
h-65zM873 186v-69h31v69h-31zM468 326v-33h64v33h-64zM95 76v-65h32v65h-32zM95 502v-65h32v65h-32zM733 714v-32h65v32h-65zM95 609v-65h32v65h-32zM414 714v-32h65v32h-65zM200 714v-32h65v32h-65zM260 326v-33h63v33h-63zM95 288v-64h32v64h-32zM95 395v-64h32v64h-32z
M308 714v-32h64v32h-64zM364 326v-33h62v33h-62zM573 326v-33h62v33h-62zM522 714v-32h63v32h-63zM873 76v-65h31v65h-31zM733 -63v-31h65v31h-65zM873 609v-65h31v65h-31zM414 -63v-31h65v31h-65zM873 502v-65h31v65h-31zM200 -63v-31h65v31h-65zM873 288v-64h31v64h-31z
M873 395v-64h31v64h-31zM308 -63v-31h64v31h-64zM522 -63v-31h63v31h-63z" />
    <glyph glyph-name="uni2FF2" unicode="&#x2ff2;" 
d="M99 -29v-64h66v32h-33v32h-33zM99 707v-63h33v32h33v31h-66zM837 -61v-32h64v64h-31v-32h-33zM837 707v-31h33v-32h31v63h-64zM99 603v-66h33v66h-33zM99 498v-66h33v66h-33zM99 182v-66h33v66h-33zM99 287v-66h33v66h-33zM99 77v-66h33v66h-33zM99 392v-65h33v65h-33z
M731 -61v-32h66v32h-66zM521 -61v-32h66v32h-66zM626 -61v-32h66v32h-66zM415 -61v-32h65v32h-65zM311 -61v-32h65v32h-65zM205 -61v-32h65v32h-65zM613 650v-64h32v64h-32zM613 339v-64h32v64h-32zM613 546v-64h32v64h-32zM870 287v-66h31v66h-31zM521 707v-31h66v31h-66z
M731 707v-31h66v31h-66zM870 182v-66h31v66h-31zM626 707v-31h66v31h-66zM870 498v-66h31v66h-31zM870 77v-66h31v66h-31zM870 603v-66h31v66h-31zM613 443v-63h32v63h-32zM613 132v-63h32v63h-32zM613 236v-63h32v63h-32zM415 707v-31h65v31h-65zM311 707v-31h65v31h-65z
M870 392v-65h31v65h-31zM205 707v-31h65v31h-65zM613 29v-62h32v62h-32zM356 339v-64h31v64h-31zM356 650v-64h31v64h-31zM356 546v-64h31v64h-31zM356 443v-63h31v63h-31zM356 132v-63h31v63h-31zM356 236v-63h31v63h-31zM356 29v-62h31v62h-31z" />
    <glyph glyph-name="uni2FF3" unicode="&#x2ff3;" 
d="M825 714v-31h34v-32h30v63h-64zM111 714v-63h30v32h33v31h-63zM825 -33v-30h64v62h-30v-32h-34zM111 -1v-62h63v30h-33v32h-30zM519 714v-31h64v31h-64zM724 714v-31h64v31h-64zM621 714v-31h64v31h-64zM212 714v-31h64v31h-64zM314 714v-31h63v31h-63zM417 714v-31h63
v31h-63zM859 510v-64h30v64h-30zM111 101v-64h30v64h-30zM859 613v-64h30v64h-30zM111 510v-64h30v64h-30zM111 613v-64h30v64h-30zM859 101v-64h30v64h-30zM212 -33v-30h64v30h-64zM519 -33v-30h64v30h-64zM621 -33v-30h64v30h-64zM724 -33v-30h64v30h-64zM770 466v-30h63
v30h-63zM368 215v-30h63v30h-63zM859 408v-63h30v63h-30zM111 305v-63h30v63h-30zM368 466v-30h63v30h-63zM111 408v-63h30v63h-30zM417 -33v-30h63v30h-63zM859 305v-63h30v63h-30zM167 215v-30h63v30h-63zM167 466v-30h63v30h-63zM111 203v-63h30v63h-30zM770 215v-30h63
v30h-63zM859 203v-63h30v63h-30zM314 -33v-30h63v30h-63zM570 466v-30h62v30h-62zM268 215v-30h62v30h-62zM570 215v-30h62v30h-62zM268 466v-30h62v30h-62zM671 466v-30h61v30h-61zM671 215v-30h61v30h-61zM470 215v-30h60v30h-60zM470 466v-30h60v30h-60z" />
    <glyph glyph-name="uni2FF4" unicode="&#x2ff4;" 
d="M828 712v-30h33v-33h31v63h-64zM108 712v-63h31v33h32v30h-63zM828 -40v-30h64v62h-31v-32h-33zM108 -8v-62h63v30h-32v32h-31zM305 515v-65h28v37h37v28h-65zM305 190v-64h65v28h-37v36h-28zM630 515v-28h38v-37h26v65h-64zM630 154v-28h64v64h-26v-36h-38zM861 302v-65
h31v65h-31zM108 404v-65h31v65h-31zM861 404v-65h31v65h-31zM108 302v-65h31v65h-31zM108 508v-64h31v64h-31zM861 197v-64h31v64h-31zM108 197v-64h31v64h-31zM861 508v-64h31v64h-31zM108 609v-63h31v63h-31zM861 609v-63h31v63h-31zM108 94v-63h31v63h-31zM861 94v-63h31
v63h-31zM416 712v-30h64v30h-64zM211 712v-30h64v30h-64zM416 -40v-30h64v30h-64zM519 -40v-30h64v30h-64zM211 -40v-30h64v30h-64zM623 -40v-30h64v30h-64zM623 712v-30h64v30h-64zM519 712v-30h64v30h-64zM726 -40v-30h63v30h-63zM313 712v-30h63v30h-63zM726 712v-30h63
v30h-63zM313 -40v-30h63v30h-63zM521 154v-28h67v28h-67zM521 515v-28h67v28h-67zM305 408v-66h28v66h-28zM305 299v-66h28v66h-28zM413 154v-28h65v28h-65zM413 515v-28h65v28h-65zM668 299v-66h26v66h-26zM668 408v-66h26v66h-26z" />
    <glyph glyph-name="uni2FF5" unicode="&#x2ff5;" 
d="M622 -35v-31h64v63h-31v-32h-33zM622 509v-31h33v-32h31v63h-64zM111 -4v-62h63v31h-32v31h-31zM315 -3v-63h63v31h-33v32h-30zM315 509v-63h30v32h33v31h-63zM111 712v-63h31v33h32v30h-63zM826 -35v-31h63v62h-30v-31h-33zM826 712v-30h33v-33h30v63h-63zM416 509v-31
h65v31h-65zM111 407v-65h31v65h-31zM655 203v-65h31v65h-31zM416 -35v-31h65v31h-65zM212 -35v-31h65v31h-65zM111 202v-65h31v65h-31zM655 100v-64h31v64h-31zM520 -35v-31h64v31h-64zM724 -35v-31h64v31h-64zM111 509v-64h31v64h-31zM111 611v-64h31v64h-31zM655 407v-64
h31v64h-31zM111 303v-64h31v64h-31zM111 99v-64h31v64h-31zM520 509v-31h64v31h-64zM655 304v-63h31v63h-31zM315 203v-65h30v65h-30zM416 712v-30h65v30h-65zM212 712v-30h65v30h-65zM859 407v-65h30v65h-30zM859 202v-65h30v65h-30zM859 303v-64h30v64h-30zM520 712v-30
h64v30h-64zM724 712v-30h64v30h-64zM315 407v-64h30v64h-30zM859 509v-64h30v64h-30zM622 712v-30h64v30h-64zM315 100v-64h30v64h-30zM859 99v-64h30v64h-30zM859 611v-64h30v64h-30zM315 712v-30h63v30h-63zM315 304v-63h30v63h-30z" />
    <glyph glyph-name="uni2FF6" unicode="&#x2ff6;" 
d="M308 711v-67h31v36h36v31h-67zM627 711v-31h33v-36h31v67h-64zM308 181v-64h67v31h-36v33h-31zM837 711v-31h34v-34h31v65h-65zM97 711v-65h31v34h33v31h-64zM837 -62v-31h65v64h-31v-33h-34zM97 -29v-64h64v31h-33v33h-31zM627 148v-31h64v64h-31v-33h-33zM308 500v-67
h31v67h-31zM413 -62v-31h67v31h-67zM660 288v-67h31v67h-31zM308 -62v-31h67v31h-67zM413 148v-31h67v31h-67zM97 289v-67h31v67h-31zM660 500v-67h31v67h-31zM660 606v-67h31v67h-31zM97 184v-67h31v67h-31zM308 606v-67h31v67h-31zM413 711v-31h67v31h-67zM97 500v-67h31
v67h-31zM871 289v-67h31v67h-31zM871 184v-67h31v67h-31zM308 288v-67h31v67h-31zM871 500v-67h31v67h-31zM871 607v-66h31v66h-31zM732 711v-31h66v31h-66zM519 -62v-31h66v31h-66zM519 711v-31h66v31h-66zM201 711v-31h66v31h-66zM97 394v-66h31v66h-31zM732 -62v-31h66
v31h-66zM201 -62v-31h66v31h-66zM871 76v-66h31v66h-31zM308 393v-66h31v66h-31zM97 607v-66h31v66h-31zM97 76v-66h31v66h-31zM871 394v-66h31v66h-31zM660 393v-66h31v66h-31zM519 148v-31h66v31h-66zM627 -62v-31h64v31h-64z" />
    <glyph glyph-name="uni2FF7" unicode="&#x2ff7;" 
d="M827 163v-32h64v64h-30v-32h-34zM313 195v-64h63v32h-33v32h-30zM827 504v-30h34v-34h30v64h-64zM108 -11v-62h63v31h-32v31h-31zM108 709v-63h31v33h32v30h-63zM313 504v-64h30v34h33v30h-63zM828 -42v-31h63v62h-30v-31h-33zM828 709v-30h33v-33h30v63h-63zM518 163
v-32h65v32h-65zM724 163v-32h65v32h-65zM621 163v-32h64v32h-64zM415 163v-32h64v32h-64zM725 -42v-31h65v31h-65zM108 93v-65h31v65h-31zM210 -42v-31h65v31h-65zM108 608v-65h31v65h-31zM622 -42v-31h64v31h-64zM108 504v-64h31v64h-31zM108 298v-64h31v64h-31zM108 195
v-64h31v64h-31zM416 -42v-31h64v31h-64zM313 -42v-31h64v31h-64zM108 401v-63h31v63h-31zM520 -42v-31h63v31h-63zM861 93v-65h30v65h-30zM518 504v-30h65v30h-65zM210 709v-30h65v30h-65zM724 504v-30h65v30h-65zM861 608v-65h30v65h-30zM725 709v-30h65v30h-65zM415 504
v-30h64v30h-64zM622 709v-30h64v30h-64zM313 298v-64h30v64h-30zM861 298v-64h30v64h-30zM416 709v-30h64v30h-64zM313 709v-30h64v30h-64zM621 504v-30h64v30h-64zM313 401v-63h30v63h-30zM861 401v-63h30v63h-30zM520 709v-30h63v30h-63z" />
    <glyph glyph-name="uni2FF8" unicode="&#x2ff8;" 
d="M830 711v-31h33v-32h31v63h-64zM106 711v-63h31v32h32v31h-63zM830 -45v-30h64v62h-31v-32h-33zM106 -13v-62h63v30h-32v32h-31zM293 525v-60h30v29h30v31h-60zM106 506v-66h31v66h-31zM863 506v-66h31v66h-31zM863 298v-65h31v65h-31zM416 711v-31h65v31h-65zM209 711
v-31h65v31h-65zM519 711v-31h65v31h-65zM623 711v-31h65v31h-65zM106 298v-65h31v65h-31zM106 194v-64h31v64h-31zM313 711v-31h64v31h-64zM106 401v-64h31v64h-31zM863 194v-64h31v64h-31zM726 711v-31h64v31h-64zM863 401v-64h31v64h-31zM106 91v-64h31v64h-31zM863 91
v-64h31v64h-31zM106 608v-63h31v63h-31zM863 608v-63h31v63h-31zM416 -45v-30h65v30h-65zM519 -45v-30h65v30h-65zM209 -45v-30h65v30h-65zM623 -45v-30h65v30h-65zM726 -45v-30h64v30h-64zM313 -45v-30h64v30h-64zM681 525v-31h61v31h-61zM778 525v-31h60v31h-60zM584 525
v-31h59v31h-59zM488 525v-31h59v31h-59zM390 525v-31h59v31h-59zM293 137v-60h30v60h-30zM293 428v-60h30v60h-30zM293 40v-60h30v60h-30zM293 331v-60h30v60h-30zM293 233v-59h30v59h-30z" />
    <glyph glyph-name="uni2FF9" unicode="&#x2ff9;" 
d="M833 -54v-31h65v64h-32v-33h-33zM833 710v-31h33v-33h32v64h-65zM101 -21v-64h64v31h-32v33h-32zM101 710v-64h32v33h32v31h-64zM648 522v-31h29v-29h32v60h-61zM101 292v-65h32v65h-32zM866 397v-65h32v65h-32zM866 607v-65h32v65h-32zM866 292v-65h32v65h-32zM101 82
v-65h32v65h-32zM866 187v-65h32v65h-32zM101 397v-65h32v65h-32zM866 82v-65h32v65h-32zM101 607v-65h32v65h-32zM101 187v-65h32v65h-32zM866 501v-64h32v64h-32zM101 501v-64h32v64h-32zM519 710v-31h66v31h-66zM519 -54v-31h66v31h-66zM204 -54v-31h66v31h-66zM204 710
v-31h66v31h-66zM414 710v-31h65v31h-65zM729 710v-31h65v31h-65zM414 -54v-31h65v31h-65zM624 710v-31h65v31h-65zM310 -54v-31h65v31h-65zM624 -54v-31h65v31h-65zM729 -54v-31h65v31h-65zM310 710v-31h65v31h-65zM677 32v-61h32v61h-32zM677 129v-61h32v61h-32zM677 227
v-60h32v60h-32zM452 522v-31h61v31h-61zM157 522v-31h61v31h-61zM677 423v-59h32v59h-32zM677 325v-59h32v59h-32zM256 522v-31h60v31h-60zM551 522v-31h60v31h-60zM354 522v-31h60v31h-60z" />
    <glyph glyph-name="uni2FFA" unicode="&#x2ffa;" 
d="M832 -53v-31h65v64h-31v-33h-34zM103 -20v-64h64v31h-33v33h-31zM832 709v-30h34v-34h31v64h-65zM103 709v-64h31v34h33v30h-64zM291 163v-59h60v30h-29v29h-31zM519 -53v-31h66v31h-66zM866 397v-65h31v65h-31zM415 -53v-31h65v31h-65zM206 -53v-31h65v31h-65zM103 606
v-65h31v65h-31zM103 293v-65h31v65h-31zM103 84v-65h31v65h-31zM103 188v-65h31v65h-31zM103 397v-65h31v65h-31zM866 293v-65h31v65h-31zM866 188v-65h31v65h-31zM866 84v-65h31v65h-31zM866 606v-65h31v65h-31zM311 -53v-31h64v31h-64zM624 -53v-31h64v31h-64zM729 -53
v-31h64v31h-64zM103 501v-64h31v64h-31zM866 501v-64h31v64h-31zM519 709v-30h66v30h-66zM415 709v-30h65v30h-65zM206 709v-30h65v30h-65zM729 709v-30h64v30h-64zM311 709v-30h64v30h-64zM624 709v-30h64v30h-64zM291 653v-61h31v61h-31zM291 457v-60h31v60h-31zM291 555
v-60h31v60h-31zM291 359v-60h31v60h-31zM780 134v-30h61v30h-61zM291 261v-59h31v59h-31zM585 134v-30h60v30h-60zM389 134v-30h60v30h-60zM683 134v-30h60v30h-60zM487 134v-30h60v30h-60z" />
    <glyph glyph-name="uni2FFB" unicode="&#x2ffb;" 
d="M647 126v-31h70v69h-31v-38h-39zM283 529v-69h31v39h38v30h-69zM647 709v-30h39v-35h31v65h-70zM103 164v-69h64v31h-33v38h-31zM283 -20v-64h69v31h-38v33h-31zM832 529v-30h34v-39h31v69h-65zM832 -53v-31h65v64h-31v-33h-34zM103 709v-65h31v35h33v30h-64zM103 603
v-69h31v69h-31zM504 -53v-31h68v31h-68zM686 383v-68h31v68h-31zM613 -53v-31h68v31h-68zM866 308v-68h31v68h-31zM686 274v-68h31v68h-31zM283 419v-68h31v68h-31zM723 -53v-31h68v31h-68zM103 383v-68h31v68h-31zM103 274v-68h31v68h-31zM866 199v-68h31v68h-31zM866 419
v-68h31v68h-31zM283 308v-68h31v68h-31zM429 126v-31h67v31h-67zM539 126v-31h67v31h-67zM394 -53v-31h67v31h-67zM866 89v-67h31v67h-31zM103 492v-67h31v67h-31zM209 709v-30h68v30h-68zM504 529v-30h68v30h-68zM394 529v-30h67v30h-67zM539 709v-30h67v30h-67zM429 709
v-30h67v30h-67zM320 709v-30h67v30h-67zM686 603v-64h31v64h-31zM283 199v-64h31v64h-31zM323 126v-31h64v31h-64zM283 86v-64h31v64h-31zM686 489v-64h31v64h-31zM209 126v-31h64v31h-64zM613 529v-30h64v30h-64zM727 529v-30h64v30h-64z" />
    <glyph glyph-name="uni3000" unicode="&#x3000;" 
 />
    <glyph glyph-name="uni3001" unicode="&#x3001;" 
d="M191 135q56 -61 101 -130q43 -61 77 -129l132 103q-48 72 -106 136q-47 54 -103 97z" />
    <glyph glyph-name="uni3002" unicode="&#x3002;" 
d="M305 -144q71 1 120 52q40 46 41 107q-1 70 -52 118q-48 39 -109 40q-63 -1 -110 -40q-52 -48 -52 -118t52 -119q47 -39 110 -40zM305 -55q-31 0 -53 22q-17 21 -16 48q-1 27 16 48q22 22 53 22t53 -22q18 -21 18 -48q-1 -26 -19 -47q-21 -22 -52 -23z" />
    <glyph glyph-name="uni3003" unicode="&#x3003;" 
d="M203 157h114l223 403h-171zM460 157h124l223 403h-171z" />
    <glyph glyph-name="uni3005" unicode="&#x3005;" 
d="M245 244q122 -157 213 -334h203q-29 59 -63 113q116 102 185 242q35 76 56 157q20 83 28 169h-439q34 88 54 181h-182q-46 -133 -114 -256q-67 -124 -149 -237h229q52 70 90 150h288q-18 -76 -59 -141q-39 -62 -93 -110q-26 34 -53 66h-194z" />
    <glyph glyph-name="uni3006" unicode="&#x3006;" 
d="M827 744l-246 -236q-98 79 -224 77q-62 -1 -118 -27q-52 -27 -88 -75q-38 -53 -53 -117q-12 -56 -12 -112q1 -101 32 -198q27 -87 76 -166l378 360l180 -188l131 138l-174 180l250 238zM268 280q-2 49 24 91q26 36 70 39q48 -1 85 -32l-170 -163q-10 31 -9 65z" />
    <glyph glyph-name="uni3007" unicode="&#x3007;" 
d="M39 347q0 -76 23 -147q30 -91 94 -163q64 -69 151 -109q44 -19 92 -30q49 -10 100 -11q75 1 148 24q91 30 163 93q71 64 110 151q19 44 30 92q10 49 11 100q-1 75 -23 148q-31 91 -94 163q-65 71 -152 110q-45 19 -93 30q-50 10 -100 11q-51 -1 -100 -11q-48 -11 -92 -30
q-87 -39 -151 -110q-64 -72 -94 -163q-23 -73 -23 -148zM213 346q0 63 24 121q24 54 67 95q44 40 101 58q45 14 93 15q47 -2 93 -15q57 -18 102 -58q44 -40 69 -95q24 -58 25 -121q-1 -48 -15 -93q-18 -57 -58 -101q-41 -43 -95 -67q-58 -24 -121 -24q-48 0 -93 13
q-56 19 -101 58q-43 39 -67 93q-24 58 -24 121z" />
    <glyph glyph-name="uni3008" unicode="&#x3008;" 
d="M883 -110l-141 445l141 445h-154l-165 -409v-72l165 -409h154z" />
    <glyph glyph-name="uni3009" unicode="&#x3009;" 
d="M271 -110l165 409v72l-165 409h-154l141 -445l-141 -445h154z" />
    <glyph glyph-name="uni300A" unicode="&#x300a;" 
d="M883 -110l-141 445l141 445h-154l-165 -409v-72l165 -409h154zM573 -110l-141 445l141 445h-154l-165 -409v-72l165 -409h154z" />
    <glyph glyph-name="uni300B" unicode="&#x300b;" 
d="M271 -110l165 409v72l-165 409h-154l141 -445l-141 -445h154zM581 -110l165 409v72l-165 409h-154l141 -445l-141 -445h154z" />
    <glyph glyph-name="uni300C" unicode="&#x300c;" 
d="M521 780v-780h200v577h179v203h-379z" />
    <glyph glyph-name="uni300D" unicode="&#x300d;" 
d="M479 -110v780h-200v-577h-179v-203h379z" />
    <glyph glyph-name="uni300E" unicode="&#x300e;" 
d="M486 780v-780h245v557h169v223h-414zM807 696v-55h-168v-540h-58v595h226z" />
    <glyph glyph-name="uni300F" unicode="&#x300f;" 
d="M514 -110v780h-245v-557h-169v-223h414zM193 -26v55h168v540h58v-595h-226z" />
    <glyph glyph-name="uni3010" unicode="&#x3010;" 
d="M546 780v-890h305q-22 32 -37 67q-23 58 -38 120q-33 131 -35 267q0 59 10 118q10 66 26 130q16 61 39 119q14 36 34 69h-304z" />
    <glyph glyph-name="uni3011" unicode="&#x3011;" 
d="M149 -110h305v890h-304q19 -34 33 -69q23 -58 39 -119q16 -65 26 -130q9 -59 11 -118q-3 -136 -36 -267q-15 -62 -38 -120q-15 -35 -36 -67z" />
    </font>
</defs>
</svg>
